<?xml version="1.0" encoding="UTF-8"?>
<svg width="141.57474mm" height="150.95898mm" version="1.1" viewBox="0 0 141.57474 150.95899" xmlns="http://www.w3.org/2000/svg" xmlns:xlink="http://www.w3.org/1999/xlink">
 <defs>
  <marker id="p" overflow="visible" orient="auto">
   <path transform="scale(.6) rotate(180) translate(0)" d="m8.7185878 4.0337352l-10.925877-4.0177219 10.925878-4.0177211c-1.7454984 2.3720609-1.7354408 5.6174519-6e-7 8.035443z" fill="#666" fill-rule="evenodd" stroke="#666" stroke-linejoin="round" stroke-width=".625"/>
  </marker>
  <marker id="q" overflow="visible" orient="auto">
   <path transform="scale(-.6)" d="m8.7185878 4.0337352-10.925877-4.0177219 10.925878-4.0177211c-1.7454984 2.3720609-1.7354408 5.6174519-6e-7 8.035443z" fill="#666" fill-rule="evenodd" stroke="#666" stroke-linejoin="round" stroke-width=".625"/>
  </marker>
  <marker id="r" overflow="visible" orient="auto">
   <path transform="scale(-.6)" d="m8.7185878 4.0337352-10.925877-4.0177219 10.925878-4.0177211c-1.7454984 2.3720609-1.7354408 5.6174519-6e-7 8.035443z" fill="#666" fill-rule="evenodd" stroke="#666" stroke-linejoin="round" stroke-width=".625"/>
  </marker>
  <marker id="s" overflow="visible" orient="auto">
   <path transform="scale(-.6)" d="m8.7185878 4.0337352-10.925877-4.0177219 10.925878-4.0177211c-1.7454984 2.3720609-1.7354408 5.6174519-6e-7 8.035443z" fill="#666" fill-rule="evenodd" stroke="#666" stroke-linejoin="round" stroke-width=".625"/>
  </marker>
  <marker id="t" overflow="visible" orient="auto">
   <path transform="scale(-.6)" d="m8.7185878 4.0337352-10.925877-4.0177219 10.925878-4.0177211c-1.7454984 2.3720609-1.7354408 5.6174519-6e-7 8.035443z" fill="#666" fill-rule="evenodd" stroke="#666" stroke-linejoin="round" stroke-width=".625"/>
  </marker>
  <marker id="k" overflow="visible" orient="auto">
   <path transform="scale(-.6)" d="m8.7185878 4.0337352-10.925877-4.0177219 10.925878-4.0177211c-1.7454984 2.3720609-1.7354408 5.6174519-6e-7 8.035443z" fill="#666" fill-rule="evenodd" stroke="#666" stroke-linejoin="round" stroke-width=".625"/>
  </marker>
  <marker id="l" overflow="visible" orient="auto">
   <path transform="scale(-.6)" d="m8.7185878 4.0337352-10.925877-4.0177219 10.925878-4.0177211c-1.7454984 2.3720609-1.7354408 5.6174519-6e-7 8.035443z" fill="#666" fill-rule="evenodd" stroke="#666" stroke-linejoin="round" stroke-width=".625"/>
  </marker>
  <marker id="m" overflow="visible" orient="auto">
   <path transform="scale(-.6)" d="m8.7185878 4.0337352-10.925877-4.0177219 10.925878-4.0177211c-1.7454984 2.3720609-1.7354408 5.6174519-6e-7 8.035443z" fill="#666" fill-rule="evenodd" stroke="#666" stroke-linejoin="round" stroke-width=".625"/>
  </marker>
  <marker id="n" overflow="visible" orient="auto">
   <path transform="scale(-.6)" d="m8.7185878 4.0337352-10.925877-4.0177219 10.925878-4.0177211c-1.7454984 2.3720609-1.7354408 5.6174519-6e-7 8.035443z" fill="#666" fill-rule="evenodd" stroke="#666" stroke-linejoin="round" stroke-width=".625"/>
  </marker>
  <marker id="o" overflow="visible" orient="auto">
   <path transform="scale(-.6)" d="m8.7185878 4.0337352-10.925877-4.0177219 10.925878-4.0177211c-1.7454984 2.3720609-1.7354408 5.6174519-6e-7 8.035443z" fill="#666" fill-rule="evenodd" stroke="#666" stroke-linejoin="round" stroke-width=".625"/>
  </marker>
  <symbol id="ae" overflow="visible">
   <path d="m10.296875-24.484375c0-.04687 0-.40625-.46875-.40625-.828125 0-3.4375.296875-4.375.359375-.296875.04687-.6875.07813-.6875.71875 0 .4375.328125.4375.859375.4375 1.71875 0 1.796875.25 1.796875.609375l-.109375.71875-5.203125 20.640625c-.140625.515625-.140625.578125-.140625.796875 0 .828125.71875 1 1.046875 1 .5625 0 1.140625-.421875 1.328125-.921875l.671875-2.734375.796875-3.21875c.21875-.796875.421875-1.578125.609375-2.40625.0625-.21875.359375-1.40625.390625-1.609375.109375-.328125 1.21875-2.34375 2.4375-3.3125.796875-.5625 1.90625-1.25 3.4375-1.25 1.546875 0 1.9375 1.21875 1.9375 2.515625 0 1.9375-1.359375 5.84375-2.21875 8.03125-.28125.828125-.46875 1.25-.46875 1.96875 0 1.6875 1.265625 2.9375 2.9375 2.9375 3.375 0 4.703125-5.234375 4.703125-5.515625 0-.359375-.328125-.359375-.421875-.359375-.359375 0-.359375.109375-.546875.640625-.53125 1.90625-1.6875 4.453125-3.65625 4.453125-.609375 0-.859375-.359375-.859375-1.1875 0-.890625.328125-1.75.640625-2.546875.578125-1.546875 2.1875-5.8125 2.1875-7.890625 0-2.328125-1.4375-3.828125-4.125-3.828125-2.25 0-3.96875 1.109375-5.296875 2.75z"/>
  </symbol>
  <symbol id="ab" overflow="visible">
   <path d="m6.171875-9.921875h2.5625c.484375 0 .8125 0 .8125-.546875 0-.359375-.328125-.359375-.765625-.359375h-2.375l.921875-3.703125c.03125-.125.078125-.265625.078125-.359375 0-.453125-.34375-.796875-.859375-.796875-.625 0-1 .421875-1.171875 1.078125-.171875.625.15625-.578125-.953125 3.78125h-2.5625c-.484375 0-.8125 0-.8125.5625 0 .34375.3125.34375.765625.34375h2.375l-1.46875 5.921875c-.15625.640625-.390625 1.546875-.390625 1.859375 0 1.484375 1.265625 2.390625 2.6875 2.390625 2.796875 0 4.375-3.515625 4.375-3.84375s-.328125-.328125-.40625-.328125c-.296875 0-.328125.0625-.515625.484375-.703125 1.578125-1.984375 2.984375-3.375 2.984375-.53125 0-.875-.328125-.875-1.234375 0-.25.09375-.765625.15625-1.03125z"/>
  </symbol>
  <symbol id="y" overflow="visible">
   <path d="m2.984375-3.4375c.25 1.625 1.078125 3.734375 3.21875 3.734375.796875 0 1.703125-.328125 2.609375-.90625.421875-.25 1.734375-1.171875 1.734375-1.46875 0-.15625-.171875-.484375-.40625-.484375-.125 0-.171875 0-.546875.375-1.078125.953125-2.234375 1.78125-3.359375 1.78125-1.71875 0-1.71875-2.9375-1.71875-3.40625 0-.328125 0-.375.046875-.859375.03125-.25.03125-.296875.328125-.578125 1.390625-1.296875 6.125-5.875 6.125-10.25 0-.375 0-2.171875-1.65625-2.171875-2.078125 0-3.765625 3.234375-4.15625 3.984375-1.109375 2.140625-1.6875 4.203125-1.96875 5.453125-.375 1.6875-.375 2.5625-.375 3.796875-.171875.171875-1.609375 1.453125-1.859375 1.65625-.390625.34375-.421875.375-.421875.515625 0 .1875.21875.453125.421875.453125.1875 0 .859375-.625 1.03125-.796875zm1.8125-2.859375c.453125-2.5625 2.4375-10.671875 4.546875-10.671875.578125 0 .875.390625.875 1.296875 0 .3125 0 2.546875-2.15625 5.625-1.28125 1.8125-2.65625 3.171875-3.265625 3.75z"/>
  </symbol>
  <symbol id="i" overflow="visible">
   <path d="m10.296875-24.484375c0-.04687 0-.40625-.46875-.40625-.828125 0-3.4375.296875-4.375.359375-.296875.04687-.6875.07813-.6875.71875 0 .4375.328125.4375.859375.4375 1.71875 0 1.796875.25 1.796875.609375l-.109375.71875-5.203125 20.640625c-.140625.515625-.140625.578125-.140625.796875 0 .828125.71875 1 1.046875 1 .5625 0 1.140625-.421875 1.328125-.921875l.671875-2.734375.796875-3.21875c.21875-.796875.421875-1.578125.609375-2.40625.0625-.21875.359375-1.40625.390625-1.609375.109375-.328125 1.21875-2.34375 2.4375-3.3125.796875-.5625 1.90625-1.25 3.4375-1.25 1.546875 0 1.9375 1.21875 1.9375 2.515625 0 1.9375-1.359375 5.84375-2.21875 8.03125-.28125.828125-.46875 1.25-.46875 1.96875 0 1.6875 1.265625 2.9375 2.9375 2.9375 3.375 0 4.703125-5.234375 4.703125-5.515625 0-.359375-.328125-.359375-.421875-.359375-.359375 0-.359375.109375-.546875.640625-.53125 1.90625-1.6875 4.453125-3.65625 4.453125-.609375 0-.859375-.359375-.859375-1.1875 0-.890625.328125-1.75.640625-2.546875.578125-1.546875 2.1875-5.8125 2.1875-7.890625 0-2.328125-1.4375-3.828125-4.125-3.828125-2.25 0-3.96875 1.109375-5.296875 2.75z"/>
  </symbol>
  <symbol id="g" overflow="visible">
   <path d="m6.171875-9.921875h2.5625c.484375 0 .8125 0 .8125-.546875 0-.359375-.328125-.359375-.765625-.359375h-2.375l.921875-3.703125c.03125-.125.078125-.265625.078125-.359375 0-.453125-.34375-.796875-.859375-.796875-.625 0-1 .421875-1.171875 1.078125-.171875.625.15625-.578125-.953125 3.78125h-2.5625c-.484375 0-.8125 0-.8125.5625 0 .34375.3125.34375.765625.34375h2.375l-1.46875 5.921875c-.15625.640625-.390625 1.546875-.390625 1.859375 0 1.484375 1.265625 2.390625 2.6875 2.390625 2.796875 0 4.375-3.515625 4.375-3.84375s-.328125-.328125-.40625-.328125c-.296875 0-.328125.0625-.515625.484375-.703125 1.578125-1.984375 2.984375-3.375 2.984375-.53125 0-.875-.328125-.875-1.234375 0-.25.09375-.765625.15625-1.03125z"/>
  </symbol>
  <symbol id="f" overflow="visible">
   <path d="m2.984375-3.4375c.25 1.625 1.078125 3.734375 3.21875 3.734375.796875 0 1.703125-.328125 2.609375-.90625.421875-.25 1.734375-1.171875 1.734375-1.46875 0-.15625-.171875-.484375-.40625-.484375-.125 0-.171875 0-.546875.375-1.078125.953125-2.234375 1.78125-3.359375 1.78125-1.71875 0-1.71875-2.9375-1.71875-3.40625 0-.328125 0-.375.046875-.859375.03125-.25.03125-.296875.328125-.578125 1.390625-1.296875 6.125-5.875 6.125-10.25 0-.375 0-2.171875-1.65625-2.171875-2.078125 0-3.765625 3.234375-4.15625 3.984375-1.109375 2.140625-1.6875 4.203125-1.96875 5.453125-.375 1.6875-.375 2.5625-.375 3.796875-.171875.171875-1.609375 1.453125-1.859375 1.65625-.390625.34375-.421875.375-.421875.515625 0 .1875.21875.453125.421875.453125.1875 0 .859375-.625 1.03125-.796875zm1.8125-2.859375c.453125-2.5625 2.4375-10.671875 4.546875-10.671875.578125 0 .875.390625.875 1.296875 0 .3125 0 2.546875-2.15625 5.625-1.28125 1.8125-2.65625 3.171875-3.265625 3.75z"/>
  </symbol>
  <symbol id="d" overflow="visible">
   <path d="m18.6875-5.671875c.390625 0 1 0 1-.609375 0-.625-.578125-.625-1-.625h-14.96875c-.40625 0-1 0-1 .609375 0 .625.578125.625 1 .625z"/>
  </symbol>
  <symbol id="b" overflow="visible">
   <path d="m8.40625-15.96875c0-.671875-.046875-.703125-.75-.703125-1.609375 1.578125-3.890625 1.609375-4.921875 1.609375v.90625c.609375 0 2.265625 0 3.640625-.703125v12.796875c0 .828125 0 1.15625-2.515625 1.15625h-.953125v.90625c.453125-.03125 3.546875-.09375 4.46875-.09375.78125 0 3.953125.0625 4.5.09375v-.90625h-.953125c-2.515625 0-2.515625-.328125-2.515625-1.15625z"/>
  </symbol>
  <symbol id="j" overflow="visible">
   <path d="m10.296875-24.484375c0-.04687 0-.40625-.46875-.40625-.828125 0-3.4375.296875-4.375.359375-.296875.04687-.6875.07813-.6875.71875 0 .4375.328125.4375.859375.4375 1.71875 0 1.796875.25 1.796875.609375l-.109375.71875-5.203125 20.640625c-.140625.515625-.140625.578125-.140625.796875 0 .828125.71875 1 1.046875 1 .5625 0 1.140625-.421875 1.328125-.921875l.671875-2.734375.796875-3.21875c.21875-.796875.421875-1.578125.609375-2.40625.0625-.21875.359375-1.40625.390625-1.609375.109375-.328125 1.21875-2.34375 2.4375-3.3125.796875-.5625 1.90625-1.25 3.4375-1.25 1.546875 0 1.9375 1.21875 1.9375 2.515625 0 1.9375-1.359375 5.84375-2.21875 8.03125-.28125.828125-.46875 1.25-.46875 1.96875 0 1.6875 1.265625 2.9375 2.9375 2.9375 3.375 0 4.703125-5.234375 4.703125-5.515625 0-.359375-.328125-.359375-.421875-.359375-.359375 0-.359375.109375-.546875.640625-.53125 1.90625-1.6875 4.453125-3.65625 4.453125-.609375 0-.859375-.359375-.859375-1.1875 0-.890625.328125-1.75.640625-2.546875.578125-1.546875 2.1875-5.8125 2.1875-7.890625 0-2.328125-1.4375-3.828125-4.125-3.828125-2.25 0-3.96875 1.109375-5.296875 2.75z"/>
  </symbol>
  <symbol id="h" overflow="visible">
   <path d="m6.171875-9.921875h2.5625c.484375 0 .8125 0 .8125-.546875 0-.359375-.328125-.359375-.765625-.359375h-2.375l.921875-3.703125c.03125-.125.078125-.265625.078125-.359375 0-.453125-.34375-.796875-.859375-.796875-.625 0-1 .421875-1.171875 1.078125-.171875.625.15625-.578125-.953125 3.78125h-2.5625c-.484375 0-.8125 0-.8125.5625 0 .34375.3125.34375.765625.34375h2.375l-1.46875 5.921875c-.15625.640625-.390625 1.546875-.390625 1.859375 0 1.484375 1.265625 2.390625 2.6875 2.390625 2.796875 0 4.375-3.515625 4.375-3.84375s-.328125-.328125-.40625-.328125c-.296875 0-.328125.0625-.515625.484375-.703125 1.578125-1.984375 2.984375-3.375 2.984375-.53125 0-.875-.328125-.875-1.234375 0-.25.09375-.765625.15625-1.03125z"/>
  </symbol>
  <symbol id="e" overflow="visible">
   <path d="m2.984375-3.4375c.25 1.625 1.078125 3.734375 3.21875 3.734375.796875 0 1.703125-.328125 2.609375-.90625.421875-.25 1.734375-1.171875 1.734375-1.46875 0-.15625-.171875-.484375-.40625-.484375-.125 0-.171875 0-.546875.375-1.078125.953125-2.234375 1.78125-3.359375 1.78125-1.71875 0-1.71875-2.9375-1.71875-3.40625 0-.328125 0-.375.046875-.859375.03125-.25.03125-.296875.328125-.578125 1.390625-1.296875 6.125-5.875 6.125-10.25 0-.375 0-2.171875-1.65625-2.171875-2.078125 0-3.765625 3.234375-4.15625 3.984375-1.109375 2.140625-1.6875 4.203125-1.96875 5.453125-.375 1.6875-.375 2.5625-.375 3.796875-.171875.171875-1.609375 1.453125-1.859375 1.65625-.390625.34375-.421875.375-.421875.515625 0 .1875.21875.453125.421875.453125.1875 0 .859375-.625 1.03125-.796875zm1.8125-2.859375c.453125-2.5625 2.4375-10.671875 4.546875-10.671875.578125 0 .875.390625.875 1.296875 0 .3125 0 2.546875-2.15625 5.625-1.28125 1.8125-2.65625 3.171875-3.265625 3.75z"/>
  </symbol>
  <symbol id="c" overflow="visible">
   <path d="m18.6875-5.671875c.390625 0 1 0 1-.609375 0-.625-.578125-.625-1-.625h-14.96875c-.40625 0-1 0-1 .609375 0 .625.578125.625 1 .625z"/>
  </symbol>
  <symbol id="a" overflow="visible">
   <path d="m8.40625-15.96875c0-.671875-.046875-.703125-.75-.703125-1.609375 1.578125-3.890625 1.609375-4.921875 1.609375v.90625c.609375 0 2.265625 0 3.640625-.703125v12.796875c0 .828125 0 1.15625-2.515625 1.15625h-.953125v.90625c.453125-.03125 3.546875-.09375 4.46875-.09375.78125 0 3.953125.0625 4.5.09375v-.90625h-.953125c-2.515625 0-2.515625-.328125-2.515625-1.15625z"/>
  </symbol>
  <symbol id="ac" overflow="visible">
   <path d="m14.203125-13.625c-.578125 0-1.078125 0-1.578125.5-.578125.53125-.640625 1.140625-.640625 1.40625 0 .859375.640625 1.25 1.3125 1.25 1.046875 0 2.015625-.859375 2.015625-2.296875 0-1.75-1.6875-3.078125-4.234375-3.078125-4.84375 0-9.609375 5.125-9.609375 10.171875 0 3.234375 2.078125 6.0625 5.8125 6.0625 5.125 0 8.140625-3.796875 8.140625-4.234375 0-.203125-.21875-.453125-.4375-.453125-.171875 0-.25.0625-.46875.359375-2.828125 3.546875-6.734375 3.546875-7.171875 3.546875-2.25 0-3.21875-1.765625-3.21875-3.90625 0-1.46875.71875-4.953125 1.9375-7.171875 1.109375-2.046875 3.078125-3.59375 5.046875-3.59375 1.21875 0 2.59375.46875 3.09375 1.4375z"/>
  </symbol>
  <symbol id="z" overflow="visible">
   <path d="m6.171875-9.921875h2.5625c.484375 0 .8125 0 .8125-.546875 0-.359375-.328125-.359375-.765625-.359375h-2.375l.921875-3.703125c.03125-.125.078125-.265625.078125-.359375 0-.453125-.34375-.796875-.859375-.796875-.625 0-1 .421875-1.171875 1.078125-.171875.625.15625-.578125-.953125 3.78125h-2.5625c-.484375 0-.8125 0-.8125.5625 0 .34375.3125.34375.765625.34375h2.375l-1.46875 5.921875c-.15625.640625-.390625 1.546875-.390625 1.859375 0 1.484375 1.265625 2.390625 2.6875 2.390625 2.796875 0 4.375-3.515625 4.375-3.84375s-.328125-.328125-.40625-.328125c-.296875 0-.328125.0625-.515625.484375-.703125 1.578125-1.984375 2.984375-3.375 2.984375-.53125 0-.875-.328125-.875-1.234375 0-.25.09375-.765625.15625-1.03125z"/>
  </symbol>
  <symbol id="w" overflow="visible">
   <path d="m2.984375-3.4375c.25 1.625 1.078125 3.734375 3.21875 3.734375.796875 0 1.703125-.328125 2.609375-.90625.421875-.25 1.734375-1.171875 1.734375-1.46875 0-.15625-.171875-.484375-.40625-.484375-.125 0-.171875 0-.546875.375-1.078125.953125-2.234375 1.78125-3.359375 1.78125-1.71875 0-1.71875-2.9375-1.71875-3.40625 0-.328125 0-.375.046875-.859375.03125-.25.03125-.296875.328125-.578125 1.390625-1.296875 6.125-5.875 6.125-10.25 0-.375 0-2.171875-1.65625-2.171875-2.078125 0-3.765625 3.234375-4.15625 3.984375-1.109375 2.140625-1.6875 4.203125-1.96875 5.453125-.375 1.6875-.375 2.5625-.375 3.796875-.171875.171875-1.609375 1.453125-1.859375 1.65625-.390625.34375-.421875.375-.421875.515625 0 .1875.21875.453125.421875.453125.1875 0 .859375-.625 1.03125-.796875zm1.8125-2.859375c.453125-2.5625 2.4375-10.671875 4.546875-10.671875.578125 0 .875.390625.875 1.296875 0 .3125 0 2.546875-2.15625 5.625-1.28125 1.8125-2.65625 3.171875-3.265625 3.75z"/>
  </symbol>
  <symbol id="ad" overflow="visible">
   <path d="m14.203125-13.625c-.578125 0-1.078125 0-1.578125.5-.578125.53125-.640625 1.140625-.640625 1.40625 0 .859375.640625 1.25 1.3125 1.25 1.046875 0 2.015625-.859375 2.015625-2.296875 0-1.75-1.6875-3.078125-4.234375-3.078125-4.84375 0-9.609375 5.125-9.609375 10.171875 0 3.234375 2.078125 6.0625 5.8125 6.0625 5.125 0 8.140625-3.796875 8.140625-4.234375 0-.203125-.21875-.453125-.4375-.453125-.171875 0-.25.0625-.46875.359375-2.828125 3.546875-6.734375 3.546875-7.171875 3.546875-2.25 0-3.21875-1.765625-3.21875-3.90625 0-1.46875.71875-4.953125 1.9375-7.171875 1.109375-2.046875 3.078125-3.59375 5.046875-3.59375 1.21875 0 2.59375.46875 3.09375 1.4375z"/>
  </symbol>
  <symbol id="aa" overflow="visible">
   <path d="m6.171875-9.921875h2.5625c.484375 0 .8125 0 .8125-.546875 0-.359375-.328125-.359375-.765625-.359375h-2.375l.921875-3.703125c.03125-.125.078125-.265625.078125-.359375 0-.453125-.34375-.796875-.859375-.796875-.625 0-1 .421875-1.171875 1.078125-.171875.625.15625-.578125-.953125 3.78125h-2.5625c-.484375 0-.8125 0-.8125.5625 0 .34375.3125.34375.765625.34375h2.375l-1.46875 5.921875c-.15625.640625-.390625 1.546875-.390625 1.859375 0 1.484375 1.265625 2.390625 2.6875 2.390625 2.796875 0 4.375-3.515625 4.375-3.84375s-.328125-.328125-.40625-.328125c-.296875 0-.328125.0625-.515625.484375-.703125 1.578125-1.984375 2.984375-3.375 2.984375-.53125 0-.875-.328125-.875-1.234375 0-.25.09375-.765625.15625-1.03125z"/>
  </symbol>
  <symbol id="x" overflow="visible">
   <path d="m2.984375-3.4375c.25 1.625 1.078125 3.734375 3.21875 3.734375.796875 0 1.703125-.328125 2.609375-.90625.421875-.25 1.734375-1.171875 1.734375-1.46875 0-.15625-.171875-.484375-.40625-.484375-.125 0-.171875 0-.546875.375-1.078125.953125-2.234375 1.78125-3.359375 1.78125-1.71875 0-1.71875-2.9375-1.71875-3.40625 0-.328125 0-.375.046875-.859375.03125-.25.03125-.296875.328125-.578125 1.390625-1.296875 6.125-5.875 6.125-10.25 0-.375 0-2.171875-1.65625-2.171875-2.078125 0-3.765625 3.234375-4.15625 3.984375-1.109375 2.140625-1.6875 4.203125-1.96875 5.453125-.375 1.6875-.375 2.5625-.375 3.796875-.171875.171875-1.609375 1.453125-1.859375 1.65625-.390625.34375-.421875.375-.421875.515625 0 .1875.21875.453125.421875.453125.1875 0 .859375-.625 1.03125-.796875zm1.8125-2.859375c.453125-2.5625 2.4375-10.671875 4.546875-10.671875.578125 0 .875.390625.875 1.296875 0 .3125 0 2.546875-2.15625 5.625-1.28125 1.8125-2.65625 3.171875-3.265625 3.75z"/>
  </symbol>
  <symbol id="v" overflow="visible">
   <path d="m18.6875-5.671875c.390625 0 1 0 1-.609375 0-.625-.578125-.625-1-.625h-14.96875c-.40625 0-1 0-1 .609375 0 .625.578125.625 1 .625z"/>
  </symbol>
  <symbol id="u" overflow="visible">
   <path d="m8.40625-15.96875c0-.671875-.046875-.703125-.75-.703125-1.609375 1.578125-3.890625 1.609375-4.921875 1.609375v.90625c.609375 0 2.265625 0 3.640625-.703125v12.796875c0 .828125 0 1.15625-2.515625 1.15625h-.953125v.90625c.453125-.03125 3.546875-.09375 4.46875-.09375.78125 0 3.953125.0625 4.5.09375v-.90625h-.953125c-2.515625 0-2.515625-.328125-2.515625-1.15625z"/>
  </symbol>
 </defs>
 <g transform="translate(-7.6045927,62.333848)">
  <g transform="translate(-21.544643,-129.64583)">
   <g transform="matrix(.26458333 0 0 .26458333 36.339013 -18.235785)" data-name="&lt;Group&gt;">
    <rect x="7.2990932" y="366.24875" width="455.18121" height="495.16287" rx="10" ry="10" fill="#f0f0f5" stroke="#e9e9e9" stroke-width="1.3795276"/>
   </g>
   <path d="m100.51364 142.33213v-67.960126" fill="none" marker-end="url(#t)" stroke="#666" stroke-width=".36500001"/>
   <g transform="translate(0,-85.195818)">
    <path d="m68.376174 200.92195h27.743463" fill="none" marker-end="url(#k)" stroke="#666" stroke-width=".36500001"/>
   </g>
   <path d="m115.03117 139.1838a10.514765 10.424256 0 0 1 -2.32404 8.55399 10.514765 10.424256 0 0 1 -8.12249 3.69261" fill="none" marker-end="url(#o)" stroke="#666" stroke-width=".34100002"/>
   <path d="m102.21604 133.04044a7.3574786 7.3574786 0 0 1 7.27143 -2.1767 7.3574786 7.3574786 0 0 1 5.3258 5.4081" fill="none" stroke="#666" stroke-width=".34099999"/>
   <g transform="translate(1.1456222,-27.482594)">
    <rect x="92.668907" y="158.77411" width="13.398217" height="13.398178" ry="6.6990891" fill="#f0f0f5" stroke="#f0f0f5" stroke-width=".36500001"/>
    <rect x="93.018013" y="159.1232" width="12.7" height="12.7" ry="7.5999999" fill="#f8f8f9" stroke="#666" stroke-width=".36500001"/>
    <text x="95.628876" y="167.32529" fill="#666666" font-family="sans-serif" font-size="5.6444445px" letter-spacing="0px" stroke-width=".26458332px" word-spacing="0px" style="line-height:125%" xml:space="preserve"><tspan x="95.628876" y="167.32529" fill="#666666" font-family="'Open Sans'" font-size="4.938889px" stroke-width=".26458332px">cell</tspan></text>
   </g>
   <g transform="translate(6.1609597e-6,-34.395836)">
    <path d="m100.51714 210.59473v-30.3893" fill="none" marker-end="url(#m)" stroke="#666" stroke-width=".36500001"/>
   </g>
   <g transform="translate(0,-39.687521)">
    <path d="m68.376174 200.92195h27.743463" fill="none" marker-end="url(#n)" stroke="#666" stroke-width=".36500001"/>
   </g>
   <g transform="rotate(-90,79.185822,158.9685)">
    <path d="m100.1672 212.71136v-13.98512" fill="none" marker-end="url(#l)" stroke="#666" stroke-width=".36500001"/>
   </g>
   <g transform="translate(47.059756,-55.519511)">
    <g stroke-width=".35600001">
     <circle cx="53.453884" cy="180.76712" r="3.2" fill="#f0f0f5" stroke="#f0f0f5"/>
     <circle cx="53.453884" cy="180.76712" r="2.8220186" fill="#e0cef5" stroke="#666"/>
     <text x="52.1124" y="181.86954" fill="#666666" font-family="sans-serif" font-size="10.583333px" letter-spacing="0px" word-spacing="0px" style="line-height:125%" xml:space="preserve"><tspan x="52.1124" y="181.86954" fill="#666666" font-family="'Open Sans'" font-size="3.8805559px" stroke-width=".35600001">σ<tspan baseline-shift="sub" font-family="'Open Sans'" font-size="2.1166666px"/></tspan></text>
    </g>
   </g>
   <g transform="translate(47.059749,-14.63229)">
    <circle cx="53.453884" cy="165.95045" r="3.2" fill="#f0f0f5" stroke="#f0f0f5" stroke-width=".35600001"/>
    <circle cx="53.453884" cy="165.95045" r="2.8220186" fill="#e0cef5" stroke="#666" stroke-width=".35600001"/>
    <g transform="translate(5.7489606 .71433471)" fill="none" stroke="#666" stroke-width=".36500001">
     <path d="m46.633159 165.23612h2.143529"/>
     <path d="m47.704924 164.16436v2.14352"/>
    </g>
   </g>
   <g transform="translate(61.347251,-35.368175)">
    <circle cx="53.453884" cy="173.35878" r="3.2" fill="#f0f0f5" stroke="#f0f0f5" stroke-width=".35600001"/>
    <circle cx="53.453884" cy="173.35878" r="2.8220186" fill="#e0cef5" stroke="#666" stroke-width=".35600001"/>
    <circle cx="53.453884" cy="173.35878" r=".60000002" fill="#666"/>
   </g>
   <g transform="translate(25.791505,-19.536196)">
    <g>
     <circle cx="53.453884" cy="180.76712" r="3.2" fill="#f0f0f5" stroke="#f0f0f5" stroke-width=".35600001"/>
     <circle cx="53.453884" cy="180.76712" r="2.8220186" fill="#e0cef5" stroke="#666" stroke-width=".35600001"/>
     <g fill="#666" aria-label="σ">
      <path d="m54.234579 180.90698q0 .29748-.117478.52675-.115583.22738-.333485.35054-.216007.12316-.507807.12316-.445279 0-.695393-.27285t-.250114-.75413q0-1.08762 1.121724-1.08762h.945506v.26907h-.500228q.337275.31643.337275.84508zm-1.578371-.0265q0 .36759.161059.56655.161058.19706.466121.19706.301274 0 .462332-.18569.162953-.18759.162953-.53244 0-.5116-.329696-.86403h-.123162q-.420646 0-.610126.19706-.189481.19705-.189481.62149z" fill="#666" stroke-width=".35600001"/>
     </g>
    </g>
   </g>
   <g transform="translate(47.059756,-10.011176)">
    <g stroke-width=".35600001">
     <circle cx="53.453884" cy="180.76712" r="3.2" fill="#f0f0f5" stroke="#f0f0f5"/>
     <circle cx="53.453884" cy="180.76712" r="2.8220186" fill="#e0cef5" stroke="#666"/>
     <text x="52.1124" y="181.86954" fill="#666666" font-family="sans-serif" font-size="10.583333px" letter-spacing="0px" word-spacing="0px" style="line-height:125%" xml:space="preserve"><tspan x="52.1124" y="181.86954" fill="#666666" font-family="'Open Sans'" font-size="3.8805559px" stroke-width=".35600001">σ<tspan baseline-shift="sub" font-family="'Open Sans'" font-size="2.1166666px"/></tspan></text>
    </g>
   </g>
   <g transform="translate(47.059751,-12.127853)">
    <circle cx="53.453884" cy="173.35878" r="3.2" fill="#f0f0f5" stroke="#f0f0f5" stroke-width=".35600001"/>
    <circle cx="53.453884" cy="173.35878" r="2.8220186" fill="#e0cef5" stroke="#666" stroke-width=".35600001"/>
    <circle cx="53.453884" cy="173.35878" r=".60000002" fill="#666"/>
   </g>
   <g transform="translate(47.059751,-57.636153)">
    <circle cx="53.453884" cy="173.35878" r="3.2" fill="#f0f0f5" stroke="#f0f0f5" stroke-width=".35600001"/>
    <circle cx="53.453884" cy="173.35878" r="2.8220186" fill="#e0cef5" stroke="#666" stroke-width=".35600001"/>
    <circle cx="53.453884" cy="173.35878" r=".60000002" fill="#666"/>
   </g>
   <g transform="translate(25.791505,-65.044493)">
    <g>
     <circle cx="53.453884" cy="180.76712" r="3.2" fill="#f0f0f5" stroke="#f0f0f5" stroke-width=".35600001"/>
     <circle cx="53.453884" cy="180.76712" r="2.8220186" fill="#e0cef5" stroke="#666" stroke-width=".35600001"/>
     <g fill="#666" aria-label="σ">
      <path d="m54.234579 180.90698q0 .29748-.117478.52675-.115583.22738-.333485.35054-.216007.12316-.507807.12316-.445279 0-.695393-.27285t-.250114-.75413q0-1.08762 1.121724-1.08762h.945506v.26907h-.500228q.337275.31643.337275.84508zm-1.578371-.0265q0 .36759.161059.56655.161058.19706.466121.19706.301274 0 .462332-.18569.162953-.18759.162953-.53244 0-.5116-.329696-.86403h-.123162q-.420646 0-.610126.19706-.189481.19705-.189481.62149z" fill="#666" stroke-width=".35600001"/>
     </g>
    </g>
   </g>
   <g transform="translate(71.780508,-42.776519)">
    <g>
     <circle cx="53.453884" cy="180.76712" r="3.2" fill="#f0f0f5" stroke="#f0f0f5" stroke-width=".35600001"/>
     <circle cx="53.453884" cy="180.76712" r="2.8220186" fill="#e0cef5" stroke="#666" stroke-width=".35600001"/>
     <g fill="#666" aria-label="σ">
      <path d="m54.234579 180.90698q0 .29748-.117478.52675-.115583.22738-.333485.35054-.216007.12316-.507807.12316-.445279 0-.695393-.27285t-.250114-.75413q0-1.08762 1.121724-1.08762h.945506v.26907h-.500228q.337275.31643.337275.84508zm-1.578371-.0265q0 .36759.161059.56655.161058.19706.466121.19706.301274 0 .462332-.18569.162953-.18759.162953-.53244 0-.5116-.329696-.86403h-.123162q-.420646 0-.610126.19706-.189481.19705-.189481.62149z" fill="#666" stroke-width=".35600001"/>
     </g>
    </g>
   </g>
   <g transform="matrix(.26458333 0 0 .26458333 99.839013 -5.0066179)" opacity=".21700003" data-name="&lt;Group&gt;">
    <rect x="-119.08882" y="428.70053" width="243.27716" height="255.42931" rx="10" ry="10" fill="#d9d9e6" stroke="#aaa" stroke-width="1.3795276"/>
   </g>
   <g transform="matrix(.26289348 0 0 .26289348 9.1084518 46.19502)" fill="#666">
    <g transform="matrix(.35277778 0 0 .35277778 77.914236 118.63566)">
     <use x="-1.4084001" y="32.848202" width="100%" height="100%" fill="#666666" xlink:href="#i"/>
    </g>
    <g transform="matrix(.35277778 0 0 .35277778 77.914236 118.63566)">
     <use x="19.2556" y="17.5086" width="100%" height="100%" fill="#666666" xlink:href="#g"/>
    </g>
    <g transform="matrix(.35277778 0 0 .35277778 77.914236 118.63566)">
     <use x="30.0916" y="17.5086" width="100%" height="100%" fill="#666666" xlink:href="#d"/>
    </g>
    <g transform="matrix(.35277778 0 0 .35277778 77.914236 118.63566)">
     <use x="52.505199" y="17.5086" width="100%" height="100%" fill="#666666" xlink:href="#b"/>
    </g>
    <g transform="matrix(.35277778 0 0 .35277778 77.914236 118.63566)">
     <use x="19.2556" y="43.6698" width="100%" height="100%" fill="#666666" xlink:href="#f"/>
    </g>
   </g>
   <g transform="matrix(.28590926 0 0 .28590926 -2.6533715 50.42657)" fill="#666">
    <g transform="matrix(.35277778 0 0 .35277778 112.61875 124.85245)">
     <use x="-0.99519998" y="31.248199" width="100%" height="100%" fill="#666666" xlink:href="#j"/>
    </g>
    <g transform="matrix(.35277778 0 0 .35277778 112.61875 124.85245)">
     <use x="19.6724" y="16.441401" width="100%" height="100%" fill="#666666" xlink:href="#h"/>
    </g>
    <g transform="matrix(.35277778 0 0 .35277778 112.61875 124.85245)">
     <use x="19.6724" y="40.115002" width="100%" height="100%" fill="#666666" xlink:href="#e"/>
    </g>
    <g transform="matrix(.35277778 0 0 .35277778 112.61875 124.85245)">
     <use x="31.674801" y="40.115002" width="100%" height="100%" fill="#666666" xlink:href="#c"/>
    </g>
    <g transform="matrix(.35277778 0 0 .35277778 112.61875 124.85245)">
     <use x="54.091999" y="40.115002" width="100%" height="100%" fill="#666666" xlink:href="#a"/>
    </g>
   </g>
   <g transform="rotate(-90,92.150405,146.00392)" fill="none" stroke="#666" stroke-width=".36500001">
    <path d="m100.1672 212.71136v-10.93961" marker-end="url(#q)"/>
    <path d="m104.13244 216.39653-3.96875-3.68522-3.968745 3.68522"/>
   </g>
   <g transform="matrix(.26289348 0 0 .26289348 142.98762 100.21297)" fill="#666">
    <g transform="matrix(.35277778 0 0 .35277778 77.914236 118.63566)">
     <use x="-1.4084001" y="32.848202" width="100%" height="100%" fill="#666666" xlink:href="#i"/>
    </g>
    <g transform="matrix(.35277778 0 0 .35277778 77.914236 118.63566)">
     <use x="19.2556" y="17.5086" width="100%" height="100%" fill="#666666" xlink:href="#g"/>
    </g>
    <g transform="matrix(.35277778 0 0 .35277778 77.914236 118.63566)">
     <use x="30.0916" y="17.5086" width="100%" height="100%" fill="#666666" xlink:href="#d"/>
    </g>
    <g transform="matrix(.35277778 0 0 .35277778 77.914236 118.63566)">
     <use x="52.505199" y="17.5086" width="100%" height="100%" fill="#666666" xlink:href="#b"/>
    </g>
    <g transform="matrix(.35277778 0 0 .35277778 77.914236 118.63566)">
     <use x="19.2556" y="43.6698" width="100%" height="100%" fill="#666666" xlink:href="#f"/>
    </g>
   </g>
   <g transform="matrix(.28590926 0 0 .28590926 131.2258 104.44452)" fill="#666">
    <g transform="matrix(.35277778 0 0 .35277778 112.61875 124.85245)">
     <use x="-0.99519998" y="31.248199" width="100%" height="100%" fill="#666666" xlink:href="#j"/>
    </g>
    <g transform="matrix(.35277778 0 0 .35277778 112.61875 124.85245)">
     <use x="19.6724" y="16.441401" width="100%" height="100%" fill="#666666" xlink:href="#h"/>
    </g>
    <g transform="matrix(.35277778 0 0 .35277778 112.61875 124.85245)">
     <use x="19.6724" y="40.115002" width="100%" height="100%" fill="#666666" xlink:href="#e"/>
    </g>
    <g transform="matrix(.35277778 0 0 .35277778 112.61875 124.85245)">
     <use x="31.674801" y="40.115002" width="100%" height="100%" fill="#666666" xlink:href="#c"/>
    </g>
    <g transform="matrix(.35277778 0 0 .35277778 112.61875 124.85245)">
     <use x="54.091999" y="40.115002" width="100%" height="100%" fill="#666666" xlink:href="#a"/>
    </g>
   </g>
   <g fill="none" stroke="#666" stroke-width=".36500001">
    <path d="m144.00189 138.04194-5.55934-.0709-5.51392.0199 3.62404 3.96445c1.38801 0 2.61242 1.11742 2.61242 2.50542v20.30909"/>
    <path d="m62.78674 119.65602h1.931856l3.657581-3.9334-3.718482-3.78547h-1.367362c-1.388005 0-2.505425 1.11759-2.505425 2.50559v66.3105c0 1.38801 1.11742 2.50543 2.505425 2.50543 26.030666 0 52.061327-1e-5 78.091997-1e-5 1.38801 0 2.50543-1.11742 2.50543-2.50542v-42.54796"/>
    <path d="m100.51019 105.18233c0-1.38801 1.11742-2.50543 2.50542-2.50543h38.36672c1.38801 0 2.50543 1.11742 2.50543 2.50543v28.78962" marker-end="url(#p)"/>
   </g>
   <rect x="58.480186" y="118.91631" width="3.7325134" height="1.4646581" rx="0" ry="0" fill="#f0f0f5"/>
   <g transform="translate(6.1609597e-6 -.52916643)" fill="none" stroke="#666" stroke-width=".36500001">
    <path d="m100.51714 210.59473v-22.45179"/>
    <path d="m104.48238 214.27988-3.96875-3.68522-3.968742 3.68522"/>
   </g>
   <g transform="matrix(.26289348 0 0 .26289348 83.556052 182.47572)" fill="#666">
    <g transform="matrix(.35277778 0 0 .35277778 77.914236 118.63566)">
     <use x="-1.4084001" y="32.848202" width="100%" height="100%" fill="#666666" xlink:href="#i"/>
    </g>
    <g transform="matrix(.35277778 0 0 .35277778 77.914236 118.63566)">
     <use x="19.2556" y="17.5086" width="100%" height="100%" fill="#666666" xlink:href="#g"/>
    </g>
    <g transform="matrix(.35277778 0 0 .35277778 77.914236 118.63566)">
     <use x="30.0916" y="17.5086" width="100%" height="100%" fill="#666666" xlink:href="#d"/>
    </g>
    <g transform="matrix(.35277778 0 0 .35277778 77.914236 118.63566)">
     <use x="52.505199" y="17.5086" width="100%" height="100%" fill="#666666" xlink:href="#b"/>
    </g>
    <g transform="matrix(.35277778 0 0 .35277778 77.914236 118.63566)">
     <use x="19.2556" y="43.6698" width="100%" height="100%" fill="#666666" xlink:href="#f"/>
    </g>
   </g>
   <g transform="matrix(.28590926 0 0 .28590926 60.820062 177.96935)" fill="#666">
    <g transform="matrix(.35277778 0 0 .35277778 112.61875 124.85245)">
     <use x="-0.99519998" y="31.248199" width="100%" height="100%" fill="#666666" xlink:href="#j"/>
    </g>
    <g transform="matrix(.35277778 0 0 .35277778 112.61875 124.85245)">
     <use x="19.6724" y="16.441401" width="100%" height="100%" fill="#666666" xlink:href="#h"/>
    </g>
    <g transform="matrix(.35277778 0 0 .35277778 112.61875 124.85245)">
     <use x="19.6724" y="40.115002" width="100%" height="100%" fill="#666666" xlink:href="#e"/>
    </g>
    <g transform="matrix(.35277778 0 0 .35277778 112.61875 124.85245)">
     <use x="31.674801" y="40.115002" width="100%" height="100%" fill="#666666" xlink:href="#c"/>
    </g>
    <g transform="matrix(.35277778 0 0 .35277778 112.61875 124.85245)">
     <use x="54.091999" y="40.115002" width="100%" height="100%" fill="#666666" xlink:href="#a"/>
    </g>
   </g>
   <g transform="matrix(.28590926 0 0 .28590926 81.170104 32.240178)">
    <g transform="matrix(.35277778 0 0 .35277778 62.089341 125.79739)" fill="#666">
     <use x="-1.6388" y="31.248199" width="100%" height="100%" fill="#666666" xlink:href="#ae"/>
    </g>
    <g transform="matrix(.35277778 0 0 .35277778 62.089341 125.79739)" fill="#656565" fill-opacity=".99607843">
     <use x="19.0252" y="16.441401" width="100%" height="100%" fill="#656565" fill-opacity=".99607843" xlink:href="#ab"/>
    </g>
    <g transform="matrix(.35277778 0 0 .35277778 62.089341 125.79739)" fill="#666">
     <use x="19.0252" y="40.115002" width="100%" height="100%" fill="#666666" xlink:href="#y"/>
    </g>
   </g>
   <g transform="translate(99.826344,-42.776488)">
    <g>
     <circle cx="53.453884" cy="180.76712" r="3.2" fill="#f0f0f5" stroke="#f0f0f5" stroke-width=".35600001"/>
     <circle cx="53.453884" cy="180.76712" r="2.8220186" fill="#e0cef5" stroke="#666" stroke-width=".35600001"/>
     <g fill="#666" aria-label="σ">
      <path d="m54.234579 180.90698q0 .29748-.117478.52675-.115583.22738-.333485.35054-.216007.12316-.507807.12316-.445279 0-.695393-.27285t-.250114-.75413q0-1.08762 1.121724-1.08762h.945506v.26907h-.500228q.337275.31643.337275.84508zm-1.578371-.0265q0 .36759.161059.56655.161058.19706.466121.19706.301274 0 .462332-.18569.162953-.18759.162953-.53244 0-.5116-.329696-.86403h-.123162q-.420646 0-.610126.19706-.189481.19705-.189481.62149z" fill="#666" stroke-width=".35600001"/>
     </g>
    </g>
   </g>
   <g transform="translate(47.059756,22.79716)">
    <g stroke-width=".35600001">
     <circle cx="53.453884" cy="180.76712" r="3.2" fill="#f0f0f5" stroke="#f0f0f5"/>
     <circle cx="53.453884" cy="180.76712" r="2.8220186" fill="#e0cef5" stroke="#666"/>
     <text x="52.1124" y="181.86954" fill="#666666" font-family="sans-serif" font-size="10.583333px" letter-spacing="0px" word-spacing="0px" style="line-height:125%" xml:space="preserve"><tspan x="52.1124" y="181.86954" fill="#666666" font-family="'Open Sans'" font-size="3.8805559px" stroke-width=".35600001">σ<tspan baseline-shift="sub" font-family="'Open Sans'" font-size="2.1166666px"/></tspan></text>
    </g>
   </g>
   <g transform="matrix(.26289348 0 0 .26289348 9.1084514 156.79083)" fill="#666">
    <g transform="matrix(.35277778 0 0 .35277778 77.914236 118.63566)">
     <use x="-1.4084001" y="32.848202" width="100%" height="100%" fill="#666666" xlink:href="#i"/>
    </g>
    <g transform="matrix(.35277778 0 0 .35277778 77.914236 118.63566)">
     <use x="19.2556" y="17.5086" width="100%" height="100%" fill="#666666" xlink:href="#g"/>
    </g>
    <g transform="matrix(.35277778 0 0 .35277778 77.914236 118.63566)">
     <use x="30.0916" y="17.5086" width="100%" height="100%" fill="#666666" xlink:href="#d"/>
    </g>
    <g transform="matrix(.35277778 0 0 .35277778 77.914236 118.63566)">
     <use x="52.505199" y="17.5086" width="100%" height="100%" fill="#666666" xlink:href="#b"/>
    </g>
    <g transform="matrix(.35277778 0 0 .35277778 77.914236 118.63566)">
     <use x="19.2556" y="43.6698" width="100%" height="100%" fill="#666666" xlink:href="#f"/>
    </g>
   </g>
   <g transform="matrix(.28590926 0 0 .28590926 -2.6533723 161.02238)" fill="#666">
    <g transform="matrix(.35277778 0 0 .35277778 112.61875 124.85245)">
     <use x="-0.99519998" y="31.248199" width="100%" height="100%" fill="#666666" xlink:href="#j"/>
    </g>
    <g transform="matrix(.35277778 0 0 .35277778 112.61875 124.85245)">
     <use x="19.6724" y="16.441401" width="100%" height="100%" fill="#666666" xlink:href="#h"/>
    </g>
    <g transform="matrix(.35277778 0 0 .35277778 112.61875 124.85245)">
     <use x="19.6724" y="40.115002" width="100%" height="100%" fill="#666666" xlink:href="#e"/>
    </g>
    <g transform="matrix(.35277778 0 0 .35277778 112.61875 124.85245)">
     <use x="31.674801" y="40.115002" width="100%" height="100%" fill="#666666" xlink:href="#c"/>
    </g>
    <g transform="matrix(.35277778 0 0 .35277778 112.61875 124.85245)">
     <use x="54.091999" y="40.115002" width="100%" height="100%" fill="#666666" xlink:href="#a"/>
    </g>
   </g>
   <g transform="translate(-30.1625,-6.3500177)" fill="none" stroke="#666" stroke-width=".36500001">
    <path d="m68.376174 200.92195h57.905966" marker-end="url(#r)"/>
    <path d="m64.690957 204.88719 3.68522-3.96875-3.68522-3.96874"/>
   </g>
   <g transform="translate(-9.0319126,13.801307)">
    <g stroke-width=".35600001">
     <circle cx="53.453884" cy="180.76712" r="3.2" fill="#f0f0f5" stroke="#f0f0f5"/>
     <circle cx="53.453884" cy="180.76712" r="2.8220186" fill="#e0cef5" stroke="#666"/>
     <text x="52.1124" y="181.86954" fill="#666666" font-family="sans-serif" font-size="10.583333px" letter-spacing="0px" word-spacing="0px" style="line-height:125%" xml:space="preserve"><tspan x="52.1124" y="181.86954" fill="#666666" font-family="'Open Sans'" font-size="3.8805559px" stroke-width=".35600001">σ<tspan baseline-shift="sub" font-family="'Open Sans'" font-size="2.1166666px"/></tspan></text>
    </g>
   </g>
   <g transform="translate(47.059751,21.209648)">
    <circle cx="53.453884" cy="173.35878" r="3.2" fill="#f0f0f5" stroke="#f0f0f5" stroke-width=".35600001"/>
    <circle cx="53.453884" cy="173.35878" r="2.8220186" fill="#e0cef5" stroke="#666" stroke-width=".35600001"/>
    <circle cx="53.453884" cy="173.35878" r=".60000002" fill="#666"/>
   </g>
   <g transform="translate(0 -.52915901)">
    <g transform="translate(-30.162499,-116.41666)" fill="none" stroke="#666" stroke-width=".36500001">
     <path d="m68.376174 200.92195h57.376796" marker-end="url(#s)"/>
     <path d="m64.690957 204.88719 3.68522-3.96875-3.68522-3.96874"/>
    </g>
    <g transform="translate(-9.1334955,-96.265335)">
     <g>
      <circle cx="53.453884" cy="180.76712" r="3.2" fill="#f0f0f5" stroke="#f0f0f5" stroke-width=".35600001"/>
      <circle cx="53.453884" cy="180.76712" r="2.8220186" fill="#e0cef5" stroke="#666" stroke-width=".35600001"/>
      <g fill="#666" aria-label="σ">
       <path d="m54.234579 180.90698q0 .29748-.117478.52675-.115583.22738-.333485.35054-.216007.12316-.507807.12316-.445279 0-.695393-.27285t-.250114-.75413q0-1.08762 1.121724-1.08762h.945506v.26907h-.500228q.337275.31643.337275.84508zm-1.578371-.0265q0 .36759.161059.56655.161058.19706.466121.19706.301274 0 .462332-.18569.162953-.18759.162953-.53244 0-.5116-.329696-.86403h-.123162q-.420646 0-.610126.19706-.189481.19705-.189481.62149z" fill="#666" stroke-width=".35600001"/>
      </g>
     </g>
    </g>
   </g>
   <g transform="translate(47.059751,-89.386154)">
    <circle cx="53.453884" cy="173.35878" r="3.2" fill="#f0f0f5" stroke="#f0f0f5" stroke-width=".35600001"/>
    <circle cx="53.453884" cy="173.35878" r="2.8220186" fill="#e0cef5" stroke="#666" stroke-width=".35600001"/>
    <circle cx="53.453884" cy="173.35878" r=".60000002" fill="#666"/>
   </g>
   <g transform="translate(47.059756,-88.327846)">
    <g stroke-width=".35600001">
     <circle cx="53.453884" cy="180.76712" r="3.2" fill="#f0f0f5" stroke="#f0f0f5"/>
     <circle cx="53.453884" cy="180.76712" r="2.8220186" fill="#e0cef5" stroke="#666"/>
     <text x="52.1124" y="181.86954" fill="#666666" font-family="sans-serif" font-size="10.583333px" letter-spacing="0px" word-spacing="0px" style="line-height:125%" xml:space="preserve"><tspan x="52.1124" y="181.86954" fill="#666666" font-family="'Open Sans'" font-size="3.8805559px" stroke-width=".35600001">σ<tspan baseline-shift="sub" font-family="'Open Sans'" font-size="2.1166666px"/></tspan></text>
    </g>
   </g>
   <g transform="translate(90.451421,-35.368148)">
    <circle cx="53.453884" cy="173.35878" r="3.2" fill="#f0f0f5" stroke="#f0f0f5" stroke-width=".35600001"/>
    <circle cx="53.453884" cy="173.35878" r="2.8220186" fill="#e0cef5" stroke="#666" stroke-width=".35600001"/>
    <circle cx="53.453884" cy="173.35878" r=".60000002" fill="#666"/>
   </g>
   <path d="m63.296037 165.01197h1.395937l3.684202-3.78107-3.64558-3.93642h-1.440263c-1.387966.0104-2.505425 1.1282-2.505425 2.5162" fill="none" stroke="#666" stroke-width=".36500001"/>
   <path d="m106.94657 183.25866c-1.388 0-2.53753-1.11779-2.50533-2.50542v-.88427l-3.92762-3.67015-4.010116 3.67015v1.30431" fill="none" stroke="#666" stroke-width=".36500001"/>
   <rect transform="rotate(-90)" x="-184.81653" y="138.41267" width="3.7325134" height="1.4646581" rx="0" ry="0" fill="#f0f0f5"/>
   <path d="m139.16509 164.76993v20.30909c0 1.38801-1.11742 2.50543-2.50543 2.50543h-77.551433v.00029c-1.388006 0-2.505416-1.11742-2.505425-2.50543l-.000387-62.92967c-8e-6-1.388 1.117419-2.49362 2.505425-2.49362h3.6789" fill="none" stroke="#666" stroke-width=".36500001"/>
   <rect x="59.009235" y="164.2243" width="3.7325134" height="1.4646581" rx="0" ry="0" fill="#f0f0f5"/>
   <path d="m56.602802 167.51772c0-1.388 1.117616-2.52911 2.505425-2.50575h4.18781" fill="none" stroke="#666" stroke-width=".36500001"/>
   <rect transform="rotate(-90)" x="-185.34569" y="95.750237" width="3.7325134" height="1.4646581" rx="0" ry="0" fill="#f0f0f5"/>
   <path d="m96.503504 181.17328v3.91291c0 1.38801 1.117419 2.50543 2.505424 2.50543" fill="none" stroke="#666" stroke-width=".36500001"/>
   <g transform="translate(3.1749999 .52916667)">
    <use transform="matrix(.10086243 0 0 .10086243 93.816341 96.619041)" x="-1.0648" y="31.248199" width="100%" height="100%" fill="#666666" xlink:href="#ac"/>
    <use transform="matrix(.10086243 0 0 .10086243 93.816341 96.619041)" x="14.4548" y="16.441401" width="100%" height="100%" fill="#666666" xlink:href="#z"/>
    <g transform="matrix(.10086243 0 0 .10086243 93.816341 96.619041)" fill="#666">
     <use x="14.4548" y="40.115002" width="100%" height="100%" fill="#666666" xlink:href="#w"/>
    </g>
   </g>
   <g transform="translate(-2.1166667,5.2916663)" fill="#666666">
    <use transform="matrix(.09274298 0 0 .09274298 122.32749 92.78868)" x="-1.438" y="32.848202" width="100%" height="100%" xlink:href="#ad"/>
    <use transform="matrix(.09274298 0 0 .09274298 122.32749 92.78868)" x="14.0852" y="17.5086" width="100%" height="100%" xlink:href="#aa"/>
    <use transform="matrix(.09274298 0 0 .09274298 122.32749 92.78868)" x="24.917601" y="17.5086" width="100%" height="100%" xlink:href="#v"/>
    <use transform="matrix(.09274298 0 0 .09274298 122.32749 92.78868)" x="47.334801" y="17.5086" width="100%" height="100%" xlink:href="#u"/>
    <use transform="matrix(.09274298 0 0 .09274298 122.32749 92.78868)" x="14.0852" y="43.6698" width="100%" height="100%" xlink:href="#x"/>
   </g>
  </g>
 </g>
</svg>
