<?xml version="1.0" encoding="UTF-8"?>
<svg width="141.57mm" height="61.959mm" version="1.1" viewBox="0 0 141.57474 61.958981" xmlns="http://www.w3.org/2000/svg" xmlns:xlink="http://www.w3.org/1999/xlink">
 <defs>
  <marker id="i" overflow="visible" orient="auto">
   <path transform="scale(-.6)" d="m8.7186 4.0337-10.926-4.0177 10.926-4.0177c-1.7455 2.3721-1.7354 5.6175-6e-7 8.0354z" fill="#666" fill-rule="evenodd" stroke="#666" stroke-linejoin="round" stroke-width=".625"/>
  </marker>
  <marker id="d" overflow="visible" orient="auto">
   <path transform="scale(-.6)" d="m8.7186 4.0337-10.926-4.0177 10.926-4.0177c-1.7455 2.3721-1.7354 5.6175-6e-7 8.0354z" fill="#666" fill-rule="evenodd" stroke="#666" stroke-linejoin="round" stroke-width=".625"/>
  </marker>
  <marker id="e" overflow="visible" orient="auto">
   <path transform="scale(-.6)" d="m8.7186 4.0337-10.926-4.0177 10.926-4.0177c-1.7455 2.3721-1.7354 5.6175-6e-7 8.0354z" fill="#666" fill-rule="evenodd" stroke="#666" stroke-linejoin="round" stroke-width=".625"/>
  </marker>
  <marker id="f" overflow="visible" orient="auto">
   <path transform="scale(-.6)" d="m8.7186 4.0337-10.926-4.0177 10.926-4.0177c-1.7455 2.3721-1.7354 5.6175-6e-7 8.0354z" fill="#666" fill-rule="evenodd" stroke="#666" stroke-linejoin="round" stroke-width=".625"/>
  </marker>
  <marker id="g" overflow="visible" orient="auto">
   <path transform="scale(-.6)" d="m8.7186 4.0337-10.926-4.0177 10.926-4.0177c-1.7455 2.3721-1.7354 5.6175-6e-7 8.0354z" fill="#666" fill-rule="evenodd" stroke="#666" stroke-linejoin="round" stroke-width=".625"/>
  </marker>
  <marker id="h" overflow="visible" orient="auto">
   <path transform="scale(-.6)" d="m8.7186 4.0337-10.926-4.0177 10.926-4.0177c-1.7455 2.3721-1.7354 5.6175-6e-7 8.0354z" fill="#666" fill-rule="evenodd" stroke="#666" stroke-linejoin="round" stroke-width=".625"/>
  </marker>
  <marker id="Arrow2Mstart" overflow="visible" orient="auto">
   <path transform="scale(.6)" d="m8.7186 4.0337-10.926-4.0177 10.926-4.0177c-1.7455 2.3721-1.7354 5.6175-6e-7 8.0354z" fill="#666" fill-rule="evenodd" stroke="#666" stroke-linejoin="round" stroke-width=".625"/>
  </marker>
  <marker id="j" overflow="visible" orient="auto">
   <path transform="scale(-.6)" d="m8.7186 4.0337-10.926-4.0177 10.926-4.0177c-1.7455 2.3721-1.7354 5.6175-6e-7 8.0354z" fill="#666" fill-rule="evenodd" stroke="#666" stroke-linejoin="round" stroke-width=".625"/>
  </marker>
  <marker id="k" overflow="visible" orient="auto">
   <path transform="scale(-.6)" d="m8.7186 4.0337-10.926-4.0177 10.926-4.0177c-1.7455 2.3721-1.7354 5.6175-6e-7 8.0354z" fill="#666" fill-rule="evenodd" stroke="#666" stroke-linejoin="round" stroke-width=".625"/>
  </marker>
  <symbol id="c" overflow="visible">
   <path d="m10.297-24.484c0-.04687 0-.40625-.46875-.40625-.82812 0-3.4375.29688-4.375.35938-.29688.04687-.6875.07813-.6875.71875 0 .4375.32812.4375.85938.4375 1.7188 0 1.7969.25 1.7969.60938l-.10938.71875-5.2031 20.641c-.14062.51562-.14062.57812-.14062.79688 0 .82812.71875 1 1.0469 1 .5625 0 1.1406-.42188 1.3281-.92188l.67188-2.7344.79688-3.2188c.21875-.79688.42188-1.5781.60938-2.4062.0625-.21875.35938-1.4062.39062-1.6094.10938-.32812 1.2188-2.3438 2.4375-3.3125.79688-.5625 1.9062-1.25 3.4375-1.25 1.5469 0 1.9375 1.2188 1.9375 2.5156 0 1.9375-1.3594 5.8438-2.2188 8.0312-.28125.82812-.46875 1.25-.46875 1.9688 0 1.6875 1.2656 2.9375 2.9375 2.9375 3.375 0 4.7031-5.2344 4.7031-5.5156 0-.35938-.32812-.35938-.42188-.35938-.35938 0-.35938.10938-.54688.64062-.53125 1.9062-1.6875 4.4531-3.6562 4.4531-.60938 0-.85938-.35938-.85938-1.1875 0-.89062.32812-1.75.64062-2.5469.57812-1.5469 2.1875-5.8125 2.1875-7.8906 0-2.3281-1.4375-3.8281-4.125-3.8281-2.25 0-3.9688 1.1094-5.2969 2.75z"/>
  </symbol>
  <symbol id="b" overflow="visible">
   <path d="m6.1719-9.9219h2.5625c.48438 0 .8125 0 .8125-.54688 0-.35938-.32812-.35938-.76562-.35938h-2.375l.92188-3.7031c.03125-.125.078125-.26562.078125-.35938 0-.45312-.34375-.79688-.85938-.79688-.625 0-1 .42188-1.1719 1.0781-.17188.625.15625-.57812-.95312 3.7812h-2.5625c-.48438 0-.8125 0-.8125.5625 0 .34375.3125.34375.76562.34375h2.375l-1.4688 5.9219c-.15625.64062-.39062 1.5469-.39062 1.8594 0 1.4844 1.2656 2.3906 2.6875 2.3906 2.7969 0 4.375-3.5156 4.375-3.8438s-.32812-.32812-.40625-.32812c-.29688 0-.32812.0625-.51562.48438-.70312 1.5781-1.9844 2.9844-3.375 2.9844-.53125 0-.875-.32812-.875-1.2344 0-.25.09375-.76562.15625-1.0312z"/>
  </symbol>
  <symbol id="a" overflow="visible">
   <path d="m2.9844-3.4375c.25 1.625 1.0781 3.7344 3.2188 3.7344.79688 0 1.7031-.32812 2.6094-.90625.42188-.25 1.7344-1.1719 1.7344-1.4688 0-.15625-.17188-.48438-.40625-.48438-.125 0-.17188 0-.54688.375-1.0781.95312-2.2344 1.7812-3.3594 1.7812-1.7188 0-1.7188-2.9375-1.7188-3.4062 0-.32812 0-.375.046875-.85938.03125-.25.03125-.29688.32812-.57812 1.3906-1.2969 6.125-5.875 6.125-10.25 0-.375 0-2.1719-1.6562-2.1719-2.0781 0-3.7656 3.2344-4.1562 3.9844-1.1094 2.1406-1.6875 4.2031-1.9688 5.4531-.375 1.6875-.375 2.5625-.375 3.7969-.17188.17188-1.6094 1.4531-1.8594 1.6562-.39062.34375-.42188.375-.42188.51562 0 .1875.21875.45312.42188.45312.1875 0 .85938-.625 1.0312-.79688zm1.8125-2.8594c.45312-2.5625 2.4375-10.672 4.5469-10.672.57812 0 .875.39062.875 1.2969 0 .3125 0 2.5469-2.1562 5.625-1.2812 1.8125-2.6562 3.1719-3.2656 3.75z"/>
  </symbol>
  <symbol id="t" overflow="visible">
   <path d="m10.297-24.484c0-.04687 0-.40625-.46875-.40625-.82812 0-3.4375.29688-4.375.35938-.29688.04687-.6875.07813-.6875.71875 0 .4375.32812.4375.85938.4375 1.7188 0 1.7969.25 1.7969.60938l-.10938.71875-5.2031 20.641c-.14062.51562-.14062.57812-.14062.79688 0 .82812.71875 1 1.0469 1 .5625 0 1.1406-.42188 1.3281-.92188l.67188-2.7344.79688-3.2188c.21875-.79688.42188-1.5781.60938-2.4062.0625-.21875.35938-1.4062.39062-1.6094.10938-.32812 1.2188-2.3438 2.4375-3.3125.79688-.5625 1.9062-1.25 3.4375-1.25 1.5469 0 1.9375 1.2188 1.9375 2.5156 0 1.9375-1.3594 5.8438-2.2188 8.0312-.28125.82812-.46875 1.25-.46875 1.9688 0 1.6875 1.2656 2.9375 2.9375 2.9375 3.375 0 4.7031-5.2344 4.7031-5.5156 0-.35938-.32812-.35938-.42188-.35938-.35938 0-.35938.10938-.54688.64062-.53125 1.9062-1.6875 4.4531-3.6562 4.4531-.60938 0-.85938-.35938-.85938-1.1875 0-.89062.32812-1.75.64062-2.5469.57812-1.5469 2.1875-5.8125 2.1875-7.8906 0-2.3281-1.4375-3.8281-4.125-3.8281-2.25 0-3.9688 1.1094-5.2969 2.75z"/>
  </symbol>
  <symbol id="r" overflow="visible">
   <path d="m6.1719-9.9219h2.5625c.48438 0 .8125 0 .8125-.54688 0-.35938-.32812-.35938-.76562-.35938h-2.375l.92188-3.7031c.03125-.125.078125-.26562.078125-.35938 0-.45312-.34375-.79688-.85938-.79688-.625 0-1 .42188-1.1719 1.0781-.17188.625.15625-.57812-.95312 3.7812h-2.5625c-.48438 0-.8125 0-.8125.5625 0 .34375.3125.34375.76562.34375h2.375l-1.4688 5.9219c-.15625.64062-.39062 1.5469-.39062 1.8594 0 1.4844 1.2656 2.3906 2.6875 2.3906 2.7969 0 4.375-3.5156 4.375-3.8438s-.32812-.32812-.40625-.32812c-.29688 0-.32812.0625-.51562.48438-.70312 1.5781-1.9844 2.9844-3.375 2.9844-.53125 0-.875-.32812-.875-1.2344 0-.25.09375-.76562.15625-1.0312z"/>
  </symbol>
  <symbol id="q" overflow="visible">
   <path d="m2.9844-3.4375c.25 1.625 1.0781 3.7344 3.2188 3.7344.79688 0 1.7031-.32812 2.6094-.90625.42188-.25 1.7344-1.1719 1.7344-1.4688 0-.15625-.17188-.48438-.40625-.48438-.125 0-.17188 0-.54688.375-1.0781.95312-2.2344 1.7812-3.3594 1.7812-1.7188 0-1.7188-2.9375-1.7188-3.4062 0-.32812 0-.375.046875-.85938.03125-.25.03125-.29688.32812-.57812 1.3906-1.2969 6.125-5.875 6.125-10.25 0-.375 0-2.1719-1.6562-2.1719-2.0781 0-3.7656 3.2344-4.1562 3.9844-1.1094 2.1406-1.6875 4.2031-1.9688 5.4531-.375 1.6875-.375 2.5625-.375 3.7969-.17188.17188-1.6094 1.4531-1.8594 1.6562-.39062.34375-.42188.375-.42188.51562 0 .1875.21875.45312.42188.45312.1875 0 .85938-.625 1.0312-.79688zm1.8125-2.8594c.45312-2.5625 2.4375-10.672 4.5469-10.672.57812 0 .875.39062.875 1.2969 0 .3125 0 2.5469-2.1562 5.625-1.2812 1.8125-2.6562 3.1719-3.2656 3.75z"/>
  </symbol>
  <symbol id="o" overflow="visible">
   <path d="m18.688-5.6719c.39062 0 1 0 1-.60938 0-.625-.57812-.625-1-.625h-14.969c-.40625 0-1 0-1 .60938 0 .625.57812.625 1 .625z"/>
  </symbol>
  <symbol id="m" overflow="visible">
   <path d="m8.4062-15.969c0-.67188-.046875-.70312-.75-.70312-1.6094 1.5781-3.8906 1.6094-4.9219 1.6094v.90625c.60938 0 2.2656 0 3.6406-.70312v12.797c0 .82812 0 1.1562-2.5156 1.1562h-.95312v.90625c.45312-.03125 3.5469-.09375 4.4688-.09375.78125 0 3.9531.0625 4.5.09375v-.90625h-.95312c-2.5156 0-2.5156-.32812-2.5156-1.1562z"/>
  </symbol>
  <symbol id="u" overflow="visible">
   <path d="m10.297-24.484c0-.04687 0-.40625-.46875-.40625-.82812 0-3.4375.29688-4.375.35938-.29688.04687-.6875.07813-.6875.71875 0 .4375.32812.4375.85938.4375 1.7188 0 1.7969.25 1.7969.60938l-.10938.71875-5.2031 20.641c-.14062.51562-.14062.57812-.14062.79688 0 .82812.71875 1 1.0469 1 .5625 0 1.1406-.42188 1.3281-.92188l.67188-2.7344.79688-3.2188c.21875-.79688.42188-1.5781.60938-2.4062.0625-.21875.35938-1.4062.39062-1.6094.10938-.32812 1.2188-2.3438 2.4375-3.3125.79688-.5625 1.9062-1.25 3.4375-1.25 1.5469 0 1.9375 1.2188 1.9375 2.5156 0 1.9375-1.3594 5.8438-2.2188 8.0312-.28125.82812-.46875 1.25-.46875 1.9688 0 1.6875 1.2656 2.9375 2.9375 2.9375 3.375 0 4.7031-5.2344 4.7031-5.5156 0-.35938-.32812-.35938-.42188-.35938-.35938 0-.35938.10938-.54688.64062-.53125 1.9062-1.6875 4.4531-3.6562 4.4531-.60938 0-.85938-.35938-.85938-1.1875 0-.89062.32812-1.75.64062-2.5469.57812-1.5469 2.1875-5.8125 2.1875-7.8906 0-2.3281-1.4375-3.8281-4.125-3.8281-2.25 0-3.9688 1.1094-5.2969 2.75z"/>
  </symbol>
  <symbol id="s" overflow="visible">
   <path d="m6.1719-9.9219h2.5625c.48438 0 .8125 0 .8125-.54688 0-.35938-.32812-.35938-.76562-.35938h-2.375l.92188-3.7031c.03125-.125.078125-.26562.078125-.35938 0-.45312-.34375-.79688-.85938-.79688-.625 0-1 .42188-1.1719 1.0781-.17188.625.15625-.57812-.95312 3.7812h-2.5625c-.48438 0-.8125 0-.8125.5625 0 .34375.3125.34375.76562.34375h2.375l-1.4688 5.9219c-.15625.64062-.39062 1.5469-.39062 1.8594 0 1.4844 1.2656 2.3906 2.6875 2.3906 2.7969 0 4.375-3.5156 4.375-3.8438s-.32812-.32812-.40625-.32812c-.29688 0-.32812.0625-.51562.48438-.70312 1.5781-1.9844 2.9844-3.375 2.9844-.53125 0-.875-.32812-.875-1.2344 0-.25.09375-.76562.15625-1.0312z"/>
  </symbol>
  <symbol id="p" overflow="visible">
   <path d="m2.9844-3.4375c.25 1.625 1.0781 3.7344 3.2188 3.7344.79688 0 1.7031-.32812 2.6094-.90625.42188-.25 1.7344-1.1719 1.7344-1.4688 0-.15625-.17188-.48438-.40625-.48438-.125 0-.17188 0-.54688.375-1.0781.95312-2.2344 1.7812-3.3594 1.7812-1.7188 0-1.7188-2.9375-1.7188-3.4062 0-.32812 0-.375.046875-.85938.03125-.25.03125-.29688.32812-.57812 1.3906-1.2969 6.125-5.875 6.125-10.25 0-.375 0-2.1719-1.6562-2.1719-2.0781 0-3.7656 3.2344-4.1562 3.9844-1.1094 2.1406-1.6875 4.2031-1.9688 5.4531-.375 1.6875-.375 2.5625-.375 3.7969-.17188.17188-1.6094 1.4531-1.8594 1.6562-.39062.34375-.42188.375-.42188.51562 0 .1875.21875.45312.42188.45312.1875 0 .85938-.625 1.0312-.79688zm1.8125-2.8594c.45312-2.5625 2.4375-10.672 4.5469-10.672.57812 0 .875.39062.875 1.2969 0 .3125 0 2.5469-2.1562 5.625-1.2812 1.8125-2.6562 3.1719-3.2656 3.75z"/>
  </symbol>
  <symbol id="n" overflow="visible">
   <path d="m18.688-5.6719c.39062 0 1 0 1-.60938 0-.625-.57812-.625-1-.625h-14.969c-.40625 0-1 0-1 .60938 0 .625.57812.625 1 .625z"/>
  </symbol>
  <symbol id="l" overflow="visible">
   <path d="m8.4062-15.969c0-.67188-.046875-.70312-.75-.70312-1.6094 1.5781-3.8906 1.6094-4.9219 1.6094v.90625c.60938 0 2.2656 0 3.6406-.70312v12.797c0 .82812 0 1.1562-2.5156 1.1562h-.95312v.90625c.45312-.03125 3.5469-.09375 4.4688-.09375.78125 0 3.9531.0625 4.5.09375v-.90625h-.95312c-2.5156 0-2.5156-.32812-2.5156-1.1562z"/>
  </symbol>
 </defs>
 <g transform="translate(-7.6046 -26.666)">
  <g transform="matrix(.26458 0 0 .26458 34.903 -82.557)" data-name="&lt;Group&gt;">
   <rect x="42.34" y="449.41" width="241.85" height="164.72" rx="10.001" ry="10" fill="#f0f0f5" stroke="#e9e9e9" stroke-width="1.3795"/>
  </g>
  <g fill="none">
   <path d="m66.927 54.241v8.1164" opacity=".974" stroke="#666" stroke-width=".365"/>
   <g transform="matrix(.26458 0 0 .26458 29.717 -14.705)" stroke="#e9e9e9" data-name="&lt;Group&gt;">
    <path d="m256.12 292.96v-64.62" fill="none" stroke="#666" stroke-width="1.3795"/>
   </g>
   <path d="m98.48 47.333h6.7088" stroke="#666" stroke-width=".365"/>
   <path d="m65.105 62.147-22.792-.26411-.00022-3.0271" stroke="#666" stroke-dasharray="0.365, 0.73" stroke-width=".365"/>
   <g transform="matrix(.26458 0 0 -.26458 29.717 131.79)" stroke="#e9e9e9" data-name="&lt;Group&gt;">
    <path d="m83.352 372.67v-15.742c0-5.54 4.46-10.069 10-10.069 60.595 0 121.19-.002 181.79-.004 5.54-.00014 10-4.4581 10-9.9981-.00089-40.041-.00051-80.081-.00051-120.12 0-5.54 4.4606-10 10.001-10h24.201" fill="none" marker-end="url(#k)" marker-start="url(#Arrow2Mstart)" stroke="#666" stroke-width="1.3795"/>
   </g>
   <g transform="matrix(.26458 0 0 .26458 74.133 -48.161)" stroke="#e9e9e9" stroke-width="1.0016" data-name="&lt;Group&gt;"></g>
   <path d="m42.03 77.096 7.0376-.00053c1.4658-.00011 2.6455-1.1795 2.6455-2.6453.01922-9.4804 8.3e-5-16.375 8.3e-5-24.471 0-1.4658 1.9089-2.646 3.3747-2.646h23.142" marker-end="url(#f)" stroke="#666" stroke-width=".365"/>
  </g>
  <g transform="matrix(.28591 0 0 .28591 98.198 38.812)">
   <g transform="matrix(.35278 0 0 .35278 62.089 125.8)" fill="#666">
    <use x="-1.6388" y="31.248199" width="100%" height="100%" fill="#666666" xlink:href="#c"/>
   </g>
   <g transform="matrix(.35278 0 0 .35278 62.089 125.8)" fill="#656565" fill-opacity=".99608">
    <use x="19.0252" y="16.441401" width="100%" height="100%" fill="#656565" fill-opacity=".99608" xlink:href="#b"/>
   </g>
   <g transform="matrix(.35278 0 0 .35278 62.089 125.8)" fill="#666">
    <use x="19.0252" y="40.115002" width="100%" height="100%" fill="#666666" xlink:href="#a"/>
   </g>
  </g>
  <g transform="matrix(.26289 0 0 .26289 14.897 43.618)" fill="#666">
   <g transform="matrix(.35278 0 0 .35278 77.914 118.64)">
    <use x="-1.4084001" y="32.848202" width="100%" height="100%" fill="#666666" xlink:href="#t"/>
   </g>
   <g transform="matrix(.35278 0 0 .35278 77.914 118.64)">
    <use x="19.2556" y="17.5086" width="100%" height="100%" fill="#666666" xlink:href="#r"/>
   </g>
   <g transform="matrix(.35278 0 0 .35278 77.914 118.64)">
    <use x="30.0916" y="17.5086" width="100%" height="100%" fill="#666666" xlink:href="#o"/>
   </g>
   <g transform="matrix(.35278 0 0 .35278 77.914 118.64)">
    <use x="52.505199" y="17.5086" width="100%" height="100%" fill="#666666" xlink:href="#m"/>
   </g>
   <g transform="matrix(.35278 0 0 .35278 77.914 118.64)">
    <use x="19.2556" y="43.6698" width="100%" height="100%" fill="#666666" xlink:href="#q"/>
   </g>
  </g>
  <g transform="matrix(.28591 0 0 .28591 17.695 48.689)" fill="#666">
   <g transform="matrix(.35278 0 0 .35278 112.62 124.85)">
    <use x="-0.99519998" y="31.248199" width="100%" height="100%" fill="#666666" xlink:href="#u"/>
   </g>
   <g transform="matrix(.35278 0 0 .35278 112.62 124.85)">
    <use x="19.6724" y="16.441401" width="100%" height="100%" fill="#666666" xlink:href="#s"/>
   </g>
   <g transform="matrix(.35278 0 0 .35278 112.62 124.85)">
    <use x="19.6724" y="40.115002" width="100%" height="100%" fill="#666666" xlink:href="#p"/>
   </g>
   <g transform="matrix(.35278 0 0 .35278 112.62 124.85)">
    <use x="31.674801" y="40.115002" width="100%" height="100%" fill="#666666" xlink:href="#n"/>
   </g>
   <g transform="matrix(.35278 0 0 .35278 112.62 124.85)">
    <use x="54.091999" y="40.115002" width="100%" height="100%" fill="#666666" xlink:href="#l"/>
   </g>
  </g>
  <g>
   <g transform="matrix(.26458 0 0 .26458 -147.33 -114.94)" fill="#666" stroke-width="1px" aria-label="Reset Gate: controls how much of the old output is part of the new input.">
    <path d="m597.57 611.53h.52083q.76563 0 1.1302-.25521t.36458-.80208q0-.54167-.375-.77083-.36979-.22917-1.151-.22917h-.48958zm0 1.3125v2.9219h-1.6146v-7.6146h2.2188q1.5521 0 2.2969.56771.74479.5625.74479 1.7135 0 .67188-.36979 1.1979-.36979.52083-1.0469.81771 1.7188 2.5677 2.2396 3.3177h-1.7917l-1.8177-2.9219z"/>
    <path d="m605.29 610.96q-.50521 0-.79167.32292-.28646.31771-.32812.90625h2.2292q-.0104-.58854-.30729-.90625-.29687-.32292-.80208-.32292zm.22396 4.9062q-1.4062 0-2.1979-.77604t-.79167-2.1979q0-1.4635.72917-2.2604.73438-.80209 2.026-.80209 1.2344 0 1.9219.70313.6875.70312.6875 1.9427v.77083h-3.7552q.026.67708.40104 1.0573.375.38021 1.0521.38021.52605 0 .9948-.10937.46875-.10938.97916-.34896v1.2292q-.41666.20834-.89062.3073-.47396.10416-1.1562.10416z"/>
    <path d="m613.25 614.03q0 .89583-.625 1.3646-.61979.46875-1.8594.46875-.63542 0-1.0833-.0885-.44791-.0833-.83854-.25v-1.3125q.44271.20833.99479.34896.55729.14062.97917.14062.86458 0 .86458-.5 0-.1875-.11458-.30208-.11458-.11979-.39583-.26562-.28125-.15105-.75-.34896-.67188-.28125-.98959-.52084-.3125-.23958-.45833-.54687-.14063-.3125-.14063-.76563 0-.77604.59896-1.1979.60417-.42709 1.7083-.42709 1.0521 0 2.0469.45834l-.47917 1.1458q-.4375-.1875-.8177-.30729-.38021-.11979-.77605-.11979-.70312 0-.70312.38021 0 .21354.22396.36979.22916.15625.99479.46354.68229.27604 1 .51562.31771.23959.46875.55209t.15104.74479z"/>
    <path d="m616.91 610.96q-.50521 0-.79167.32292-.28646.31771-.32812.90625h2.2292q-.0104-.58854-.30729-.90625-.29687-.32292-.80208-.32292zm.22396 4.9062q-1.4062 0-2.1979-.77604t-.79167-2.1979q0-1.4635.72917-2.2604.73438-.80209 2.026-.80209 1.2344 0 1.9219.70313.6875.70312.6875 1.9427v.77083h-3.7552q.026.67708.40104 1.0573.375.38021 1.0521.38021.52605 0 .9948-.10937.46875-.10938.97916-.34896v1.2292q-.41666.20834-.89062.3073-.47396.10416-1.1562.10416z"/>
    <path d="m623.27 614.6q.41666 0 1-.18229v1.1823q-.59375.26562-1.4583.26562-.95312 0-1.3906-.47916-.43229-.48438-.43229-1.4479v-2.8073h-.76042v-.67188l.875-.53125.45833-1.2292h1.0156v1.2396h1.6302v1.1927h-1.6302v2.8073q0 .33854.1875.5.19271.16146.50521.16146z"/>
    <path d="m631.22 611.49h3.0208v3.9479q-.73437.23958-1.3854.33333-.64584.099-1.3229.099-1.724 0-2.6354-1.0104-.90625-1.0156-.90625-2.9115 0-1.8438 1.0521-2.875 1.0573-1.0312 2.9271-1.0312 1.1719 0 2.2604.46875l-.53646 1.2917q-.83334-.41666-1.7344-.41666-1.0469 0-1.6771.70312-.63021.70313-.63021 1.8906 0 1.2396.50521 1.8958.51042.65104 1.4792.65104.5052 0 1.026-.10416v-1.5886h-1.4427z"/>
    <path d="m639.64 615.76-.30729-.79167h-.0417q-.40104.50521-.82813.70312-.42187.19271-1.1042.19271-.83854 0-1.3229-.47916-.47917-.47917-.47917-1.3646 0-.92708.64584-1.3646.65104-.44271 1.9583-.48958l1.0104-.0312v-.25526q0-.88542-.90625-.88542-.69792 0-1.6406.42188l-.52604-1.0729q1.0052-.52604 2.2292-.52604 1.1719 0 1.7969.51041.625.51042.625 1.5521v3.8802zm-.46875-2.6979-.61459.0208q-.6927.0208-1.0312.25-.33854.22917-.33854.69792 0 .67187.77084.67187.55208 0 .8802-.3177.33334-.31771.33334-.84375z"/>
    <path d="m644.83 614.6q.41666 0 1-.18229v1.1823q-.59375.26562-1.4583.26562-.95312 0-1.3906-.47916-.43229-.48438-.43229-1.4479v-2.8073h-.76042v-.67188l.875-.53125.45833-1.2292h1.0156v1.2396h1.6302v1.1927h-1.6302v2.8073q0 .33854.1875.5.19271.16146.50521.16146z"/>
    <path d="m649.41 610.96q-.50521 0-.79167.32292-.28646.31771-.32812.90625h2.2292q-.0104-.58854-.30729-.90625-.29687-.32292-.80208-.32292zm.22396 4.9062q-1.4062 0-2.1979-.77604t-.79167-2.1979q0-1.4635.72917-2.2604.73438-.80209 2.026-.80209 1.2344 0 1.9219.70313.6875.70312.6875 1.9427v.77083h-3.7552q.026.67708.40104 1.0573.375.38021 1.0521.38021.52605 0 .9948-.10937.46875-.10938.97916-.34896v1.2292q-.41666.20834-.89062.3073-.47396.10416-1.1562.10416z"/>
    <path d="m653.09 615.02q0-.4375.23438-.66145.23437-.22396.68229-.22396.43229 0 .66667.22916.23958.22917.23958.65625 0 .41146-.23958.65105-.23959.23437-.66667.23437-.4375 0-.67708-.22917-.23959-.23437-.23959-.65625zm0-4.3021q0-.4375.23438-.66146.23437-.22396.68229-.22396.43229 0 .66667.22917.23958.22917.23958.65625 0 .42188-.24479.65625-.23959.22917-.66146.22917-.4375 0-.67708-.22917-.23959-.22917-.23959-.65625z"/>
    <path d="m661.49 615.87q-1.2396 0-1.9219-.76041-.67708-.76563-.67708-2.1615 0-1.4323.6875-2.2135.6927-.78125 1.9688-.78125.41145 0 .82291.0885t.64584.20833l-.26563.73438q-.28646-.11459-.625-.1875-.33854-.0781-.59896-.0781-1.7396 0-1.7396 2.2188 0 1.0521.42187 1.6146.42709.5625 1.2604.5625.71354 0 1.4635-.30729v.76563q-.57291.29687-1.4427.29687z"/>
    <path d="m669.22 612.9q0 1.3958-.70312 2.1823-.70313.78125-1.9427.78125-.76563 0-1.3594-.35937-.59375-.35938-.91666-1.0312-.32292-.67188-.32292-1.5729 0-1.3958.69792-2.1719.69791-.78125 1.9375-.78125 1.1979 0 1.901.79687.70833.79688.70833 2.1562zm-4.349 0q0 1.0938.4375 1.6667.4375.57291 1.2865.57291t1.2865-.5677q.44271-.57292.44271-1.6719 0-1.0885-.44271-1.651-.4375-.56771-1.2969-.56771-.84895 0-1.2812.55729-.43229.55729-.43229 1.6615z"/>
    <path d="m674.64 615.76v-3.6927q0-.69792-.31771-1.0417t-.99479-.34375q-.89584 0-1.3125.48438-.41667.48437-.41667 1.599v2.9948h-.86458v-5.7083h.70312l.14063.78125h.0417q.26563-.42187.7448-.65104.47916-.23437 1.0677-.23437 1.0312 0 1.5521.5.52083.49479.52083 1.5885v3.724z"/>
    <path d="m679.11 615.15q.22917 0 .44271-.0312.21354-.0365.33854-.0729v.66146q-.14063.0677-.41667.10938-.27083.0469-.48958.0469-1.6562 0-1.6562-1.7448v-3.3958h-.81771v-.41667l.81771-.35937.36458-1.2188h.5v1.3229h1.6562v.67188h-1.6562v3.3594q0 .51563.24479.79167.2448.27604.67188.27604z"/>
    <path d="m683.65 609.95q.38021 0 .6823.0625l-.1198.80208q-.35416-.0781-.625-.0781-.6927 0-1.1875.5625-.48958.5625-.48958 1.401v3.0625h-.86458v-5.7083h.71354l.099 1.0573h.0417q.31771-.55729.76563-.85937t.98437-.30208z"/>
    <path d="m690.32 612.9q0 1.3958-.70312 2.1823-.70313.78125-1.9427.78125-.76563 0-1.3594-.35937-.59375-.35938-.91666-1.0312-.32292-.67188-.32292-1.5729 0-1.3958.69792-2.1719.69791-.78125 1.9375-.78125 1.1979 0 1.901.79687.70833.79688.70833 2.1562zm-4.349 0q0 1.0938.4375 1.6667.4375.57291 1.2865.57291t1.2865-.5677q.44271-.57292.44271-1.6719 0-1.0885-.44271-1.651-.4375-.56771-1.2969-.56771-.84896 0-1.2812.55729-.4323.55729-.4323 1.6615z"/>
    <path d="m692.7 615.76h-.86458v-8.1042h.86458z"/>
    <path d="m698.22 614.21q0 .79688-.59375 1.2292t-1.6667.43229q-1.1354 0-1.7708-.35937v-.80209q.41146.20834.88021.32813.47396.11979.91146.11979.67708 0 1.0417-.21354.36459-.21875.36459-.66146 0-.33333-.29167-.56771-.28646-.23958-1.125-.5625-.79688-.29687-1.1354-.51562-.33333-.22396-.5-.50521-.16146-.28125-.16146-.67188 0-.69791.56771-1.099.56771-.40625 1.5573-.40625.92188 0 1.8021.375l-.30729.70312q-.85938-.35417-1.5573-.35417-.61458 0-.92708.19271t-.3125.53125q0 .22917.11458.39063.1198.16146.38021.30729.26042.14583 1 .42187 1.0156.3698 1.3698.7448.35938.375.35938.9427z"/>
    <path d="m706.3 615.76v-3.6927q0-.69792-.31771-1.0417t-.99479-.34375q-.90104 0-1.3177.48958-.41146.48959-.41146 1.6042v2.9844h-.86458v-8.1042h.86458v2.4531q0 .44271-.0417.73438h.0521q.25521-.41146.72396-.64583.47396-.23959 1.0781-.23959 1.0469 0 1.5677.5.52604.49479.52604 1.5781v3.724z"/>
    <path d="m713.86 612.9q0 1.3958-.70313 2.1823-.70312.78125-1.9427.78125-.76562 0-1.3594-.35937-.59375-.35938-.91667-1.0312-.32292-.67188-.32292-1.5729 0-1.3958.69792-2.1719.69792-.78125 1.9375-.78125 1.1979 0 1.901.79687.70834.79688.70834 2.1562zm-4.349 0q0 1.0938.4375 1.6667.4375.57291 1.2865.57291.84895 0 1.2864-.5677.44271-.57292.44271-1.6719 0-1.0885-.44271-1.651-.4375-.56771-1.2969-.56771-.84896 0-1.2812.55729t-.43229 1.6615z"/>
    <path d="m720.04 615.76-1.0469-3.349q-.099-.30729-.3698-1.3958h-.0417q-.20834.91146-.36459 1.4062l-1.0781 3.3386h-1l-1.5573-5.7083h.90625q.55208 2.151.83854 3.276.29167 1.125.33333 1.5156h.0417q.0573-.29688.18229-.76563.13021-.47395.22396-.75l1.0469-3.276h.9375l1.0208 3.276q.29166.89584.39583 1.5052h.0417q.0208-.1875.10937-.57812.0937-.39063 1.0885-4.2031h.89584l-1.5781 5.7083z"/>
    <path d="m603.19 633.13v-3.7135q0-.68229-.29167-1.0208-.29166-.34375-.90625-.34375-.80729 0-1.1927.46355-.38541.46354-.38541 1.4271v3.1875h-.86459v-3.7135q0-.68229-.29166-1.0208-.29167-.34375-.91146-.34375-.8125 0-1.1927.48959-.375.48437-.375 1.5938v2.9948h-.86458v-5.7083h.70312l.14063.78125h.0417q.2448-.41667.6875-.65105.44792-.23437 1-.23437 1.3386 0 1.75.96875h.0417q.25521-.44792.73958-.70833.48438-.26042 1.1042-.26042.96875 0 1.4479.5.48437.49479.48437 1.5885v3.724z"/>
    <path d="m606.65 627.42v3.7031q0 .69792.31771 1.0417t.99479.34375q.89584 0 1.3073-.48959.41666-.48958.41666-1.599v-3h.86459v5.7083h-.71355l-.125-.76563h-.0469q-.26563.42188-.73958.64584-.46875.22396-1.0729.22396-1.0417 0-1.5625-.4948-.51563-.49479-.51563-1.5833v-3.7344z"/>
    <path d="m614.66 633.23q-1.2396 0-1.9219-.76042-.67709-.76563-.67709-2.1615 0-1.4323.6875-2.2135.69271-.78125 1.9688-.78125.41146 0 .82292.0885t.64583.20833l-.26562.73438q-.28646-.11458-.625-.1875-.33854-.0781-.59896-.0781-1.7396 0-1.7396 2.2188 0 1.0521.42187 1.6146.42708.5625 1.2604.5625.71354 0 1.4635-.30729v.76562q-.57292.29688-1.4427.29688z"/>
    <path d="m621.36 633.13v-3.6927q0-.69792-.3177-1.0417-.31771-.34375-.9948-.34375-.90104 0-1.3177.48959-.41146.48958-.41146 1.6042v2.9844h-.86459v-8.1042h.86459v2.4531q0 .44271-.0417.73437h.0521q.25521-.41146.72396-.64583.47396-.23958 1.0781-.23958 1.0469 0 1.5677.5.52604.49479.52604 1.5781v3.724z"/>
    <path d="m631.7 630.27q0 1.3958-.70313 2.1823-.70312.78125-1.9427.78125-.76562 0-1.3594-.35938-.59375-.35937-.91667-1.0312-.32291-.67187-.32291-1.5729 0-1.3958.69791-2.1719.69792-.78125 1.9375-.78125 1.1979 0 1.901.79687.70834.79688.70834 2.1562zm-4.349 0q0 1.0938.4375 1.6667t1.2865.57292 1.2865-.56771q.4427-.57292.4427-1.6719 0-1.0885-.4427-1.651-.4375-.56771-1.2969-.56771-.84896 0-1.2812.5573-.43229.55729-.43229 1.6614z"/>
    <path d="m635.78 628.09h-1.4531v5.0365h-.86459v-5.0365h-1.0208v-.39062l1.0208-.3125v-.31771q0-2.1042 1.8385-2.1042.45313 0 1.0625.18229l-.22395.69271q-.5-.16146-.85417-.16146-.48958 0-.72396.32813-.23437.32291-.23437 1.0417v.3698h1.4531z"/>
    <path d="m641.45 632.52q.22916 0 .44271-.0312.21354-.0364.33854-.0729v.66146q-.14063.0677-.41667.10937-.27083.0469-.48958.0469-1.6562 0-1.6562-1.7448v-3.3958h-.81771v-.41667l.81771-.35937.36458-1.2188h.5v1.3229h1.6562v.67187h-1.6562v3.3594q0 .51562.24479.79166t.67188.27604z"/>
    <path d="m647.28 633.13v-3.6927q0-.69792-.31771-1.0417-.3177-.34375-.99479-.34375-.90104 0-1.3177.48959-.41145.48958-.41145 1.6042v2.9844h-.86459v-8.1042h.86459v2.4531q0 .44271-.0417.73437h.0521q.25521-.41146.72396-.64583.47396-.23958 1.0781-.23958 1.0469 0 1.5677.5.52605.49479.52605 1.5781v3.724z"/>
    <path d="m652.33 633.23q-1.2656 0-2-.77084-.72917-.77083-.72917-2.1406 0-1.3802.67708-2.1927.68229-.8125 1.8281-.8125 1.0729 0 1.6979.70833.625.70313.625 1.8594v.54687h-3.9323q.026 1.0052.50521 1.526.48438.52084 1.3594.52084.92187 0 1.8229-.38542v.77083q-.45833.19792-.86979.28125-.40625.0886-.98437.0886zm-.23438-5.1927q-.6875 0-1.099.44791-.40625.44792-.47916 1.2396h2.9844q0-.81771-.36458-1.25-.36459-.4375-1.0417-.4375z"/>
    <path d="m663.59 630.27q0 1.3958-.70312 2.1823-.70313.78125-1.9427.78125-.76562 0-1.3594-.35938-.59375-.35937-.91667-1.0312-.32292-.67187-.32292-1.5729 0-1.3958.69792-2.1719.69792-.78125 1.9375-.78125 1.1979 0 1.901.79687.70833.79688.70833 2.1562zm-4.349 0q0 1.0938.4375 1.6667t1.2864.57292q.84896 0 1.2865-.56771.44271-.57292.44271-1.6719 0-1.0885-.44271-1.651-.4375-.56771-1.2969-.56771-.84896 0-1.2812.5573-.43229.55729-.43229 1.6614z"/>
    <path d="m665.97 633.13h-.86458v-8.1042h.86458z"/>
    <path d="m671.7 632.36h-.0469q-.59895.8698-1.7917.8698-1.1198 0-1.7448-.76563-.6198-.76562-.6198-2.1771t.625-2.1927 1.7396-.78125q1.1615 0 1.7812.84375h.0677l-.0365-.41146-.0208-.40104v-2.3229h.86459v8.1042h-.70313zm-1.7292.14584q.88542 0 1.2812-.47917.40104-.48437.40104-1.5573v-.18229q0-1.2135-.40625-1.7292-.40104-.52083-1.2864-.52083-.76042 0-1.1667.59375-.40104.58854-.40104 1.6667 0 1.0938.40104 1.651.40104.55729 1.1771.55729z"/>
    <path d="m682.05 630.27q0 1.3958-.70313 2.1823-.70312.78125-1.9427.78125-.76562 0-1.3594-.35938-.59375-.35937-.91667-1.0312-.32292-.67187-.32292-1.5729 0-1.3958.69792-2.1719.69792-.78125 1.9375-.78125 1.1979 0 1.901.79687.70834.79688.70834 2.1562zm-4.349 0q0 1.0938.4375 1.6667t1.2865.57292q.84895 0 1.2864-.56771.44271-.57292.44271-1.6719 0-1.0885-.44271-1.651-.4375-.56771-1.2969-.56771-.84896 0-1.2812.5573-.43229.55729-.43229 1.6614z"/>
    <path d="m684.38 627.42v3.7031q0 .69792.31771 1.0417t.99479.34375q.89584 0 1.3073-.48959.41667-.48958.41667-1.599v-3h.86458v5.7083h-.71354l-.125-.76563h-.0469q-.26563.42188-.73959.64584-.46875.22396-1.0729.22396-1.0417 0-1.5625-.4948-.5156-.49479-.5156-1.5833v-3.7344z"/>
    <path d="m691.95 632.52q.22916 0 .44271-.0312.21354-.0364.33854-.0729v.66146q-.14063.0677-.41667.10937-.27083.0469-.48958.0469-1.6562 0-1.6562-1.7448v-3.3958h-.81771v-.41667l.81771-.35937.36458-1.2188h.5v1.3229h1.6562v.67187h-1.6562v3.3594q0 .51562.24479.79166t.67188.27604z"/>
    <path d="m696.53 633.23q-.55729 0-1.0208-.20313-.45833-.20833-.77083-.63542h-.0625q.0625.5.0625.94792v2.349h-.86459v-8.2708h.70313l.11979.78125h.0417q.33333-.46875.77604-.67709.44271-.20833 1.0156-.20833 1.1354 0 1.75.77604.61979.77604.61979 2.1771 0 1.4062-.6302 2.1875-.625.77605-1.7396.77605zm-.125-5.1823q-.875 0-1.2656.48438-.39063.48437-.40104 1.5417v.1927q0 1.2031.40104 1.724.40104.51563 1.2865.51563.73958 0 1.1562-.59896.42187-.59896.42187-1.651 0-1.0677-.42187-1.6354-.41667-.57292-1.1771-.57292z"/>
    <path d="m701.23 627.42v3.7031q0 .69792.31771 1.0417.3177.34375.99479.34375.89583 0 1.3073-.48959.41667-.48958.41667-1.599v-3h.86458v5.7083h-.71354l-.125-.76563h-.0469q-.26562.42188-.73958.64584-.46875.22396-1.0729.22396-1.0417 0-1.5625-.4948-.51562-.49479-.51562-1.5833v-3.7344z"/>
    <path d="m708.8 632.52q.22917 0 .44271-.0312.21354-.0364.33854-.0729v.66146q-.14063.0677-.41667.10937-.27083.0469-.48958.0469-1.6562 0-1.6562-1.7448v-3.3958h-.81771v-.41667l.81771-.35937.36458-1.2188h.5v1.3229h1.6562v.67187h-1.6562v3.3594q0 .51562.24479.79166.2448.27604.67188.27604z"/>
    <path d="m714.36 633.13h-.86459v-5.7083h.86459zm-.9375-7.2552q0-.29687.14583-.43229.14583-.14063.36458-.14063.20834 0 .35938.14063.15104.14062.15104.43229t-.15104.4375q-.15104.14063-.35938.14063-.21875 0-.36458-.14063-.14583-.14583-.14583-.4375z"/>
    <path d="m719.89 631.57q0 .79687-.59375 1.2292-.59375.4323-1.6667.4323-1.1354 0-1.7708-.35938v-.80208q.41146.20833.88021.32812.47396.11979.91146.11979.67708 0 1.0417-.21354.36459-.21875.36459-.66146 0-.33333-.29167-.5677-.28646-.23959-1.125-.5625-.79687-.29688-1.1354-.51563-.33333-.22396-.5-.50521-.16145-.28125-.16145-.67187 0-.69792.5677-1.099.56771-.40625 1.5573-.40625.92187 0 1.8021.375l-.30729.70312q-.85938-.35416-1.5573-.35416-.61459 0-.92709.19271-.3125.1927-.3125.53125 0 .22916.11459.39062.11979.16146.3802.30729.26042.14584 1 .42188 1.0156.36979 1.3698.74479.35937.375.35937.94271z"/>
    <path d="m598.57 650.59q-.55729 0-1.0208-.20313-.45833-.20833-.77083-.63541h-.0625q.0625.5.0625.94791v2.349h-.86458v-8.2708h.70312l.11979.78125h.0417q.33333-.46875.77604-.67709.44271-.20833 1.0156-.20833 1.1354 0 1.75.77604.61979.77604.61979 2.1771 0 1.4062-.63021 2.1875-.625.77604-1.7396.77604zm-.125-5.1823q-.875 0-1.2656.48437-.39062.48438-.40104 1.5417v.19271q0 1.2031.40104 1.724.40104.51562 1.2865.51562.73958 0 1.1562-.59896.42188-.59896.42188-1.651 0-1.0677-.42188-1.6354-.41667-.57291-1.1771-.57291z"/>
    <path d="m605.97 650.49-.17187-.8125h-.0417q-.42708.53646-.85417.72917-.42187.1875-1.0573.1875-.84896 0-1.3333-.4375-.47917-.4375-.47917-1.2448 0-1.7292 2.7656-1.8125l.96875-.0312v-.35417q0-.67188-.29167-.98958-.28646-.32292-.92188-.32292-.71354 0-1.6146.4375l-.26562-.66146q.42187-.22917.92187-.35937.50521-.13021 1.0104-.13021 1.0208 0 1.5104.45312.4948.45313.4948 1.4531v3.8958zm-1.9531-.60937q.80729 0 1.2656-.44271.46354-.44271.46354-1.2396v-.51563l-.86458.0365q-1.0312.0365-1.4896.32292-.45313.28125-.45313.8802 0 .46875.28125.71355.28646.24479.79688.24479z"/>
    <path d="m611 644.68q.38021 0 .68229.0625l-.11979.80208q-.35417-.0781-.625-.0781-.69271 0-1.1875.5625-.48958.5625-.48958 1.401v3.0625h-.86459v-5.7083h.71355l.099 1.0573h.0417q.31771-.55729.76563-.85938.44791-.30208.98437-.30208z"/>
    <path d="m614.59 649.88q.22917 0 .44271-.0312.21354-.0365.33854-.0729v.66146q-.14062.0677-.41667.10937-.27083.0469-.48958.0469-1.6562 0-1.6562-1.7448v-3.3958h-.81771v-.41666l.81771-.35938.36458-1.2188h.5v1.3229h1.6562v.67187h-1.6562v3.3594q0 .51562.2448.79167.24479.27604.67187.27604z"/>
    <path d="m624.22 647.63q0 1.3958-.70312 2.1823-.70313.78125-1.9427.78125-.76563 0-1.3594-.35938-.59375-.35937-.91666-1.0312-.32292-.67187-.32292-1.5729 0-1.3958.69792-2.1719.69791-.78125 1.9375-.78125 1.1979 0 1.901.79688.70833.79687.70833 2.1562zm-4.349 0q0 1.0938.4375 1.6667.4375.57292 1.2865.57292t1.2865-.56771q.44271-.57291.44271-1.6719 0-1.0886-.44271-1.651-.4375-.5677-1.2969-.5677-.84895 0-1.2812.55729-.43229.55729-.43229 1.6615z"/>
    <path d="m628.3 645.45h-1.4531v5.0365h-.86458v-5.0365h-1.0208v-.39062l1.0208-.3125v-.31771q0-2.1042 1.8385-2.1042.45312 0 1.0625.18229l-.22396.69271q-.5-.16146-.85417-.16146-.48958 0-.72396.32813-.23437.32292-.23437 1.0417v.36979h1.4531z"/>
    <path d="m633.97 649.88q.22917 0 .44271-.0312.21354-.0365.33854-.0729v.66146q-.14062.0677-.41666.10937-.27084.0469-.48959.0469-1.6562 0-1.6562-1.7448v-3.3958h-.81771v-.41666l.81771-.35938.36459-1.2188h.5v1.3229h1.6562v.67187h-1.6562v3.3594q0 .51562.24479.79167.24479.27604.67187.27604z"/>
    <path d="m639.8 650.49v-3.6927q0-.69791-.3177-1.0417-.31771-.34375-.9948-.34375-.90104 0-1.3177.48958-.41146.48958-.41146 1.6042v2.9844h-.86459v-8.1042h.86459v2.4531q0 .44271-.0417.73437h.0521q.25521-.41145.72396-.64583.47396-.23958 1.0781-.23958 1.0469 0 1.5677.5.52604.49479.52604 1.5781v3.724z"/>
    <path d="m644.85 650.59q-1.2656 0-2-.77083-.72917-.77084-.72917-2.1406 0-1.3802.67709-2.1927.68229-.8125 1.8281-.8125 1.0729 0 1.6979.70833.625.70313.625 1.8594v.54688h-3.9323q.026 1.0052.50521 1.526.48437.52083 1.3594.52083.92188 0 1.8229-.38542v.77084q-.45834.19791-.86979.28125-.40625.0885-.98438.0885zm-.23437-5.1927q-.6875 0-1.099.44792-.40625.44791-.47917 1.2396h2.9844q0-.81771-.36459-1.25-.36458-.4375-1.0417-.4375z"/>
    <path d="m655.09 650.49v-3.6927q0-.69791-.31771-1.0417-.3177-.34375-.99479-.34375-.89583 0-1.3125.48437-.41666.48438-.41666 1.599v2.9948h-.86459v-5.7083h.70313l.14062.78125h.0417q.26562-.42188.74479-.65104.47917-.23438 1.0677-.23438 1.0312 0 1.5521.5.52084.49479.52084 1.5885v3.724z"/>
    <path d="m660.14 650.59q-1.2656 0-2-.77083-.72917-.77084-.72917-2.1406 0-1.3802.67709-2.1927.68229-.8125 1.8281-.8125 1.0729 0 1.6979.70833.625.70313.625 1.8594v.54688h-3.9323q.026 1.0052.5052 1.526.48438.52083 1.3594.52083.92187 0 1.8229-.38542v.77084q-.45834.19791-.8698.28125-.40625.0885-.98437.0885zm-.23438-5.1927q-.6875 0-1.099.44792-.40625.44791-.47917 1.2396h2.9844q0-.81771-.36458-1.25-.36458-.4375-1.0417-.4375z"/>
    <path d="m668.37 650.49-1.0469-3.349q-.099-.30729-.36979-1.3958h-.0417q-.20833.91146-.36458 1.4062l-1.0781 3.3385h-1l-1.5573-5.7083h.90625q.55209 2.151.83855 3.276.29166 1.125.33333 1.5156h.0417q.0573-.29688.18229-.76563.13021-.47396.22396-.75l1.0469-3.276h.9375l1.0208 3.276q.29167.89583.39584 1.5052h.0417q.0208-.1875.10938-.57813.0937-.39062 1.0885-4.2031h.89583l-1.5781 5.7083z"/>
    <path d="m675.64 650.49h-.86458v-5.7083h.86458zm-.9375-7.2552q0-.29687.14584-.43229.14583-.14062.36458-.14062.20833 0 .35937.14062.15105.14063.15105.43229 0 .29167-.15105.4375-.15104.14063-.35937.14063-.21875 0-.36458-.14063-.14584-.14583-.14584-.4375z"/>
    <path d="m681.39 650.49v-3.6927q0-.69791-.31771-1.0417t-.99479-.34375q-.89584 0-1.3125.48437-.41667.48438-.41667 1.599v2.9948h-.86458v-5.7083h.70312l.14063.78125h.0417q.26563-.42188.7448-.65104.47916-.23438 1.0677-.23438 1.0312 0 1.5521.5.52083.49479.52083 1.5885v3.724z"/>
    <path d="m686.68 650.59q-.55729 0-1.0208-.20313-.45834-.20833-.77084-.63541h-.0625q.0625.5.0625.94791v2.349h-.86458v-8.2708h.70312l.1198.78125h.0417q.33334-.46875.77604-.67709.44271-.20833 1.0156-.20833 1.1354 0 1.75.77604.61979.77604.61979 2.1771 0 1.4062-.63021 2.1875-.625.77604-1.7396.77604zm-.125-5.1823q-.875 0-1.2656.48437-.39062.48438-.40104 1.5417v.19271q0 1.2031.40104 1.724.40105.51562 1.2865.51562.73959 0 1.1562-.59896.42188-.59896.42188-1.651 0-1.0677-.42188-1.6354-.41666-.57291-1.1771-.57291z"/>
    <path d="m691.38 644.78v3.7031q0 .69792.31771 1.0417t.99479.34375q.89584 0 1.3073-.48958.41667-.48959.41667-1.599v-3h.86458v5.7083h-.71354l-.125-.76562h-.0469q-.26563.42187-.73959.64583-.46875.22396-1.0729.22396-1.0417 0-1.5625-.49479-.5156-.49479-.5156-1.5833v-3.7344z"/>
    <path d="m698.95 649.88q.22917 0 .44271-.0312.21354-.0365.33854-.0729v.66146q-.14062.0677-.41666.10937-.27084.0469-.48959.0469-1.6562 0-1.6562-1.7448v-3.3958h-.8177v-.41666l.8177-.35938.36459-1.2188h.5v1.3229h1.6562v.67187h-1.6562v3.3594q0 .51562.24479.79167.24479.27604.67187.27604z"/>
    <path d="m700.75 649.94q0-.34896.15625-.52604.16146-.18229.45834-.18229.30208 0 .46875.18229.17187.17708.17187.52604 0 .33854-.17187.52083-.17188.18229-.46875.18229-.26563 0-.44271-.16145-.17188-.16667-.17188-.54167z"/>
   </g>
   <g transform="matrix(.26458 0 0 .26458 -45.873 -113.39)" fill="#666" stroke-width="1px" aria-label="Update Gate: controls if the new output is the new input or the old output.">
    <path d="m602.16 608.15v4.9271q0 .84375-.38021 1.4792-.375.63542-1.0885.97396t-1.6875.33854q-1.4688 0-2.2812-.75-.8125-.75521-.8125-2.0625v-4.9062h1.6094v4.6615q0 .88021.35416 1.2917.35417.41146 1.1719.41146.79166 0 1.1458-.41146.35938-.41667.35938-1.3021v-4.651z"/>
    <path d="m607.09 615.87q-1.026 0-1.6094-.74479h-.0833q.0833.72917.0833.84375v2.3594h-1.5886v-8.3854h1.2917l.22396.75521h.0729q.55729-.86459 1.651-.86459 1.0312 0 1.6146.79688.58333.79687.58333 2.2135 0 .93229-.27604 1.6198-.27083.6875-.77604 1.0469-.50521.35937-1.1875.35937zm-.46875-4.7656q-.58854 0-.85937.36458-.27084.35938-.28125 1.1927v.17187q0 .9375.27604 1.3438.28125.40625.88541.40625 1.0677 0 1.0677-1.7604 0-.85938-.26562-1.2865-.26042-.43229-.82292-.43229z"/>
    <path d="m612.49 615.87q-1.026 0-1.6146-.79687-.58333-.79688-.58333-2.2083 0-1.4323.59375-2.2292.59896-.80209 1.6458-.80209 1.099 0 1.6771.85417h.0521q-.11979-.65104-.11979-1.1615v-1.8646h1.5938v8.1042h-1.2188l-.3073-.75521h-.0677q-.54167.85937-1.651.85937zm.5573-1.2656q.60937 0 .89062-.35417.28646-.35417.3125-1.2031v-.17188q0-.9375-.29167-1.3438-.28645-.40625-.9375-.40625-.53125 0-.82812.45313-.29167.44791-.29167 1.3073 0 .85937.29688 1.2917.29687.42709.84896.42709z"/>
    <path d="m621.09 615.76-.30729-.79167h-.0417q-.40104.50521-.82812.70312-.42188.19271-1.1042.19271-.83854 0-1.3229-.47916-.47916-.47917-.47916-1.3646 0-.92708.64583-1.3646.65104-.44271 1.9583-.48958l1.0104-.0312v-.25526q0-.88542-.90625-.88542-.69792 0-1.6406.42188l-.52605-1.0729q1.0052-.52604 2.2292-.52604 1.1719 0 1.7969.51041.625.51042.625 1.5521v3.8802zm-.46875-2.6979-.61458.0208q-.69271.0208-1.0312.25-.33854.22917-.33854.69792 0 .67187.77083.67187.55208 0 .88021-.3177.33333-.31771.33333-.84375z"/>
    <path d="m626.29 614.6q.41667 0 1-.18229v1.1823q-.59375.26562-1.4583.26562-.95313 0-1.3906-.47916-.43229-.48438-.43229-1.4479v-2.8073h-.76042v-.67188l.875-.53125.45834-1.2292h1.0156v1.2396h1.6302v1.1927h-1.6302v2.8073q0 .33854.1875.5.19271.16146.50521.16146z"/>
    <path d="m630.87 610.96q-.50521 0-.79166.32292-.28646.31771-.32813.90625h2.2292q-.0104-.58854-.30729-.90625-.29688-.32292-.80209-.32292zm.22396 4.9062q-1.4062 0-2.1979-.77604-.79166-.77604-.79166-2.1979 0-1.4635.72916-2.2604.73438-.80209 2.026-.80209 1.2344 0 1.9219.70313.6875.70312.6875 1.9427v.77083h-3.7552q.026.67708.40104 1.0573.375.38021 1.0521.38021.52604 0 .99479-.10937.46875-.10938.97917-.34896v1.2292q-.41667.20834-.89063.3073-.47396.10416-1.1562.10416z"/>
    <path d="m640.56 611.49h3.0208v3.9479q-.73437.23958-1.3854.33333-.64584.099-1.3229.099-1.724 0-2.6354-1.0104-.90625-1.0156-.90625-2.9115 0-1.8438 1.0521-2.875 1.0573-1.0312 2.9271-1.0312 1.1719 0 2.2604.46875l-.53646 1.2917q-.83333-.41666-1.7344-.41666-1.0469 0-1.6771.70312-.63021.70313-.63021 1.8906 0 1.2396.50521 1.8958.51042.65104 1.4792.65104.50521 0 1.026-.10416v-1.5886h-1.4427z"/>
    <path d="m648.97 615.76-.30729-.79167h-.0417q-.40104.50521-.82812.70312-.42188.19271-1.1042.19271-.83854 0-1.3229-.47916-.47916-.47917-.47916-1.3646 0-.92708.64583-1.3646.65104-.44271 1.9583-.48958l1.0104-.03125v-.25521q0-.88542-.90625-.88542-.69792 0-1.6406.42188l-.52605-1.0729q1.0052-.52604 2.2292-.52604 1.1719 0 1.7969.51041.625.51042.625 1.5521v3.8802zm-.46875-2.6979-.61458.0208q-.69271.0208-1.0312.25-.33854.22917-.33854.69792 0 .67187.77083.67187.55208 0 .88021-.3177.33333-.31768.33333-.84372z"/>
    <path d="m654.16 614.6q.41667 0 1-.18229v1.1823q-.59375.26562-1.4583.26562-.95313 0-1.3906-.47916-.43229-.48438-.43229-1.4479v-2.8073h-.76042v-.67188l.875-.53125.45834-1.2292h1.0156v1.2396h1.6302v1.1927h-1.6302v2.8073q0 .33854.1875.5.19271.16146.50521.16146z"/>
    <path d="m658.74 610.96q-.50521 0-.79166.32292-.28646.31771-.32813.90625h2.2292q-.0104-.58854-.30729-.90625-.29688-.32292-.80209-.32292zm.22396 4.9062q-1.4062 0-2.1979-.77604-.79166-.77604-.79166-2.1979 0-1.4635.72916-2.2604.73438-.80209 2.026-.80209 1.2344 0 1.9219.70313.6875.70312.6875 1.9427v.77083h-3.7552q.026.67708.40104 1.0573.375.38021 1.0521.38021.52604 0 .99479-.10937.46875-.10938.97917-.34896v1.2292q-.41667.20834-.89063.3073-.47396.10416-1.1562.10416z"/>
    <path d="m662.42 615.02q0-.4375.23437-.66145.23438-.22396.68229-.22396.43229 0 .66667.22916.23958.22917.23958.65625 0 .41146-.23958.65105-.23958.23437-.66667.23437-.4375 0-.67708-.22917-.23958-.23437-.23958-.65625zm0-4.3021q0-.4375.23437-.66146.23438-.22396.68229-.22396.43229 0 .66667.22917.23958.22917.23958.65625 0 .42188-.24479.65625-.23958.22917-.66146.22917-.4375 0-.67708-.22917t-.23958-.65625z"/>
    <path d="m670.82 615.87q-1.2396 0-1.9219-.76041-.67708-.76563-.67708-2.1615 0-1.4323.6875-2.2135.69271-.78125 1.9688-.78125.41146 0 .82292.0885.41145.0885.64583.20833l-.26563.73438q-.28645-.11459-.625-.1875-.33854-.0781-.59895-.0781-1.7396 0-1.7396 2.2188 0 1.0521.42188 1.6146.42708.5625 1.2604.5625.71355 0 1.4636-.30729v.76563q-.57292.29687-1.4427.29687z"/>
    <path d="m678.55 612.9q0 1.3958-.70313 2.1823-.70312.78125-1.9427.78125-.76562 0-1.3594-.35937-.59375-.35938-.91667-1.0312-.32292-.67188-.32292-1.5729 0-1.3958.69792-2.1719.69792-.78125 1.9375-.78125 1.1979 0 1.901.79687.70834.79688.70834 2.1562zm-4.349 0q0 1.0938.4375 1.6667.4375.57291 1.2865.57291.84895 0 1.2864-.5677.44271-.57292.44271-1.6719 0-1.0885-.44271-1.651-.4375-.56771-1.2969-.56771-.84896 0-1.2812.55729t-.43229 1.6615z"/>
    <path d="m683.97 615.76v-3.6927q0-.69792-.31771-1.0417-.3177-.34375-.99479-.34375-.89583 0-1.3125.48438-.41666.48437-.41666 1.599v2.9948h-.86459v-5.7083h.70313l.14062.78125h.0417q.26562-.42187.74479-.65104.47917-.23437 1.0677-.23437 1.0312 0 1.5521.5.52084.49479.52084 1.5885v3.724z"/>
    <path d="m688.45 615.15q.22916 0 .44271-.0312.21354-.0365.33854-.0729v.66146q-.14063.0677-.41667.10938-.27083.0469-.48958.0469-1.6562 0-1.6562-1.7448v-3.3958h-.81771v-.41667l.81771-.35937.36458-1.2188h.5v1.3229h1.6562v.67188h-1.6562v3.3594q0 .51563.24479.79167t.67188.27604z"/>
    <path d="m692.98 609.95q.38021 0 .68229.0625l-.11979.80208q-.35417-.0781-.625-.0781-.69271 0-1.1875.5625-.48958.5625-.48958 1.401v3.0625h-.86459v-5.7083h.71354l.099 1.0573h.0417q.31771-.55729.76562-.85937.44792-.30208.98438-.30208z"/>
    <path d="m699.66 612.9q0 1.3958-.70312 2.1823-.70313.78125-1.9427.78125-.76563 0-1.3594-.35937-.59375-.35938-.91666-1.0312-.32292-.67188-.32292-1.5729 0-1.3958.69792-2.1719.69791-.78125 1.9375-.78125 1.1979 0 1.901.79687.70833.79688.70833 2.1562zm-4.349 0q0 1.0938.4375 1.6667.4375.57291 1.2865.57291t1.2865-.5677q.44271-.57292.44271-1.6719 0-1.0885-.44271-1.651-.4375-.56771-1.2969-.56771-.84895 0-1.2812.55729-.43229.55729-.43229 1.6615z"/>
    <path d="m702.03 615.76h-.86458v-8.1042h.86458z"/>
    <path d="m707.56 614.21q0 .79688-.59375 1.2292t-1.6667.43229q-1.1354 0-1.7708-.35937v-.80209q.41146.20834.88021.32813.47396.11979.91146.11979.67708 0 1.0417-.21354.36458-.21875.36458-.66146 0-.33333-.29167-.56771-.28645-.23958-1.125-.5625-.79687-.29687-1.1354-.51562-.33334-.22396-.5-.50521-.16146-.28125-.16146-.67188 0-.69791.56771-1.099.56771-.40625 1.5573-.40625.92187 0 1.8021.375l-.30729.70312q-.85937-.35417-1.5573-.35417-.61458 0-.92708.19271t-.3125.53125q0 .22917.11458.39063.11979.16146.38021.30729.26041.14583 1 .42187 1.0156.3698 1.3698.7448.35937.375.35937.9427z"/>
    <path d="m712.59 615.76h-.86458v-5.7083h.86458zm-.9375-7.2552q0-.29688.14583-.43229.14584-.14063.36459-.14063.20833 0 .35937.14063.15104.14062.15104.43229 0 .29166-.15104.4375-.15104.14062-.35937.14062-.21875 0-.36459-.14062-.14583-.14584-.14583-.4375z"/>
    <path d="m717.01 610.73h-1.4531v5.0365h-.86458v-5.0365h-1.0208v-.39063l1.0208-.3125v-.31771q0-2.1042 1.8385-2.1042.45313 0 1.0625.18229l-.22396.69271q-.5-.16146-.85416-.16146-.48959 0-.72396.32812-.23438.32292-.23438 1.0417v.36979h1.4531z"/>
    <path d="m597.76 632.52q.22916 0 .44271-.0312.21354-.0364.33854-.0729v.66146q-.14063.0677-.41667.10937-.27083.0469-.48958.0469-1.6562 0-1.6562-1.7448v-3.3958h-.81771v-.41667l.81771-.35937.36458-1.2188h.5v1.3229h1.6562v.67187h-1.6562v3.3594q0 .51562.24479.79166t.67188.27604z"/>
    <path d="m603.59 633.13v-3.6927q0-.69792-.31771-1.0417t-.99479-.34375q-.90104 0-1.3177.48959-.41146.48958-.41146 1.6042v2.9844h-.86458v-8.1042h.86458v2.4531q0 .44271-.0417.73437h.0521q.25521-.41146.72396-.64583.47396-.23958 1.0781-.23958 1.0469 0 1.5677.5.52604.49479.52604 1.5781v3.724z"/>
    <path d="m608.64 633.23q-1.2656 0-2-.77084-.72917-.77083-.72917-2.1406 0-1.3802.67708-2.1927.68229-.8125 1.8281-.8125 1.0729 0 1.6979.70833.625.70313.625 1.8594v.54687h-3.9323q.026 1.0052.50521 1.526.48438.52084 1.3594.52084.92187 0 1.8229-.38542v.77083q-.45833.19792-.86979.28125-.40625.0886-.98437.0886zm-.23438-5.1927q-.6875 0-1.099.44791-.40625.44792-.47916 1.2396h2.9844q0-.81771-.36458-1.25-.36459-.4375-1.0417-.4375z"/>
    <path d="m618.89 633.13v-3.6927q0-.69792-.31771-1.0417t-.99479-.34375q-.89584 0-1.3125.48438-.41667.48437-.41667 1.599v2.9948h-.86458v-5.7083h.70312l.14063.78125h.0417q.26563-.42188.7448-.65105.47916-.23437 1.0677-.23437 1.0312 0 1.5521.5.52083.49479.52083 1.5885v3.724z"/>
    <path d="m623.93 633.23q-1.2656 0-2-.77084-.72916-.77083-.72916-2.1406 0-1.3802.67708-2.1927.68229-.8125 1.8281-.8125 1.0729 0 1.6979.70833.625.70313.625 1.8594v.54687h-3.9323q.026 1.0052.50521 1.526.48437.52084 1.3594.52084.92188 0 1.8229-.38542v.77083q-.45833.19792-.86979.28125-.40625.0886-.98438.0886zm-.23437-5.1927q-.6875 0-1.099.44791-.40625.44792-.47917 1.2396h2.9844q0-.81771-.36459-1.25-.36458-.4375-1.0417-.4375z"/>
    <path d="m632.16 633.13-1.0469-3.349q-.099-.30729-.3698-1.3958h-.0417q-.20834.91146-.36459 1.4062l-1.0781 3.3385h-1l-1.5573-5.7083h.90625q.55208 2.151.83854 3.276.29167 1.125.33333 1.5156h.0417q.0573-.29687.18229-.76562.13021-.47396.22396-.75l1.0469-3.276h.9375l1.0208 3.276q.29166.89583.39583 1.5052h.0417q.0208-.1875.10937-.57813.0937-.39062 1.0885-4.2031h.89584l-1.5781 5.7083z"/>
    <path d="m643.49 630.27q0 1.3958-.70313 2.1823-.70312.78125-1.9427.78125-.76562 0-1.3594-.35938-.59375-.35937-.91667-1.0312-.32292-.67187-.32292-1.5729 0-1.3958.69792-2.1719.69792-.78125 1.9375-.78125 1.1979 0 1.901.79687.70834.79688.70834 2.1562zm-4.349 0q0 1.0938.4375 1.6667t1.2865.57292q.84895 0 1.2864-.56771.44271-.57292.44271-1.6719 0-1.0885-.44271-1.651-.4375-.56771-1.2969-.56771-.84896 0-1.2812.5573-.43229.55729-.43229 1.6614z"/>
    <path d="m645.81 627.42v3.7031q0 .69792.31771 1.0417t.99479.34375q.89584 0 1.3073-.48959.41667-.48958.41667-1.599v-3h.86458v5.7083h-.71354l-.125-.76563h-.0469q-.26563.42188-.73959.64584-.46875.22396-1.0729.22396-1.0417 0-1.5625-.4948-.51563-.49479-.51563-1.5833v-3.7344z"/>
    <path d="m653.39 632.52q.22917 0 .44271-.0312.21354-.0364.33854-.0729v.66146q-.14062.0677-.41667.10937-.27083.0469-.48958.0469-1.6562 0-1.6562-1.7448v-3.3958h-.81771v-.41667l.81771-.35937.36458-1.2188h.5v1.3229h1.6562v.67187h-1.6562v3.3594q0 .51562.2448.79166.24479.27604.67187.27604z"/>
    <path d="m657.97 633.23q-.55729 0-1.0208-.20313-.45833-.20833-.77083-.63542h-.0625q.0625.5.0625.94792v2.349h-.86459v-8.2708h.70313l.11979.78125h.0417q.33333-.46875.77604-.67709.44271-.20833 1.0156-.20833 1.1354 0 1.75.77604.61979.77604.61979 2.1771 0 1.4062-.6302 2.1875-.625.77605-1.7396.77605zm-.125-5.1823q-.875 0-1.2656.48438-.39063.48437-.40104 1.5417v.1927q0 1.2031.40104 1.724.40104.51563 1.2865.51563.73958 0 1.1562-.59896.42187-.59896.42187-1.651 0-1.0677-.42187-1.6354-.41667-.57292-1.1771-.57292z"/>
    <path d="m662.67 627.42v3.7031q0 .69792.31771 1.0417.3177.34375.99479.34375.89583 0 1.3073-.48959.41667-.48958.41667-1.599v-3h.86458v5.7083h-.71354l-.125-.76563h-.0469q-.26562.42188-.73958.64584-.46875.22396-1.0729.22396-1.0417 0-1.5625-.4948-.51562-.49479-.51562-1.5833v-3.7344z"/>
    <path d="m670.24 632.52q.22917 0 .44271-.0312.21354-.0364.33854-.0729v.66146q-.14063.0677-.41667.10937-.27083.0469-.48958.0469-1.6562 0-1.6562-1.7448v-3.3958h-.81771v-.41667l.81771-.35937.36458-1.2188h.5v1.3229h1.6562v.67187h-1.6562v3.3594q0 .51562.24479.79166.2448.27604.67188.27604z"/>
    <path d="m675.8 633.13h-.86459v-5.7083h.86459zm-.9375-7.2552q0-.29687.14583-.43229.14583-.14063.36458-.14063.20834 0 .35938.14063.15104.14062.15104.43229t-.15104.4375q-.15104.14063-.35938.14063-.21875 0-.36458-.14063-.14583-.14583-.14583-.4375z"/>
    <path d="m681.33 631.57q0 .79687-.59375 1.2292-.59375.4323-1.6667.4323-1.1354 0-1.7708-.35938v-.80208q.41146.20833.88021.32812.47396.11979.91146.11979.67708 0 1.0417-.21354.36459-.21875.36459-.66146 0-.33333-.29167-.5677-.28646-.23959-1.125-.5625-.79687-.29688-1.1354-.51563-.33333-.22396-.5-.50521-.16145-.28125-.16145-.67187 0-.69792.5677-1.099.56771-.40625 1.5573-.40625.92187 0 1.8021.375l-.30729.70312q-.85938-.35416-1.5573-.35416-.61459 0-.92709.19271-.3125.1927-.3125.53125 0 .22916.11459.39062.11979.16146.3802.30729.26042.14584 1 .42188 1.0156.36979 1.3698.74479.35937.375.35937.94271z"/>
    <path d="m687.34 632.52q.22917 0 .44271-.0312.21354-.0364.33854-.0729v.66146q-.14062.0677-.41666.10937-.27084.0469-.48959.0469-1.6562 0-1.6562-1.7448v-3.3958h-.81771v-.41667l.81771-.35937.36459-1.2188h.5v1.3229h1.6562v.67187h-1.6562v3.3594q0 .51562.24479.79166t.67187.27604z"/>
    <path d="m693.18 633.13v-3.6927q0-.69792-.31771-1.0417t-.99479-.34375q-.90104 0-1.3177.48959-.41146.48958-.41146 1.6042v2.9844h-.86458v-8.1042h.86458v2.4531q0 .44271-.0417.73437h.0521q.25521-.41146.72396-.64583.47396-.23958 1.0781-.23958 1.0469 0 1.5677.5.52604.49479.52604 1.5781v3.724z"/>
    <path d="m698.22 633.23q-1.2656 0-2-.77084-.72917-.77083-.72917-2.1406 0-1.3802.67709-2.1927.68229-.8125 1.8281-.8125 1.0729 0 1.6979.70833.625.70313.625 1.8594v.54687h-3.9323q.026 1.0052.50521 1.526.48437.52084 1.3594.52084.92188 0 1.8229-.38542v.77083q-.45834.19792-.86979.28125-.40625.0886-.98438.0886zm-.23437-5.1927q-.6875 0-1.099.44791-.40625.44792-.47917 1.2396h2.9844q0-.81771-.36459-1.25-.36458-.4375-1.0417-.4375z"/>
    <path d="m708.47 633.13v-3.6927q0-.69792-.31771-1.0417-.3177-.34375-.99479-.34375-.89583 0-1.3125.48438-.41666.48437-.41666 1.599v2.9948h-.86459v-5.7083h.70313l.14062.78125h.0417q.26562-.42188.74479-.65105.47917-.23437 1.0677-.23437 1.0312 0 1.5521.5.52084.49479.52084 1.5885v3.724z"/>
    <path d="m713.52 633.23q-1.2656 0-2-.77084-.72916-.77083-.72916-2.1406 0-1.3802.67708-2.1927.68229-.8125 1.8281-.8125 1.0729 0 1.6979.70833.625.70313.625 1.8594v.54687h-3.9323q.026 1.0052.50521 1.526.48437.52084 1.3594.52084.92188 0 1.8229-.38542v.77083q-.45833.19792-.86979.28125-.40625.0886-.98438.0886zm-.23437-5.1927q-.6875 0-1.099.44791-.40625.44792-.47917 1.2396h2.9844q0-.81771-.36459-1.25-.36458-.4375-1.0417-.4375z"/>
    <path d="m721.74 633.13-1.0469-3.349q-.099-.30729-.36979-1.3958h-.0417q-.20833.91146-.36458 1.4062l-1.0781 3.3385h-1l-1.5573-5.7083h.90625q.55209 2.151.83855 3.276.29166 1.125.33333 1.5156h.0417q.0573-.29687.18229-.76562.13021-.47396.22396-.75l1.0469-3.276h.9375l1.0208 3.276q.29167.89583.39584 1.5052h.0417q.0208-.1875.10938-.57813.0937-.39062 1.0885-4.2031h.89583l-1.5781 5.7083z"/>
    <path d="m596.78 650.49h-.86458v-5.7083h.86458zm-.9375-7.2552q0-.29687.14583-.43229.14584-.14062.36459-.14062.20833 0 .35937.14062.15104.14063.15104.43229 0 .29167-.15104.4375-.15104.14063-.35937.14063-.21875 0-.36459-.14063-.14583-.14583-.14583-.4375z"/>
    <path d="m602.53 650.49v-3.6927q0-.69791-.31771-1.0417t-.99479-.34375q-.89583 0-1.3125.48437-.41667.48438-.41667 1.599v2.9948h-.86458v-5.7083h.70313l.14062.78125h.0417q.26562-.42188.74479-.65104.47917-.23438 1.0677-.23438 1.0312 0 1.5521.5.52083.49479.52083 1.5885v3.724z"/>
    <path d="m607.82 650.59q-.55729 0-1.0208-.20313-.45833-.20833-.77083-.63541h-.0625q.0625.5.0625.94791v2.349h-.86458v-8.2708h.70312l.11979.78125h.0417q.33333-.46875.77604-.67709.44271-.20833 1.0156-.20833 1.1354 0 1.75.77604.61979.77604.61979 2.1771 0 1.4062-.63021 2.1875-.625.77604-1.7396.77604zm-.125-5.1823q-.875 0-1.2656.48437-.39062.48438-.40104 1.5417v.19271q0 1.2031.40104 1.724.40104.51562 1.2865.51562.73958 0 1.1562-.59896.42188-.59896.42188-1.651 0-1.0677-.42188-1.6354-.41667-.57291-1.1771-.57291z"/>
    <path d="m612.52 644.78v3.7031q0 .69792.31771 1.0417t.99479.34375q.89584 0 1.3073-.48958.41666-.48959.41666-1.599v-3h.86459v5.7083h-.71355l-.125-.76562h-.0469q-.26563.42187-.73958.64583-.46875.22396-1.0729.22396-1.0417 0-1.5625-.49479-.51563-.49479-.51563-1.5833v-3.7344z"/>
    <path d="m620.09 649.88q.22917 0 .44271-.0312.21354-.0365.33854-.0729v.66146q-.14062.0677-.41667.10937-.27083.0469-.48958.0469-1.6562 0-1.6562-1.7448v-3.3958h-.81771v-.41666l.81771-.35938.36458-1.2188h.5v1.3229h1.6562v.67187h-1.6562v3.3594q0 .51562.2448.79167.24479.27604.67187.27604z"/>
    <path d="m629.72 647.63q0 1.3958-.70312 2.1823-.70313.78125-1.9427.78125-.76563 0-1.3594-.35938-.59375-.35937-.91666-1.0312-.32292-.67187-.32292-1.5729 0-1.3958.69792-2.1719.69791-.78125 1.9375-.78125 1.1979 0 1.901.79688.70833.79687.70833 2.1562zm-4.349 0q0 1.0938.4375 1.6667.4375.57292 1.2865.57292t1.2865-.56771q.44271-.57291.44271-1.6719 0-1.0886-.44271-1.651-.4375-.5677-1.2969-.5677-.84896 0-1.2812.55729-.4323.55729-.4323 1.6615z"/>
    <path d="m633.83 644.68q.38021 0 .6823.0625l-.1198.80208q-.35416-.0781-.625-.0781-.6927 0-1.1875.5625-.48958.5625-.48958 1.401v3.0625h-.86458v-5.7083h.71354l.099 1.0573h.0417q.31771-.55729.76563-.85938.44792-.30208.98437-.30208z"/>
    <path d="m640.2 649.88q.22916 0 .44271-.0312.21354-.0365.33854-.0729v.66146q-.14063.0677-.41667.10937-.27083.0469-.48958.0469-1.6562 0-1.6562-1.7448v-3.3958h-.81771v-.41666l.81771-.35938.36458-1.2188h.5v1.3229h1.6562v.67187h-1.6562v3.3594q0 .51562.24479.79167.24479.27604.67188.27604z"/>
    <path d="m646.03 650.49v-3.6927q0-.69791-.31771-1.0417-.3177-.34375-.99479-.34375-.90104 0-1.3177.48958-.41145.48958-.41145 1.6042v2.9844h-.86459v-8.1042h.86459v2.4531q0 .44271-.0417.73437h.05211q.25521-.41145.72396-.64583.47396-.23958 1.0781-.23958 1.0469 0 1.5677.5.52605.49479.52605 1.5781v3.724z"/>
    <path d="m651.08 650.59q-1.2656 0-2-.77083-.72917-.77084-.72917-2.1406 0-1.3802.67709-2.1927.68229-.8125 1.8281-.8125 1.0729 0 1.6979.70833.625.70313.625 1.8594v.54688h-3.9323q.026 1.0052.5052 1.526.48438.52083 1.3594.52083.92187 0 1.8229-.38542v.77084q-.45834.19791-.8698.28125-.40625.0885-.98437.0885zm-.23438-5.1927q-.6875 0-1.099.44792-.40625.44791-.47917 1.2396h2.9844q0-.81771-.36458-1.25-.36458-.4375-1.0417-.4375z"/>
    <path d="m662.34 647.63q0 1.3958-.70312 2.1823-.70313.78125-1.9427.78125-.76562 0-1.3594-.35938-.59375-.35937-.91667-1.0312-.32292-.67187-.32292-1.5729 0-1.3958.69792-2.1719.69792-.78125 1.9375-.78125 1.1979 0 1.901.79688.70833.79687.70833 2.1562zm-4.349 0q0 1.0938.4375 1.6667.4375.57292 1.2864.57292.84896 0 1.2865-.56771.44271-.57291.44271-1.6719 0-1.0886-.44271-1.651-.4375-.5677-1.2969-.5677-.84896 0-1.2812.55729t-.43229 1.6615z"/>
    <path d="m664.72 650.49h-.86458v-8.1042h.86458z"/>
    <path d="m670.45 649.72h-.0469q-.59895.86979-1.7917.86979-1.1198 0-1.7448-.76563-.6198-.76562-.6198-2.1771t.625-2.1927 1.7396-.78125q1.1615 0 1.7812.84375h.0677l-.0365-.41146-.0208-.40104v-2.3229h.86459v8.1042h-.70313zm-1.7292.14583q.88542 0 1.2812-.47917.40104-.48437.40104-1.5573v-.18229q0-1.2135-.40625-1.7292-.40104-.52083-1.2864-.52083-.76042 0-1.1667.59375-.40104.58854-.40104 1.6667 0 1.0938.40104 1.651t1.1771.55729z"/>
    <path d="m680.8 647.63q0 1.3958-.70313 2.1823-.70312.78125-1.9427.78125-.76562 0-1.3594-.35938-.59375-.35937-.91667-1.0312-.32292-.67187-.32292-1.5729 0-1.3958.69792-2.1719.69792-.78125 1.9375-.78125 1.1979 0 1.901.79688.70834.79687.70834 2.1562zm-4.349 0q0 1.0938.4375 1.6667.4375.57292 1.2865.57292.84895 0 1.2864-.56771.44271-.57291.44271-1.6719 0-1.0886-.44271-1.651-.4375-.5677-1.2969-.5677-.84896 0-1.2812.55729t-.43229 1.6615z"/>
    <path d="m683.12 644.78v3.7031q0 .69792.31771 1.0417t.99479.34375q.89584 0 1.3073-.48958.41667-.48959.41667-1.599v-3h.86458v5.7083h-.71354l-.125-.76562h-.0469q-.26563.42187-.73959.64583-.46875.22396-1.0729.22396-1.0417 0-1.5625-.49479-.51563-.49479-.51563-1.5833v-3.7344z"/>
    <path d="m690.7 649.88q.22916 0 .44271-.0312.21354-.0365.33854-.0729v.66146q-.14063.0677-.41667.10937-.27083.0469-.48958.0469-1.6562 0-1.6562-1.7448v-3.3958h-.81771v-.41666l.81771-.35938.36458-1.2188h.5v1.3229h1.6562v.67187h-1.6562v3.3594q0 .51562.24479.79167.24479.27604.67188.27604z"/>
    <path d="m695.28 650.59q-.55729 0-1.0208-.20313-.45833-.20833-.77083-.63541h-.0625q.0625.5.0625.94791v2.349h-.86459v-8.2708h.70313l.11979.78125h.0417q.33333-.46875.77604-.67709.44271-.20833 1.0156-.20833 1.1354 0 1.75.77604.61979.77604.61979 2.1771 0 1.4062-.6302 2.1875-.625.77604-1.7396.77604zm-.125-5.1823q-.875 0-1.2656.48437-.39063.48438-.40104 1.5417v.19271q0 1.2031.40104 1.724.40104.51562 1.2865.51562.73958 0 1.1562-.59896.42187-.59896.42187-1.651 0-1.0677-.42187-1.6354-.41667-.57291-1.1771-.57291z"/>
    <path d="m699.98 644.78v3.7031q0 .69792.31771 1.0417t.99479.34375q.89584 0 1.3073-.48958.41666-.48959.41666-1.599v-3h.86459v5.7083h-.71355l-.125-.76562h-.0469q-.26563.42187-.73958.64583-.46875.22396-1.0729.22396-1.0417 0-1.5625-.49479-.51563-.49479-.51563-1.5833v-3.7344z"/>
    <path d="m707.55 649.88q.22917 0 .44271-.0312.21354-.0365.33854-.0729v.66146q-.14063.0677-.41667.10937-.27083.0469-.48958.0469-1.6562 0-1.6562-1.7448v-3.3958h-.81771v-.41666l.81771-.35938.36458-1.2188h.5v1.3229h1.6562v.67187h-1.6562v3.3594q0 .51562.24479.79167.2448.27604.67188.27604z"/>
    <path d="m709.35 649.94q0-.34896.15625-.52604.16146-.18229.45834-.18229.30208 0 .46875.18229.17187.17708.17187.52604 0 .33854-.17187.52083-.17188.18229-.46875.18229-.26563 0-.44271-.16145-.17188-.16667-.17188-.54167z"/>
   </g>
   <g transform="matrix(.26458 0 0 .26458 29.717 -14.705)" fill="none" stroke="#e9e9e9" data-name="&lt;Group&gt;">
    <path d="m83.352 372.67v-15.702c0-5.54 4.46-10.001 10-10.001 49.335-2e-5 103.43 4e-5 152.76-1e-5 5.5404 0 10.001-4.4603 10.001-10.001v-31.374" fill="none" marker-end="url(#e)" stroke="#666" stroke-width="1.3795"/>
   </g>
   <path d="m77.27 77.096c-1.4659-.000226-2.646-1.1801-2.646-2.646-5e-6-8.1649-3e-6-8.892-4e-6-17.057 0-1.4659-1.1801-2.646-2.646-2.646h-5.9667" fill="none" opacity=".974" stroke="#666" stroke-width=".365"/>
  </g>
  <g transform="matrix(.28591 0 0 .28591 32.207 -8.2839)">
   <g transform="matrix(.35278 0 0 .35278 62.089 125.8)" fill="#666">
    <use x="-1.6388" y="31.248199" width="100%" height="100%" fill="#666666" xlink:href="#c"/>
   </g>
   <g transform="matrix(.35278 0 0 .35278 62.089 125.8)" fill="#656565" fill-opacity=".99608">
    <use x="19.0252" y="16.441401" width="100%" height="100%" fill="#656565" fill-opacity=".99608" xlink:href="#b"/>
   </g>
   <g transform="matrix(.35278 0 0 .35278 62.089 125.8)" fill="#666">
    <use x="19.0252" y="40.115002" width="100%" height="100%" fill="#666666" xlink:href="#a"/>
   </g>
  </g>
  <rect x="72.695" y="69.075" width="3.7325" height="1.4647" rx="0" ry="0" fill="#f0f0f5"/>
  <g transform="matrix(.26458 0 0 .26458 29.717 -27.276)" fill="none" stroke="#666" stroke-width="1.3795" data-name="&lt;Group&gt;">
   <path d="m198.38 336.96v-56.105"/>
   <path d="m83.135 366.96c26.956-4e-5 78.289 5e-5 105.24 0 5.5404 0 10.001-4.4603 10.001-10.001v-4.1055" marker-end="url(#h)"/>
  </g>
  <g transform="translate(44.031 -118.56)">
   <g stroke-width=".356">
    <circle cx="53.454" cy="180.77" r="3.2" fill="#f0f0f5" stroke="#f0f0f5"/>
    <circle cx="53.454" cy="180.77" r="2.822" fill="#e0cef5" stroke="#666"/>
    <text x="52.1124" y="181.86954" fill="#666666" font-family="sans-serif" font-size="10.583px" letter-spacing="0px" word-spacing="0px" style="line-height:125%" xml:space="preserve"><tspan x="52.1124" y="181.86954" fill="#666666" font-family="'Open Sans'" font-size="3.8806px" stroke-width=".356"><tspan baseline-shift="sub" font-family="'Open Sans'" font-size="2.1167px"/></tspan></text>
   </g>
  </g>
  <path d="m66.927 69.766v-3.3539" fill="none" marker-end="url(#d)" opacity=".974" stroke="#666" stroke-width=".365"/>
  <g transform="translate(13.466 -118.56)">
   <g stroke-width=".356">
    <circle cx="53.454" cy="180.77" r="3.2" fill="#f0f0f5" stroke="#f0f0f5"/>
    <circle cx="53.454" cy="180.77" r="2.822" fill="#e0cef5" stroke="#666"/>
    <text x="52.1124" y="181.86954" fill="#666666" font-family="sans-serif" font-size="10.583px" letter-spacing="0px" word-spacing="0px" style="line-height:125%" xml:space="preserve"><tspan x="52.1124" y="181.86954" fill="#666666" font-family="'Open Sans'" font-size="3.8806px" stroke-width=".356"><tspan baseline-shift="sub" font-family="'Open Sans'" font-size="2.1167px"/></tspan></text>
   </g>
  </g>
  <g transform="translate(13.491 -118.58)">
   <circle cx="53.454" cy="173.36" r="3.2" fill="#f0f0f5" stroke="#f0f0f5" stroke-width=".356"/>
   <circle cx="53.454" cy="173.36" r="2.822" fill="#e0cef5" stroke="#666" stroke-width=".356"/>
   <circle cx="53.454" cy="173.36" r=".6" fill="#666"/>
  </g>
  <g transform="matrix(.26458 0 0 .26458 29.717 -44.467)" fill="none" stroke="#e9e9e9" data-name="&lt;Group&gt;"></g>
  <path d="m83.134 47.333h10.413" fill="none" marker-end="url(#i)" stroke="#666" stroke-width=".365"/>
  <g transform="translate(28.761 -126.01)">
   <circle cx="53.454" cy="173.36" r="3.2" fill="#f0f0f5" stroke="#f0f0f5" stroke-width=".356"/>
   <circle cx="53.454" cy="173.36" r="2.822" fill="#e0cef5" stroke="#666" stroke-width=".356"/>
   <circle cx="53.454" cy="173.36" r=".6" fill="#666"/>
  </g>
  <g transform="translate(44.031 -118.6)">
   <circle cx="53.454" cy="165.95" r="3.2" fill="#f0f0f5" stroke="#f0f0f5" stroke-width=".356"/>
   <circle cx="53.454" cy="165.95" r="2.822" fill="#e0cef5" stroke="#666" stroke-width=".356"/>
   <g transform="translate(5.749 .71433)" fill="none" stroke="#666" stroke-width=".365">
    <path d="m46.633 165.24h2.1435"/>
    <path d="m47.705 164.16v2.1435"/>
   </g>
  </g>
  <path d="m82.549 62.288h3.6747c1.4659 0 2.6453-1.1801 2.646-2.646.000365-.74022.000611-1.4804.000427-2.2207 0-1.4659 1.1801-2.646 2.646-2.646h2.0984" fill="none" marker-end="url(#j)" opacity=".974" stroke="#666" stroke-width=".365"/>
  <g transform="translate(3.8295 4.9998)">
   <circle cx="78.386" cy="49.76" r="3.2" fill="#f0f0f5" stroke="#f0f0f5" stroke-width=".356"/>
   <circle cx="78.386" cy="49.76" r="2.822" fill="#e0cef5" stroke="#666" stroke-width=".356"/>
   <text x="77.123863" y="50.789658" fill="#666666" font-family="sans-serif" font-size="2.8222px" letter-spacing="0px" stroke-width=".165" word-spacing="0px" style="line-height:125%" xml:space="preserve"><tspan x="77.123863" y="50.789658" fill="#666666" font-family="'Open Sans'" stroke="#666666" stroke-width=".165">1-</tspan></text>
  </g>
  <g transform="translate(28.761 -118.56)">
   <g stroke-width=".356">
    <circle cx="53.454" cy="180.77" r="3.2" fill="#f0f0f5" stroke="#f0f0f5"/>
    <circle cx="53.454" cy="180.77" r="2.822" fill="#e0cef5" stroke="#666"/>
    <text x="52.1124" y="181.86954" fill="#666666" font-family="sans-serif" font-size="10.583px" letter-spacing="0px" word-spacing="0px" style="line-height:125%" xml:space="preserve"><tspan x="52.1124" y="181.86954" fill="#666666" font-family="'Open Sans'" font-size="3.8806px" stroke-width=".356"><tspan baseline-shift="sub" font-family="'Open Sans'" font-size="2.1167px"/></tspan></text>
   </g>
  </g>
  <g transform="translate(44.031 -118.58)">
   <circle cx="53.454" cy="173.36" r="3.2" fill="#f0f0f5" stroke="#f0f0f5" stroke-width=".356"/>
   <circle cx="53.454" cy="173.36" r="2.822" fill="#e0cef5" stroke="#666" stroke-width=".356"/>
   <circle cx="53.454" cy="173.36" r=".6" fill="#666"/>
  </g>
  <g fill="none" stroke="#666" stroke-width=".365">
   <path d="m51.724 54.747h11.258" marker-end="url(#g)" opacity=".974"/>
   <path d="m59.338 77.125c.000365-.74022.000111-3.9264-7.3e-5-4.6666 0-1.4659 1.1801-2.646 2.646-2.646" opacity=".974"/>
   <path d="m78.334 62.147-1.3415-.000477v11.113h36.9v-12.7" stroke-dasharray="0.365, 0.73"/>
  </g>
 </g>
</svg>
