<?xml version="1.0" encoding="UTF-8"?>
<svg width="141.57mm" height="66.959mm" version="1.1" viewBox="0 0 141.57474 66.958977" xmlns="http://www.w3.org/2000/svg" xmlns:xlink="http://www.w3.org/1999/xlink">
 <defs>
  <marker id="g" overflow="visible" orient="auto">
   <path transform="scale(-.6)" d="m8.7186 4.0337-10.926-4.0177 10.926-4.0177c-1.7455 2.3721-1.7354 5.6175-6e-7 8.0354z" fill="#666" fill-rule="evenodd" stroke="#666" stroke-linejoin="round" stroke-width=".625"/>
  </marker>
  <marker id="h" overflow="visible" orient="auto">
   <path transform="scale(-.6)" d="m8.7186 4.0337-10.926-4.0177 10.926-4.0177c-1.7455 2.3721-1.7354 5.6175-6e-7 8.0354z" fill="#666" fill-rule="evenodd" stroke="#666" stroke-linejoin="round" stroke-width=".625"/>
  </marker>
  <marker id="i" overflow="visible" orient="auto">
   <path transform="scale(-.6)" d="m8.7186 4.0337-10.926-4.0177 10.926-4.0177c-1.7455 2.3721-1.7354 5.6175-6e-7 8.0354z" fill="#666" fill-rule="evenodd" stroke="#666" stroke-linejoin="round" stroke-width=".625"/>
  </marker>
  <marker id="j" overflow="visible" orient="auto">
   <path transform="scale(-.6)" d="m8.7186 4.0337-10.926-4.0177 10.926-4.0177c-1.7455 2.3721-1.7354 5.6175-6e-7 8.0354z" fill="#666" fill-rule="evenodd" stroke="#666" stroke-linejoin="round" stroke-width=".625"/>
  </marker>
  <marker id="e" overflow="visible" orient="auto">
   <path transform="scale(-.6)" d="m8.7186 4.0337-10.926-4.0177 10.926-4.0177c-1.7455 2.3721-1.7354 5.6175-6e-7 8.0354z" fill="#666" fill-rule="evenodd" stroke="#666" stroke-linejoin="round" stroke-width=".625"/>
  </marker>
  <marker id="f" overflow="visible" orient="auto">
   <path transform="scale(-.6)" d="m8.7186 4.0337-10.926-4.0177 10.926-4.0177c-1.7455 2.3721-1.7354 5.6175-6e-7 8.0354z" fill="#666" fill-rule="evenodd" stroke="#666" stroke-linejoin="round" stroke-width=".625"/>
  </marker>
  <marker id="d" overflow="visible" orient="auto">
   <path transform="scale(-.6)" d="m8.7186 4.0337-10.926-4.0177 10.926-4.0177c-1.7455 2.3721-1.7354 5.6175-6e-7 8.0354z" fill="#666" fill-rule="evenodd" stroke="#666" stroke-linejoin="round" stroke-width=".625"/>
  </marker>
  <symbol id="c" overflow="visible">
   <path d="m10.297-24.484c0-.04687 0-.40625-.46875-.40625-.82812 0-3.4375.29688-4.375.35938-.29688.04687-.6875.07813-.6875.71875 0 .4375.32812.4375.85938.4375 1.7188 0 1.7969.25 1.7969.60938l-.10938.71875-5.2031 20.641c-.14062.51562-.14062.57812-.14062.79688 0 .82812.71875 1 1.0469 1 .5625 0 1.1406-.42188 1.3281-.92188l.67188-2.7344.79688-3.2188c.21875-.79688.42188-1.5781.60938-2.4062.0625-.21875.35938-1.4062.39062-1.6094.10938-.32812 1.2188-2.3438 2.4375-3.3125.79688-.5625 1.9062-1.25 3.4375-1.25 1.5469 0 1.9375 1.2188 1.9375 2.5156 0 1.9375-1.3594 5.8438-2.2188 8.0312-.28125.82812-.46875 1.25-.46875 1.9688 0 1.6875 1.2656 2.9375 2.9375 2.9375 3.375 0 4.7031-5.2344 4.7031-5.5156 0-.35938-.32812-.35938-.42188-.35938-.35938 0-.35938.10938-.54688.64062-.53125 1.9062-1.6875 4.4531-3.6562 4.4531-.60938 0-.85938-.35938-.85938-1.1875 0-.89062.32812-1.75.64062-2.5469.57812-1.5469 2.1875-5.8125 2.1875-7.8906 0-2.3281-1.4375-3.8281-4.125-3.8281-2.25 0-3.9688 1.1094-5.2969 2.75z"/>
  </symbol>
  <symbol id="b" overflow="visible">
   <path d="m6.1719-9.9219h2.5625c.48438 0 .8125 0 .8125-.54688 0-.35938-.32812-.35938-.76562-.35938h-2.375l.92188-3.7031c.03125-.125.078125-.26562.078125-.35938 0-.45312-.34375-.79688-.85938-.79688-.625 0-1 .42188-1.1719 1.0781-.17188.625.15625-.57812-.95312 3.7812h-2.5625c-.48438 0-.8125 0-.8125.5625 0 .34375.3125.34375.76562.34375h2.375l-1.4688 5.9219c-.15625.64062-.39062 1.5469-.39062 1.8594 0 1.4844 1.2656 2.3906 2.6875 2.3906 2.7969 0 4.375-3.5156 4.375-3.8438s-.32812-.32812-.40625-.32812c-.29688 0-.32812.0625-.51562.48438-.70312 1.5781-1.9844 2.9844-3.375 2.9844-.53125 0-.875-.32812-.875-1.2344 0-.25.09375-.76562.15625-1.0312z"/>
  </symbol>
  <symbol id="a" overflow="visible">
   <path d="m2.9844-3.4375c.25 1.625 1.0781 3.7344 3.2188 3.7344.79688 0 1.7031-.32812 2.6094-.90625.42188-.25 1.7344-1.1719 1.7344-1.4688 0-.15625-.17188-.48438-.40625-.48438-.125 0-.17188 0-.54688.375-1.0781.95312-2.2344 1.7812-3.3594 1.7812-1.7188 0-1.7188-2.9375-1.7188-3.4062 0-.32812 0-.375.046875-.85938.03125-.25.03125-.29688.32812-.57812 1.3906-1.2969 6.125-5.875 6.125-10.25 0-.375 0-2.1719-1.6562-2.1719-2.0781 0-3.7656 3.2344-4.1562 3.9844-1.1094 2.1406-1.6875 4.2031-1.9688 5.4531-.375 1.6875-.375 2.5625-.375 3.7969-.17188.17188-1.6094 1.4531-1.8594 1.6562-.39062.34375-.42188.375-.42188.51562 0 .1875.21875.45312.42188.45312.1875 0 .85938-.625 1.0312-.79688zm1.8125-2.8594c.45312-2.5625 2.4375-10.672 4.5469-10.672.57812 0 .875.39062.875 1.2969 0 .3125 0 2.5469-2.1562 5.625-1.2812 1.8125-2.6562 3.1719-3.2656 3.75z"/>
  </symbol>
  <symbol id="y" overflow="visible">
   <path d="m10.297-24.484c0-.04687 0-.40625-.46875-.40625-.82812 0-3.4375.29688-4.375.35938-.29688.04687-.6875.07813-.6875.71875 0 .4375.32812.4375.85938.4375 1.7188 0 1.7969.25 1.7969.60938l-.10938.71875-5.2031 20.641c-.14062.51562-.14062.57812-.14062.79688 0 .82812.71875 1 1.0469 1 .5625 0 1.1406-.42188 1.3281-.92188l.67188-2.7344.79688-3.2188c.21875-.79688.42188-1.5781.60938-2.4062.0625-.21875.35938-1.4062.39062-1.6094.10938-.32812 1.2188-2.3438 2.4375-3.3125.79688-.5625 1.9062-1.25 3.4375-1.25 1.5469 0 1.9375 1.2188 1.9375 2.5156 0 1.9375-1.3594 5.8438-2.2188 8.0312-.28125.82812-.46875 1.25-.46875 1.9688 0 1.6875 1.2656 2.9375 2.9375 2.9375 3.375 0 4.7031-5.2344 4.7031-5.5156 0-.35938-.32812-.35938-.42188-.35938-.35938 0-.35938.10938-.54688.64062-.53125 1.9062-1.6875 4.4531-3.6562 4.4531-.60938 0-.85938-.35938-.85938-1.1875 0-.89062.32812-1.75.64062-2.5469.57812-1.5469 2.1875-5.8125 2.1875-7.8906 0-2.3281-1.4375-3.8281-4.125-3.8281-2.25 0-3.9688 1.1094-5.2969 2.75z"/>
  </symbol>
  <symbol id="u" overflow="visible">
   <path d="m6.1719-9.9219h2.5625c.48438 0 .8125 0 .8125-.54688 0-.35938-.32812-.35938-.76562-.35938h-2.375l.92188-3.7031c.03125-.125.078125-.26562.078125-.35938 0-.45312-.34375-.79688-.85938-.79688-.625 0-1 .42188-1.1719 1.0781-.17188.625.15625-.57812-.95312 3.7812h-2.5625c-.48438 0-.8125 0-.8125.5625 0 .34375.3125.34375.76562.34375h2.375l-1.4688 5.9219c-.15625.64062-.39062 1.5469-.39062 1.8594 0 1.4844 1.2656 2.3906 2.6875 2.3906 2.7969 0 4.375-3.5156 4.375-3.8438s-.32812-.32812-.40625-.32812c-.29688 0-.32812.0625-.51562.48438-.70312 1.5781-1.9844 2.9844-3.375 2.9844-.53125 0-.875-.32812-.875-1.2344 0-.25.09375-.76562.15625-1.0312z"/>
  </symbol>
  <symbol id="t" overflow="visible">
   <path d="m2.9844-3.4375c.25 1.625 1.0781 3.7344 3.2188 3.7344.79688 0 1.7031-.32812 2.6094-.90625.42188-.25 1.7344-1.1719 1.7344-1.4688 0-.15625-.17188-.48438-.40625-.48438-.125 0-.17188 0-.54688.375-1.0781.95312-2.2344 1.7812-3.3594 1.7812-1.7188 0-1.7188-2.9375-1.7188-3.4062 0-.32812 0-.375.046875-.85938.03125-.25.03125-.29688.32812-.57812 1.3906-1.2969 6.125-5.875 6.125-10.25 0-.375 0-2.1719-1.6562-2.1719-2.0781 0-3.7656 3.2344-4.1562 3.9844-1.1094 2.1406-1.6875 4.2031-1.9688 5.4531-.375 1.6875-.375 2.5625-.375 3.7969-.17188.17188-1.6094 1.4531-1.8594 1.6562-.39062.34375-.42188.375-.42188.51562 0 .1875.21875.45312.42188.45312.1875 0 .85938-.625 1.0312-.79688zm1.8125-2.8594c.45312-2.5625 2.4375-10.672 4.5469-10.672.57812 0 .875.39062.875 1.2969 0 .3125 0 2.5469-2.1562 5.625-1.2812 1.8125-2.6562 3.1719-3.2656 3.75z"/>
  </symbol>
  <symbol id="p" overflow="visible">
   <path d="m18.688-5.6719c.39062 0 1 0 1-.60938 0-.625-.57812-.625-1-.625h-14.969c-.40625 0-1 0-1 .60938 0 .625.57812.625 1 .625z"/>
  </symbol>
  <symbol id="m" overflow="visible">
   <path d="m8.4062-15.969c0-.67188-.046875-.70312-.75-.70312-1.6094 1.5781-3.8906 1.6094-4.9219 1.6094v.90625c.60938 0 2.2656 0 3.6406-.70312v12.797c0 .82812 0 1.1562-2.5156 1.1562h-.95312v.90625c.45312-.03125 3.5469-.09375 4.4688-.09375.78125 0 3.9531.0625 4.5.09375v-.90625h-.95312c-2.5156 0-2.5156-.32812-2.5156-1.1562z"/>
  </symbol>
  <symbol id="aa" overflow="visible">
   <path d="m10.297-24.484c0-.04687 0-.40625-.46875-.40625-.82812 0-3.4375.29688-4.375.35938-.29688.04687-.6875.07813-.6875.71875 0 .4375.32812.4375.85938.4375 1.7188 0 1.7969.25 1.7969.60938l-.10938.71875-5.2031 20.641c-.14062.51562-.14062.57812-.14062.79688 0 .82812.71875 1 1.0469 1 .5625 0 1.1406-.42188 1.3281-.92188l.67188-2.7344.79688-3.2188c.21875-.79688.42188-1.5781.60938-2.4062.0625-.21875.35938-1.4062.39062-1.6094.10938-.32812 1.2188-2.3438 2.4375-3.3125.79688-.5625 1.9062-1.25 3.4375-1.25 1.5469 0 1.9375 1.2188 1.9375 2.5156 0 1.9375-1.3594 5.8438-2.2188 8.0312-.28125.82812-.46875 1.25-.46875 1.9688 0 1.6875 1.2656 2.9375 2.9375 2.9375 3.375 0 4.7031-5.2344 4.7031-5.5156 0-.35938-.32812-.35938-.42188-.35938-.35938 0-.35938.10938-.54688.64062-.53125 1.9062-1.6875 4.4531-3.6562 4.4531-.60938 0-.85938-.35938-.85938-1.1875 0-.89062.32812-1.75.64062-2.5469.57812-1.5469 2.1875-5.8125 2.1875-7.8906 0-2.3281-1.4375-3.8281-4.125-3.8281-2.25 0-3.9688 1.1094-5.2969 2.75z"/>
  </symbol>
  <symbol id="x" overflow="visible">
   <path d="m6.1719-9.9219h2.5625c.48438 0 .8125 0 .8125-.54688 0-.35938-.32812-.35938-.76562-.35938h-2.375l.92188-3.7031c.03125-.125.078125-.26562.078125-.35938 0-.45312-.34375-.79688-.85938-.79688-.625 0-1 .42188-1.1719 1.0781-.17188.625.15625-.57812-.95312 3.7812h-2.5625c-.48438 0-.8125 0-.8125.5625 0 .34375.3125.34375.76562.34375h2.375l-1.4688 5.9219c-.15625.64062-.39062 1.5469-.39062 1.8594 0 1.4844 1.2656 2.3906 2.6875 2.3906 2.7969 0 4.375-3.5156 4.375-3.8438s-.32812-.32812-.40625-.32812c-.29688 0-.32812.0625-.51562.48438-.70312 1.5781-1.9844 2.9844-3.375 2.9844-.53125 0-.875-.32812-.875-1.2344 0-.25.09375-.76562.15625-1.0312z"/>
  </symbol>
  <symbol id="r" overflow="visible">
   <path d="m2.9844-3.4375c.25 1.625 1.0781 3.7344 3.2188 3.7344.79688 0 1.7031-.32812 2.6094-.90625.42188-.25 1.7344-1.1719 1.7344-1.4688 0-.15625-.17188-.48438-.40625-.48438-.125 0-.17188 0-.54688.375-1.0781.95312-2.2344 1.7812-3.3594 1.7812-1.7188 0-1.7188-2.9375-1.7188-3.4062 0-.32812 0-.375.046875-.85938.03125-.25.03125-.29688.32812-.57812 1.3906-1.2969 6.125-5.875 6.125-10.25 0-.375 0-2.1719-1.6562-2.1719-2.0781 0-3.7656 3.2344-4.1562 3.9844-1.1094 2.1406-1.6875 4.2031-1.9688 5.4531-.375 1.6875-.375 2.5625-.375 3.7969-.17188.17188-1.6094 1.4531-1.8594 1.6562-.39062.34375-.42188.375-.42188.51562 0 .1875.21875.45312.42188.45312.1875 0 .85938-.625 1.0312-.79688zm1.8125-2.8594c.45312-2.5625 2.4375-10.672 4.5469-10.672.57812 0 .875.39062.875 1.2969 0 .3125 0 2.5469-2.1562 5.625-1.2812 1.8125-2.6562 3.1719-3.2656 3.75z"/>
  </symbol>
  <symbol id="o" overflow="visible">
   <path d="m18.688-5.6719c.39062 0 1 0 1-.60938 0-.625-.57812-.625-1-.625h-14.969c-.40625 0-1 0-1 .60938 0 .625.57812.625 1 .625z"/>
  </symbol>
  <symbol id="k" overflow="visible">
   <path d="m8.4062-15.969c0-.67188-.046875-.70312-.75-.70312-1.6094 1.5781-3.8906 1.6094-4.9219 1.6094v.90625c.60938 0 2.2656 0 3.6406-.70312v12.797c0 .82812 0 1.1562-2.5156 1.1562h-.95312v.90625c.45312-.03125 3.5469-.09375 4.4688-.09375.78125 0 3.9531.0625 4.5.09375v-.90625h-.95312c-2.5156 0-2.5156-.32812-2.5156-1.1562z"/>
  </symbol>
  <symbol id="z" overflow="visible">
   <path d="m14.203-13.625c-.57812 0-1.0781 0-1.5781.5-.57812.53125-.64062 1.1406-.64062 1.4062 0 .85938.64062 1.25 1.3125 1.25 1.0469 0 2.0156-.85938 2.0156-2.2969 0-1.75-1.6875-3.0781-4.2344-3.0781-4.8438 0-9.6094 5.125-9.6094 10.172 0 3.2344 2.0781 6.0625 5.8125 6.0625 5.125 0 8.1406-3.7969 8.1406-4.2344 0-.20312-.21875-.45312-.4375-.45312-.17188 0-.25.0625-.46875.35938-2.8281 3.5469-6.7344 3.5469-7.1719 3.5469-2.25 0-3.2188-1.7656-3.2188-3.9062 0-1.4688.71875-4.9531 1.9375-7.1719 1.1094-2.0469 3.0781-3.5938 5.0469-3.5938 1.2188 0 2.5938.46875 3.0938 1.4375z"/>
  </symbol>
  <symbol id="v" overflow="visible">
   <path d="m6.1719-9.9219h2.5625c.48438 0 .8125 0 .8125-.54688 0-.35938-.32812-.35938-.76562-.35938h-2.375l.92188-3.7031c.03125-.125.078125-.26562.078125-.35938 0-.45312-.34375-.79688-.85938-.79688-.625 0-1 .42188-1.1719 1.0781-.17188.625.15625-.57812-.95312 3.7812h-2.5625c-.48438 0-.8125 0-.8125.5625 0 .34375.3125.34375.76562.34375h2.375l-1.4688 5.9219c-.15625.64062-.39062 1.5469-.39062 1.8594 0 1.4844 1.2656 2.3906 2.6875 2.3906 2.7969 0 4.375-3.5156 4.375-3.8438s-.32812-.32812-.40625-.32812c-.29688 0-.32812.0625-.51562.48438-.70312 1.5781-1.9844 2.9844-3.375 2.9844-.53125 0-.875-.32812-.875-1.2344 0-.25.09375-.76562.15625-1.0312z"/>
  </symbol>
  <symbol id="q" overflow="visible">
   <path d="m2.9844-3.4375c.25 1.625 1.0781 3.7344 3.2188 3.7344.79688 0 1.7031-.32812 2.6094-.90625.42188-.25 1.7344-1.1719 1.7344-1.4688 0-.15625-.17188-.48438-.40625-.48438-.125 0-.17188 0-.54688.375-1.0781.95312-2.2344 1.7812-3.3594 1.7812-1.7188 0-1.7188-2.9375-1.7188-3.4062 0-.32812 0-.375.046875-.85938.03125-.25.03125-.29688.32812-.57812 1.3906-1.2969 6.125-5.875 6.125-10.25 0-.375 0-2.1719-1.6562-2.1719-2.0781 0-3.7656 3.2344-4.1562 3.9844-1.1094 2.1406-1.6875 4.2031-1.9688 5.4531-.375 1.6875-.375 2.5625-.375 3.7969-.17188.17188-1.6094 1.4531-1.8594 1.6562-.39062.34375-.42188.375-.42188.51562 0 .1875.21875.45312.42188.45312.1875 0 .85938-.625 1.0312-.79688zm1.8125-2.8594c.45312-2.5625 2.4375-10.672 4.5469-10.672.57812 0 .875.39062.875 1.2969 0 .3125 0 2.5469-2.1562 5.625-1.2812 1.8125-2.6562 3.1719-3.2656 3.75z"/>
  </symbol>
  <symbol id="ab" overflow="visible">
   <path d="m14.203-13.625c-.57812 0-1.0781 0-1.5781.5-.57812.53125-.64062 1.1406-.64062 1.4062 0 .85938.64062 1.25 1.3125 1.25 1.0469 0 2.0156-.85938 2.0156-2.2969 0-1.75-1.6875-3.0781-4.2344-3.0781-4.8438 0-9.6094 5.125-9.6094 10.172 0 3.2344 2.0781 6.0625 5.8125 6.0625 5.125 0 8.1406-3.7969 8.1406-4.2344 0-.20312-.21875-.45312-.4375-.45312-.17188 0-.25.0625-.46875.35938-2.8281 3.5469-6.7344 3.5469-7.1719 3.5469-2.25 0-3.2188-1.7656-3.2188-3.9062 0-1.4688.71875-4.9531 1.9375-7.1719 1.1094-2.0469 3.0781-3.5938 5.0469-3.5938 1.2188 0 2.5938.46875 3.0938 1.4375z"/>
  </symbol>
  <symbol id="w" overflow="visible">
   <path d="m6.1719-9.9219h2.5625c.48438 0 .8125 0 .8125-.54688 0-.35938-.32812-.35938-.76562-.35938h-2.375l.92188-3.7031c.03125-.125.078125-.26562.078125-.35938 0-.45312-.34375-.79688-.85938-.79688-.625 0-1 .42188-1.1719 1.0781-.17188.625.15625-.57812-.95312 3.7812h-2.5625c-.48438 0-.8125 0-.8125.5625 0 .34375.3125.34375.76562.34375h2.375l-1.4688 5.9219c-.15625.64062-.39062 1.5469-.39062 1.8594 0 1.4844 1.2656 2.3906 2.6875 2.3906 2.7969 0 4.375-3.5156 4.375-3.8438s-.32812-.32812-.40625-.32812c-.29688 0-.32812.0625-.51562.48438-.70312 1.5781-1.9844 2.9844-3.375 2.9844-.53125 0-.875-.32812-.875-1.2344 0-.25.09375-.76562.15625-1.0312z"/>
  </symbol>
  <symbol id="s" overflow="visible">
   <path d="m2.9844-3.4375c.25 1.625 1.0781 3.7344 3.2188 3.7344.79688 0 1.7031-.32812 2.6094-.90625.42188-.25 1.7344-1.1719 1.7344-1.4688 0-.15625-.17188-.48438-.40625-.48438-.125 0-.17188 0-.54688.375-1.0781.95312-2.2344 1.7812-3.3594 1.7812-1.7188 0-1.7188-2.9375-1.7188-3.4062 0-.32812 0-.375.046875-.85938.03125-.25.03125-.29688.32812-.57812 1.3906-1.2969 6.125-5.875 6.125-10.25 0-.375 0-2.1719-1.6562-2.1719-2.0781 0-3.7656 3.2344-4.1562 3.9844-1.1094 2.1406-1.6875 4.2031-1.9688 5.4531-.375 1.6875-.375 2.5625-.375 3.7969-.17188.17188-1.6094 1.4531-1.8594 1.6562-.39062.34375-.42188.375-.42188.51562 0 .1875.21875.45312.42188.45312.1875 0 .85938-.625 1.0312-.79688zm1.8125-2.8594c.45312-2.5625 2.4375-10.672 4.5469-10.672.57812 0 .875.39062.875 1.2969 0 .3125 0 2.5469-2.1562 5.625-1.2812 1.8125-2.6562 3.1719-3.2656 3.75z"/>
  </symbol>
  <symbol id="n" overflow="visible">
   <path d="m18.688-5.6719c.39062 0 1 0 1-.60938 0-.625-.57812-.625-1-.625h-14.969c-.40625 0-1 0-1 .60938 0 .625.57812.625 1 .625z"/>
  </symbol>
  <symbol id="l" overflow="visible">
   <path d="m8.4062-15.969c0-.67188-.046875-.70312-.75-.70312-1.6094 1.5781-3.8906 1.6094-4.9219 1.6094v.90625c.60938 0 2.2656 0 3.6406-.70312v12.797c0 .82812 0 1.1562-2.5156 1.1562h-.95312v.90625c.45312-.03125 3.5469-.09375 4.4688-.09375.78125 0 3.9531.0625 4.5.09375v-.90625h-.95312c-2.5156 0-2.5156-.32812-2.5156-1.1562z"/>
  </symbol>
 </defs>
 <g transform="translate(-7.6046 -21.666)">
  <g transform="matrix(.26458 0 0 .26458 34.903 -87.557)" data-name="&lt;Group&gt;">
   <rect x="42.34" y="449.41" width="241.85" height="164.72" rx="10" ry="10" fill="#f0f0f5" stroke="#e9e9e9" stroke-width="1.3795"/>
  </g>
  <g fill="none">
   <path d="m58.235 66.358h-16.442v-7.1437" stroke="#666" stroke-dasharray="0.365, 0.73" stroke-width=".365"/>
   <g stroke="#e9e9e9">
    <g transform="matrix(.26458 0 0 -.26458 29.717 126.79)" data-name="&lt;Group&gt;">
     <path d="m285.14 206.42v130.43c0 5.54-4.46 9.998-10 9.9981-60.595.002-121.19.004-181.79.004-5.54 0-10 4.5287-10 10.069v15.742" fill="none" marker-end="url(#i)" stroke="#666" stroke-width="1.3795"/>
    </g>
    <g transform="matrix(.26458 0 0 .26458 74.133 -53.161)" stroke-width="1.0016" data-name="&lt;Group&gt;">
     <path d="m82.998 354.98v108.43c0 5.54 4.46 10 10 10h58.47" fill="none" marker-end="url(#j)" stroke="#666" stroke-width="1.3795"/>
    </g>
    <g transform="matrix(.26458 0 0 .26458 65.15 -34.341)" data-name="&lt;Group&gt;">
     <path d="m83.352 375.65v-18.77c0-5.54 4.46-10 10-10h7.4151" fill="none" marker-end="url(#h)" stroke="#666" stroke-width="1.3795"/>
    </g>
    <g transform="matrix(.26458 0 0 .26458 46.98 -34.422)" data-name="&lt;Group&gt;">
     <path d="m83.352 402.67v-45.782c0-5.54 4.46-10 10-10h9.1404" fill="none" marker-end="url(#g)" stroke="#666" stroke-width="1.3795"/>
    </g>
   </g>
  </g>
  <rect x="103.22" y="39.904" width="3.7325" height="1.4647" rx="0" ry="0" fill="#f0f0f5"/>
  <g fill="none" stroke="#666" stroke-width=".365">
   <g>
    <path d="m43.089 40.647h71.12" marker-end="url(#f)"/>
    <path d="m78.114 72.085v-27.214" marker-end="url(#e)"/>
    <path d="m87.168 66.59v2.8607c0 1.4658-1.18 2.6453-2.6458 2.6453l-41.433.00053"/>
   </g>
   <path d="m87.852 65.975h27.025v-7.1437" stroke-dasharray="0.365, 0.73"/>
   <path d="m60.193 72.085v-27.214" marker-end="url(#d)"/>
  </g>
  <g transform="translate(24.657 -125.3)">
   <circle cx="53.454" cy="165.95" r="3.2" fill="#f0f0f5" stroke="#f0f0f5" stroke-width=".356"/>
   <circle cx="53.454" cy="165.95" r="2.822" fill="#e0cef5" stroke="#666" stroke-width=".356"/>
   <g transform="translate(5.749 .71433)" fill="none" stroke="#666" stroke-width=".365">
    <path d="m46.633 165.24h2.1435"/>
    <path d="m47.705 164.16v2.1435"/>
   </g>
  </g>
  <g transform="translate(6.7353 -132.71)">
   <circle cx="53.454" cy="173.36" r="3.2" fill="#f0f0f5" stroke="#f0f0f5" stroke-width=".356"/>
   <circle cx="53.454" cy="173.36" r="2.822" fill="#e0cef5" stroke="#666" stroke-width=".356"/>
   <circle cx="53.454" cy="173.36" r=".6" fill="#666"/>
  </g>
  <g transform="translate(42.578 -115.92)">
   <circle cx="53.454" cy="173.36" r="3.2" fill="#f0f0f5" stroke="#f0f0f5" stroke-width=".356"/>
   <circle cx="53.454" cy="173.36" r="2.822" fill="#e0cef5" stroke="#666" stroke-width=".356"/>
   <circle cx="53.454" cy="173.36" r=".6" fill="#666"/>
  </g>
  <g transform="translate(24.657 -115.92)">
   <circle cx="53.454" cy="173.36" r="3.2" fill="#f0f0f5" stroke="#f0f0f5" stroke-width=".356"/>
   <circle cx="53.454" cy="173.36" r="2.822" fill="#e0cef5" stroke="#666" stroke-width=".356"/>
   <circle cx="53.454" cy="173.36" r=".6" fill="#666"/>
  </g>
  <g transform="matrix(.28591 0 0 .28591 98.198 33.812)">
   <g transform="matrix(.35278 0 0 .35278 62.089 125.8)" fill="#666">
    <use x="-1.6388" y="31.248199" width="100%" height="100%" fill="#666666" xlink:href="#c"/>
   </g>
   <g transform="matrix(.35278 0 0 .35278 62.089 125.8)" fill="#656565" fill-opacity=".99608">
    <use x="19.0252" y="16.441401" width="100%" height="100%" fill="#656565" fill-opacity=".99608" xlink:href="#b"/>
   </g>
   <g transform="matrix(.35278 0 0 .35278 62.089 125.8)" fill="#666">
    <use x="19.0252" y="40.115002" width="100%" height="100%" fill="#666666" xlink:href="#a"/>
   </g>
  </g>
  <g transform="matrix(.26289 0 0 .26289 14.897 38.618)" fill="#666">
   <g transform="matrix(.35278 0 0 .35278 77.914 118.64)">
    <use x="-1.4084001" y="32.848202" width="100%" height="100%" fill="#666666" xlink:href="#y"/>
   </g>
   <g transform="matrix(.35278 0 0 .35278 77.914 118.64)">
    <use x="19.2556" y="17.5086" width="100%" height="100%" fill="#666666" xlink:href="#u"/>
   </g>
   <g transform="matrix(.35278 0 0 .35278 77.914 118.64)">
    <use x="30.0916" y="17.5086" width="100%" height="100%" fill="#666666" xlink:href="#p"/>
   </g>
   <g transform="matrix(.35278 0 0 .35278 77.914 118.64)">
    <use x="52.505199" y="17.5086" width="100%" height="100%" fill="#666666" xlink:href="#m"/>
   </g>
   <g transform="matrix(.35278 0 0 .35278 77.914 118.64)">
    <use x="19.2556" y="43.6698" width="100%" height="100%" fill="#666666" xlink:href="#t"/>
   </g>
  </g>
  <g transform="matrix(.28591 0 0 .28591 17.695 43.689)" fill="#666">
   <g transform="matrix(.35278 0 0 .35278 112.62 124.85)">
    <use x="-0.99519998" y="31.248199" width="100%" height="100%" fill="#666666" xlink:href="#aa"/>
   </g>
   <g transform="matrix(.35278 0 0 .35278 112.62 124.85)">
    <use x="19.6724" y="16.441401" width="100%" height="100%" fill="#666666" xlink:href="#x"/>
   </g>
   <g transform="matrix(.35278 0 0 .35278 112.62 124.85)">
    <use x="19.6724" y="40.115002" width="100%" height="100%" fill="#666666" xlink:href="#r"/>
   </g>
   <g transform="matrix(.35278 0 0 .35278 112.62 124.85)">
    <use x="31.674801" y="40.115002" width="100%" height="100%" fill="#666666" xlink:href="#o"/>
   </g>
   <g transform="matrix(.35278 0 0 .35278 112.62 124.85)">
    <use x="54.091999" y="40.115002" width="100%" height="100%" fill="#666666" xlink:href="#k"/>
   </g>
  </g>
  <g fill="#666" stroke-width="1px">
   <g transform="matrix(.26458 0 0 .26458 -149.18 -114.89)" aria-label="Forget Gate: controls how  much of the old cell value is used in the new cell value.">
    <path d="m597.55 615.76h-1.5886v-7.6146h4.3646v1.3229h-2.776v1.9635h2.5833v1.3177h-2.5833z"/>
    <path d="m602.95 612.84q0 .86458.28125 1.3073.28645.44271.92708.44271.63542 0 .91146-.4375.28125-.44271.28125-1.3125 0-.86458-.28125-1.2969-.28125-.4323-.92188-.4323-.63541 0-.91666.4323-.28125.42708-.28125 1.2969zm4.026 0q0 1.4219-.75 2.224t-2.0885.80208q-.83855 0-1.4792-.36458-.64063-.36979-.98438-1.0573t-.34375-1.6042q0-1.4271.7448-2.2188.74479-.79167 2.0938-.79167.83854 0 1.4792.36459.64063.36458.98438 1.0469t.34375 1.599z"/>
    <path d="m611.54 609.83q.32291 0 .53646.0469l-.1198 1.4896q-.1927-.0521-.46875-.0521-.76041 0-1.1875.39062-.42187.39063-.42187 1.0938v2.9636h-1.5885v-5.8229h1.2031l.23438.97917h.0781q.27084-.48959.72917-.78646.46354-.30209 1.0052-.30209z"/>
    <path d="m618.21 609.94v.80729l-.91146.23438q.25.39062.25.875 0 .9375-.65625 1.4635-.65104.52083-1.8125.52083l-.28645-.0156-.23438-.026q-.24479.1875-.24479.41667 0 .34375.875.34375h.98958q.95834 0 1.4583.41146.5052.41146.5052 1.2083 0 1.0208-.85416 1.5833-.84896.5625-2.4427.5625-1.2188 0-1.8646-.42709-.64063-.42187-.64063-1.1875 0-.52604.32813-.88021.32812-.35416.96354-.5052-.24479-.10417-.42709-.33855-.18229-.23958-.18229-.5052 0-.33334.19271-.55209.19271-.22396.55729-.4375-.45833-.19791-.72916-.63541-.26563-.4375-.26563-1.0312 0-.95313.61979-1.474.61979-.52084 1.7708-.52084.24479 0 .57812.0469.33854.0417.43229.0625zm-4.4948 6.6458q0 .32813.3125.51563.31771.1875.88542.1875.85416 0 1.3385-.23438.48437-.23437.48437-.64062 0-.32813-.28645-.45313-.28646-.125-.88542-.125h-.82292q-.4375 0-.73437.20313-.29167.20833-.29167.54687zm.57813-4.7396q0 .47396.21354.75.21875.27604.66146.27604.44791 0 .65625-.27604.20833-.27604.20833-.75 0-1.0521-.86458-1.0521-.875 0-.875 1.0521z"/>
    <path d="m621.58 610.96q-.50521 0-.79167.32292-.28646.31771-.32813.90625h2.2292q-.0104-.58854-.30729-.90625-.29688-.32292-.80208-.32292zm.22395 4.9062q-1.4062 0-2.1979-.77604-.79167-.77604-.79167-2.1979 0-1.4635.72917-2.2604.73437-.80209 2.026-.80209 1.2344 0 1.9219.70313.6875.70312.6875 1.9427v.77083h-3.7552q.026.67708.40104 1.0573.375.38021 1.0521.38021.52604 0 .99479-.10937.46875-.10938.97917-.34896v1.2292q-.41667.20834-.89063.3073-.47395.10416-1.1562.10416z"/>
    <path d="m627.93 614.6q.41667 0 1-.18229v1.1823q-.59375.26562-1.4583.26562-.95313 0-1.3906-.47916-.43229-.48438-.43229-1.4479v-2.8073h-.76041v-.67188l.875-.53125.45833-1.2292h1.0156v1.2396h1.6302v1.1927h-1.6302v2.8073q0 .33854.1875.5.19271.16146.50521.16146z"/>
    <path d="m635.89 611.49h3.0208v3.9479q-.73438.23958-1.3854.33333-.64583.099-1.3229.099-1.724 0-2.6354-1.0104-.90625-1.0156-.90625-2.9115 0-1.8438 1.0521-2.875 1.0573-1.0312 2.9271-1.0312 1.1719 0 2.2604.46875l-.53646 1.2917q-.83333-.41666-1.7344-.41666-1.0469 0-1.6771.70312-.63021.70313-.63021 1.8906 0 1.2396.50521 1.8958.51041.65104 1.4792.65104.50521 0 1.026-.10416v-1.5886h-1.4427z"/>
    <path d="m644.3 615.76-.3073-.79167h-.0417q-.40104.50521-.82813.70312-.42187.19271-1.1042.19271-.83855 0-1.3229-.47916-.47917-.47917-.47917-1.3646 0-.92708.64584-1.3646.65104-.44271 1.9583-.48958l1.0104-.0312v-.25526q0-.88542-.90625-.88542-.69792 0-1.6406.42188l-.52604-1.0729q1.0052-.52604 2.2292-.52604 1.1719 0 1.7969.51041.625.51042.625 1.5521v3.8802zm-.46875-2.6979-.61459.0208q-.69271.0208-1.0312.25-.33854.22917-.33854.69792 0 .67187.77083.67187.55209 0 .88021-.3177.33334-.31771.33334-.84375z"/>
    <path d="m649.49 614.6q.41667 0 1-.18229v1.1823q-.59375.26562-1.4583.26562-.95312 0-1.3906-.47916-.4323-.48438-.4323-1.4479v-2.8073h-.76041v-.67188l.875-.53125.45833-1.2292h1.0156v1.2396h1.6302v1.1927h-1.6302v2.8073q0 .33854.1875.5.1927.16146.5052.16146z"/>
    <path d="m654.08 610.96q-.50521 0-.79167.32292-.28646.31771-.32812.90625h2.2292q-.0104-.58854-.30729-.90625-.29687-.32292-.80208-.32292zm.22396 4.9062q-1.4062 0-2.1979-.77604t-.79167-2.1979q0-1.4635.72917-2.2604.73437-.80209 2.026-.80209 1.2344 0 1.9219.70313.6875.70312.6875 1.9427v.77083h-3.7552q.026.67708.40104 1.0573.375.38021 1.0521.38021.52604 0 .99479-.10937.46875-.10938.97917-.34896v1.2292q-.41667.20834-.89062.3073-.47396.10416-1.1562.10416z"/>
    <path d="m657.76 615.02q0-.4375.23438-.66145.23437-.22396.68229-.22396.43229 0 .66666.22916.23959.22917.23959.65625 0 .41146-.23959.65105-.23958.23437-.66666.23437-.4375 0-.67709-.22917-.23958-.23437-.23958-.65625zm0-4.3021q0-.4375.23438-.66146.23437-.22396.68229-.22396.43229 0 .66666.22917.23959.22917.23959.65625 0 .42188-.24479.65625-.23959.22917-.66146.22917-.4375 0-.67709-.22917-.23958-.22917-.23958-.65625z"/>
    <path d="m666.16 615.87q-1.2396 0-1.9219-.76041-.67709-.76563-.67709-2.1615 0-1.4323.6875-2.2135.69271-.78125 1.9688-.78125.41146 0 .82292.0885t.64583.20833l-.26562.73438q-.28646-.11459-.625-.1875-.33854-.0781-.59896-.0781-1.7396 0-1.7396 2.2188 0 1.0521.42187 1.6146.42709.5625 1.2604.5625.71354 0 1.4635-.30729v.76563q-.57292.29687-1.4427.29687z"/>
    <path d="m673.89 612.9q0 1.3958-.70312 2.1823-.70313.78125-1.9427.78125-.76563 0-1.3594-.35937-.59375-.35938-.91666-1.0312-.32292-.67188-.32292-1.5729 0-1.3958.69792-2.1719.69791-.78125 1.9375-.78125 1.1979 0 1.901.79687.70833.79688.70833 2.1562zm-4.349 0q0 1.0938.4375 1.6667.4375.57291 1.2865.57291t1.2865-.5677q.44271-.57292.44271-1.6719 0-1.0885-.44271-1.651-.4375-.56771-1.2969-.56771-.84896 0-1.2812.55729-.4323.55729-.4323 1.6615z"/>
    <path d="m679.3 615.76v-3.6927q0-.69792-.31771-1.0417t-.99479-.34375q-.89583 0-1.3125.48438-.41667.48437-.41667 1.599v2.9948h-.86458v-5.7083h.70312l.14063.78125h.0417q.26562-.42187.74479-.65104.47916-.23437 1.0677-.23437 1.0312 0 1.5521.5.52083.49479.52083 1.5885v3.724z"/>
    <path d="m683.78 615.15q.22917 0 .44271-.0312.21354-.0365.33854-.0729v.66146q-.14062.0677-.41666.10938-.27084.0469-.48959.0469-1.6562 0-1.6562-1.7448v-3.3958h-.81771v-.41667l.81771-.35947.36459-1.2188h.5v1.3229h1.6562v.67188h-1.6562v3.3594q0 .51563.24479.79167t.67187.27604z"/>
    <path d="m688.31 609.95q.3802 0 .68229.0625l-.11979.80208q-.35417-.0781-.625-.0781-.69271 0-1.1875.5625-.48959.5625-.48959 1.401v3.0625h-.86458v-5.7083h.71354l.099 1.0573h.0417q.3177-.55729.76562-.85937t.98438-.30208z"/>
    <path d="m694.99 612.9q0 1.3958-.70313 2.1823-.70312.78125-1.9427.78125-.76562 0-1.3594-.35937-.59375-.35938-.91667-1.0312-.32292-.67188-.32292-1.5729 0-1.3958.69792-2.1719.69792-.78125 1.9375-.78125 1.1979 0 1.901.79687.70834.79688.70834 2.1562zm-4.349 0q0 1.0938.4375 1.6667.4375.57291 1.2865.57291.84895 0 1.2864-.5677.44271-.57292.44271-1.6719 0-1.0885-.44271-1.651-.4375-.56771-1.2969-.56771-.84896 0-1.2812.55729t-.43229 1.6615z"/>
    <path d="m697.36 615.76h-.86459v-8.1042h.86459z"/>
    <path d="m702.89 614.21q0 .79688-.59375 1.2292t-1.6667.43229q-1.1354 0-1.7708-.35937v-.80209q.41146.20834.88021.32813.47396.11979.91146.11979.67708 0 1.0417-.21354.36459-.21875.36459-.66146 0-.33333-.29167-.56771-.28646-.23958-1.125-.5625-.79687-.29687-1.1354-.51562-.33333-.22396-.5-.50521-.16145-.28125-.16145-.67188 0-.69791.5677-1.099.56771-.40625 1.5573-.40625.92187 0 1.8021.375l-.30729.70312q-.85938-.35417-1.5573-.35417-.61459 0-.92709.19271t-.3125.53125q0 .22917.11459.39063.11979.16146.3802.30729.26042.14583 1 .42187 1.0156.3698 1.3698.7448.35937.375.35937.9427z"/>
    <path d="m710.97 615.76v-3.6927q0-.69792-.31771-1.0417-.3177-.34375-.99479-.34375-.90104 0-1.3177.48958-.41145.48959-.41145 1.6042v2.9844h-.86459v-8.1042h.86459v2.4531q0 .44271-.0417.73438h.0521q.25521-.41146.72396-.64583.47396-.23959 1.0781-.23959 1.0469 0 1.5677.5.52605.49479.52605 1.5781v3.724z"/>
    <path d="m718.53 612.9q0 1.3958-.70312 2.1823-.70313.78125-1.9427.78125-.76563 0-1.3594-.35937-.59375-.35938-.91666-1.0312-.32292-.67188-.32292-1.5729 0-1.3958.69792-2.1719.69791-.78125 1.9375-.78125 1.1979 0 1.901.79687.70833.79688.70833 2.1562zm-4.349 0q0 1.0938.4375 1.6667.4375.57291 1.2865.57291t1.2865-.5677q.44271-.57292.44271-1.6719 0-1.0885-.44271-1.651-.4375-.56771-1.2969-.56771-.84895 0-1.2812.55729-.43229.55729-.43229 1.6615z"/>
    <path d="m724.7 615.76-1.0469-3.349q-.099-.30729-.36979-1.3958h-.0417q-.20833.91146-.36458 1.4062l-1.0781 3.3386h-1l-1.5573-5.7083h.90625q.55209 2.151.83854 3.276.29167 1.125.33334 1.5156h.0417q.0573-.29688.1823-.76563.1302-.47395.22395-.75l1.0469-3.276h.9375l1.0208 3.276q.29167.89584.39584 1.5052h.0417q.0208-.1875.10938-.57812.0937-.39063 1.0885-4.2031h.89583l-1.5781 5.7083z"/>
    <path d="m605.96 633.13v-3.7135q0-.68229-.29166-1.0208-.29167-.34375-.90625-.34375-.8073 0-1.1927.46355-.38542.46354-.38542 1.4271v3.1875h-.86458v-3.7135q0-.68229-.29167-1.0208-.29167-.34375-.91146-.34375-.8125 0-1.1927.48959-.375.48437-.375 1.5938v2.9948h-.86458v-5.7083h.70313l.14062.78125h.0417q.24479-.41667.6875-.65105.44791-.23437 1-.23437 1.3385 0 1.75.96875h.0417q.25521-.44792.73959-.70833.48437-.26042 1.1042-.26042.96875 0 1.4479.5.48438.49479.48438 1.5885v3.724z"/>
    <path d="m609.42 627.42v3.7031q0 .69792.31771 1.0417.3177.34375.99479.34375.89583 0 1.3073-.48959.41667-.48958.41667-1.599v-3h.86458v5.7083h-.71354l-.125-.76563h-.0469q-.26562.42188-.73958.64584-.46875.22396-1.0729.22396-1.0417 0-1.5625-.4948-.51562-.49479-.51562-1.5833v-3.7344z"/>
    <path d="m617.43 633.23q-1.2396 0-1.9219-.76042-.67708-.76563-.67708-2.1615 0-1.4323.6875-2.2135.6927-.78125 1.9688-.78125.41145 0 .82291.0885t.64584.20833l-.26563.73438q-.28646-.11458-.625-.1875-.33854-.0781-.59896-.0781-1.7396 0-1.7396 2.2188 0 1.0521.42187 1.6146.42709.5625 1.2604.5625.71354 0 1.4635-.30729v.76562q-.57291.29688-1.4427.29688z"/>
    <path d="m624.14 633.13v-3.6927q0-.69792-.31771-1.0417t-.99479-.34375q-.90104 0-1.3177.48959-.41146.48958-.41146 1.6042v2.9844h-.86458v-8.1042h.86458v2.4531q0 .44271-.0417.73437h.0521q.25521-.41146.72396-.64583.47395-.23958 1.0781-.23958 1.0469 0 1.5677.5.52606.49479.52606 1.5781v3.724z"/>
    <path d="m634.47 630.27q0 1.3958-.70312 2.1823-.70313.78125-1.9427.78125-.76563 0-1.3594-.35938-.59375-.35937-.91666-1.0312-.32292-.67187-.32292-1.5729 0-1.3958.69792-2.1719.69791-.78125 1.9375-.78125 1.1979 0 1.901.79687.70833.79688.70833 2.1562zm-4.349 0q0 1.0938.4375 1.6667t1.2865.57292 1.2865-.56771q.44271-.57292.44271-1.6719 0-1.0885-.44271-1.651-.4375-.56771-1.2969-.56771-.84895 0-1.2812.5573-.43229.55729-.43229 1.6614z"/>
    <path d="m638.55 628.09h-1.4531v5.0365h-.86458v-5.0365h-1.0208v-.39062l1.0208-.3125v-.31771q0-2.1042 1.8385-2.1042.45312 0 1.0625.18229l-.22396.69271q-.5-.16146-.85417-.16146-.48958 0-.72396.32813-.23437.32291-.23437 1.0417v.3698h1.4531z"/>
    <path d="m644.22 632.52q.22917 0 .44271-.0312.21354-.0364.33854-.0729v.66146q-.14062.0677-.41666.10937-.27084.0469-.48959.0469-1.6562 0-1.6562-1.7448v-3.3958h-.81771v-.41667l.81771-.35937.36459-1.2188h.5v1.3229h1.6562v.67187h-1.6562v3.3594q0 .51562.24479.79166t.67187.27604z"/>
    <path d="m650.05 633.13v-3.6927q0-.69792-.3177-1.0417-.31771-.34375-.9948-.34375-.90104 0-1.3177.48959-.41146.48958-.41146 1.6042v2.9844h-.86459v-8.1042h.86459v2.4531q0 .44271-.0417.73437h.0521q.25521-.41146.72396-.64583.47396-.23958 1.0781-.23958 1.0469 0 1.5677.5.52604.49479.52604 1.5781v3.724z"/>
    <path d="m655.1 633.23q-1.2656 0-2-.77084-.72917-.77083-.72917-2.1406 0-1.3802.67709-2.1927.68229-.8125 1.8281-.8125 1.0729 0 1.6979.70833.625.70313.625 1.8594v.54687h-3.9323q.026 1.0052.50521 1.526.48437.52084 1.3594.52084.92188 0 1.8229-.38542v.77083q-.45834.19792-.86979.28125-.40625.0886-.98438.0886zm-.23437-5.1927q-.6875 0-1.099.44791-.40625.44792-.47917 1.2396h2.9844q0-.81771-.36459-1.25-.36458-.4375-1.0417-.4375z"/>
    <path d="m666.36 630.27q0 1.3958-.70313 2.1823-.70312.78125-1.9427.78125-.76562 0-1.3594-.35938-.59375-.35937-.91667-1.0312-.32292-.67187-.32292-1.5729 0-1.3958.69792-2.1719.69792-.78125 1.9375-.78125 1.1979 0 1.901.79687.70834.79688.70834 2.1562zm-4.349 0q0 1.0938.4375 1.6667t1.2865.57292q.84895 0 1.2864-.56771.44271-.57292.44271-1.6719 0-1.0885-.44271-1.651-.4375-.56771-1.2969-.56771-.84896 0-1.2812.5573-.43229.55729-.43229 1.6614z"/>
    <path d="m668.74 633.13h-.86459v-8.1042h.86459z"/>
    <path d="m674.47 632.36h-.0469q-.59896.8698-1.7917.8698-1.1198 0-1.7448-.76563-.61979-.76562-.61979-2.1771t.625-2.1927 1.7396-.78125q1.1615 0 1.7812.84375h.0677l-.0365-.41146-.0208-.40104v-2.3229h.86458v8.1042h-.70312zm-1.7292.14584q.88542 0 1.2812-.47917.40104-.48437.40104-1.5573v-.18229q0-1.2135-.40625-1.7292-.40104-.52083-1.2865-.52083-.76041 0-1.1667.59375-.40105.58854-.40105 1.6667 0 1.0938.40105 1.651.40104.55729 1.1771.55729z"/>
    <path d="m682.18 633.23q-1.2396 0-1.9219-.76042-.67708-.76563-.67708-2.1615 0-1.4323.6875-2.2135.69271-.78125 1.9688-.78125.41146 0 .82292.0885t.64583.20833l-.26562.73438q-.28646-.11458-.625-.1875-.33855-.0781-.59896-.0781-1.7396 0-1.7396 2.2188 0 1.0521.42188 1.6146.42708.5625 1.2604.5625.71354 0 1.4635-.30729v.76562q-.57292.29688-1.4427.29688z"/>
    <path d="m687.39 633.23q-1.2656 0-2-.77084-.72917-.77083-.72917-2.1406 0-1.3802.67708-2.1927.68229-.8125 1.8281-.8125 1.0729 0 1.6979.70833.625.70313.625 1.8594v.54687h-3.9323q.026 1.0052.50521 1.526.48438.52084 1.3594.52084.92187 0 1.8229-.38542v.77083q-.45833.19792-.86979.28125-.40625.0886-.98437.0886zm-.23438-5.1927q-.6875 0-1.099.44791-.40625.44792-.47916 1.2396h2.9844q0-.81771-.36458-1.25-.36459-.4375-1.0417-.4375z"/>
    <path d="m691.82 633.13h-.86458v-8.1042h.86458z"/>
    <path d="m694.53 633.13h-.86458v-8.1042h.86458z"/>
    <path d="m700.4 633.13-2.1667-5.7083h.92709l1.2292 3.3854q.41667 1.1875.48959 1.5417h.0417q.0573-.27604.35938-1.1406.30729-.86979 1.3698-3.7864h.92708l-2.1667 5.7083z"/>
    <path d="m708.01 633.13-.17188-.8125h-.0417q-.42709.53646-.85417.72917-.42187.1875-1.0573.1875-.84896 0-1.3333-.4375-.47917-.4375-.47917-1.2448 0-1.7292 2.7656-1.8125l.96875-.0312v-.35416q0-.67188-.29166-.98959-.28646-.32291-.92188-.32291-.71354 0-1.6146.4375l-.26563-.66146q.42188-.22917.92188-.35938.50521-.1302 1.0104-.1302 1.0208 0 1.5104.45312.49479.45313.49479 1.4531v3.8958zm-1.9531-.60938q.8073 0 1.2656-.4427.46354-.44271.46354-1.2396v-.51562l-.86458.0365q-1.0312.0364-1.4896.32291-.45312.28125-.45312.88021 0 .46875.28125.71354.28646.24479.79687.24479z"/>
    <path d="m711.3 633.13h-.86459v-8.1042h.86459z"/>
    <path d="m713.96 627.42v3.7031q0 .69792.31771 1.0417t.99479.34375q.89583 0 1.3073-.48959.41667-.48958.41667-1.599v-3h.86458v5.7083h-.71354l-.125-.76563h-.0469q-.26562.42188-.73958.64584-.46875.22396-1.0729.22396-1.0417 0-1.5625-.4948-.51562-.49479-.51562-1.5833v-3.7344z"/>
    <path d="m722.1 633.23q-1.2656 0-2-.77084-.72917-.77083-.72917-2.1406 0-1.3802.67709-2.1927.68229-.8125 1.8281-.8125 1.0729 0 1.6979.70833.625.70313.625 1.8594v.54687h-3.9323q.026 1.0052.50521 1.526.48437.52084 1.3594.52084.92188 0 1.8229-.38542v.77083q-.45834.19792-.86979.28125-.40625.0886-.98438.0886zm-.23437-5.1927q-.6875 0-1.099.44791-.40625.44792-.47917 1.2396h2.9844q0-.81771-.36459-1.25-.36458-.4375-1.0417-.4375z"/>
    <path d="m729.3 633.13h-.86458v-5.7083h.86458zm-.9375-7.2552q0-.29687.14584-.43229.14583-.14063.36458-.14063.20833 0 .35938.14063.15104.14062.15104.43229t-.15104.4375q-.15105.14063-.35938.14063-.21875 0-.36458-.14063-.14584-.14583-.14584-.4375z"/>
    <path d="m734.83 631.57q0 .79687-.59375 1.2292-.59375.4323-1.6667.4323-1.1354 0-1.7708-.35938v-.80208q.41146.20833.88021.32812.47396.11979.91146.11979.67708 0 1.0417-.21354.36459-.21875.36459-.66146 0-.33333-.29167-.5677-.28646-.23959-1.125-.5625-.79687-.29688-1.1354-.51563-.33333-.22396-.5-.50521-.16145-.28125-.16145-.67187 0-.69792.5677-1.099.56771-.40625 1.5573-.40625.92187 0 1.8021.375l-.30729.70312q-.85938-.35416-1.5573-.35416-.61459 0-.92709.19271-.3125.1927-.3125.53125 0 .22916.11459.39062.11979.16146.3802.30729.26042.14584 1 .42188 1.0156.36979 1.3698.74479.35937.375.35937.94271z"/>
    <path d="m596.73 644.78v3.7031q0 .69792.31771 1.0417.3177.34375.99479.34375.89583 0 1.3073-.48958.41667-.48959.41667-1.599v-3h.86458v5.7083h-.71354l-.125-.76562h-.0469q-.26562.42187-.73958.64583-.46875.22396-1.0729.22396-1.0417 0-1.5625-.49479-.51562-.49479-.51562-1.5833v-3.7344z"/>
    <path d="m606.14 648.93q0 .79688-.59375 1.2292t-1.6667.43229q-1.1354 0-1.7708-.35938v-.80208q.41145.20833.8802.32813.47396.11979.91146.11979.67709 0 1.0417-.21354.36458-.21875.36458-.66146 0-.33334-.29166-.56771-.28646-.23958-1.125-.5625-.79688-.29688-1.1354-.51563-.33333-.22395-.5-.5052-.16146-.28126-.16146-.67188 0-.69792.56771-1.099.56771-.40625 1.5573-.40625.92188 0 1.8021.375l-.30729.70313q-.85937-.35417-1.5573-.35417-.61458 0-.92708.19271t-.3125.53125q0 .22916.11458.39062.11979.16146.38021.3073.26042.14583 1 .42187 1.0156.36979 1.3698.74479.35938.375.35938.94271z"/>
    <path d="m609.95 650.59q-1.2656 0-2-.77083-.72917-.77084-.72917-2.1406 0-1.3802.67708-2.1927.68229-.8125 1.8281-.8125 1.0729 0 1.6979.70833.625.70313.625 1.8594v.54688h-3.9323q.026 1.0052.50521 1.526.48438.52083 1.3594.52083.92187 0 1.8229-.38542v.77084q-.45833.19791-.86979.28125-.40625.0885-.98437.0885zm-.23438-5.1927q-.6875 0-1.099.44792-.40625.44791-.47916 1.2396h2.9844q0-.81771-.36458-1.25-.36459-.4375-1.0417-.4375z"/>
    <path d="m617.41 649.72h-.0469q-.59896.86979-1.7917.86979-1.1198 0-1.7448-.76563-.61979-.76562-.61979-2.1771t.625-2.1927 1.7396-.78125q1.1615 0 1.7812.84375h.0677l-.0365-.41146-.0208-.40104v-2.3229h.86458v8.1042h-.70313zm-1.7292.14583q.88542 0 1.2812-.47917.40105-.48437.40105-1.5573v-.18229q0-1.2135-.40625-1.7292-.40105-.52083-1.2865-.52083-.76042 0-1.1667.59375-.40104.58854-.40104 1.6667 0 1.0938.40104 1.651t1.1771.55729z"/>
    <path d="m623.7 650.49h-.86459v-5.7083h.86459zm-.9375-7.2552q0-.29687.14583-.43229.14583-.14062.36458-.14062.20834 0 .35938.14062.15104.14063.15104.43229 0 .29167-.15104.4375-.15104.14063-.35938.14063-.21875 0-.36458-.14063-.14583-.14583-.14583-.4375z"/>
    <path d="m629.45 650.49v-3.6927q0-.69791-.31771-1.0417t-.99479-.34375q-.89583 0-1.3125.48437-.41667.48438-.41667 1.599v2.9948h-.86458v-5.7083h.70312l.14063.78125h.0417q.26562-.42188.74479-.65104.47916-.23438 1.0677-.23438 1.0312 0 1.5521.5.52083.49479.52083 1.5885v3.724z"/>
    <path d="m636.7 649.88q.22916 0 .44271-.0312.21354-.0365.33854-.0729v.66146q-.14063.0677-.41667.10937-.27083.0469-.48958.0469-1.6562 0-1.6562-1.7448v-3.3958h-.81771v-.41666l.81771-.35938.36458-1.2188h.5v1.3229h1.6562v.67187h-1.6562v3.3594q0 .51562.24479.79167.24479.27604.67188.27604z"/>
    <path d="m642.53 650.49v-3.6927q0-.69791-.31771-1.0417-.3177-.34375-.99479-.34375-.90104 0-1.3177.48958-.41145.48958-.41145 1.6042v2.9844h-.86459v-8.1042h.86459v2.4531q0 .44271-.0417.73437h.05211q.25521-.41145.72396-.64583.47396-.23958 1.0781-.23958 1.0469 0 1.5677.5.52605.49479.52605 1.5781v3.724z"/>
    <path d="m647.58 650.59q-1.2656 0-2-.77083-.72917-.77084-.72917-2.1406 0-1.3802.67709-2.1927.68229-.8125 1.8281-.8125 1.0729 0 1.6979.70833.625.70313.625 1.8594v.54688h-3.9323q.026 1.0052.5052 1.526.48438.52083 1.3594.52083.92187 0 1.8229-.38542v.77084q-.45834.19791-.8698.28125-.40625.0885-.98437.0885zm-.23438-5.1927q-.6875 0-1.099.44792-.40625.44791-.47917 1.2396h2.9844q0-.81771-.36458-1.25-.36458-.4375-1.0417-.4375z"/>
    <path d="m657.82 650.49v-3.6927q0-.69791-.31771-1.0417t-.99479-.34375q-.89583 0-1.3125.48437-.41667.48438-.41667 1.599v2.9948h-.86458v-5.7083h.70313l.14062.78125h.0417q.26562-.42188.74479-.65104.47917-.23438 1.0677-.23438 1.0312 0 1.5521.5.52083.49479.52083 1.5885v3.724z"/>
    <path d="m662.87 650.59q-1.2656 0-2-.77083-.72917-.77084-.72917-2.1406 0-1.3802.67708-2.1927.6823-.8125 1.8281-.8125 1.0729 0 1.6979.70833.625.70313.625 1.8594v.54688h-3.9323q.026 1.0052.50521 1.526.48438.52083 1.3594.52083.92187 0 1.8229-.38542v.77084q-.45833.19791-.86979.28125-.40625.0885-.98437.0885zm-.23438-5.1927q-.6875 0-1.099.44792-.40625.44791-.47916 1.2396h2.9844q0-.81771-.36458-1.25-.36458-.4375-1.0417-.4375z"/>
    <path d="m671.1 650.49-1.0469-3.349q-.099-.30729-.3698-1.3958h-.0417q-.20834.91146-.36459 1.4062l-1.0781 3.3385h-1l-1.5573-5.7083h.90625q.55208 2.151.83854 3.276.29167 1.125.33333 1.5156h.0417q.0573-.29688.18229-.76563.13021-.47396.22396-.75l1.0469-3.276h.9375l1.0208 3.276q.29166.89583.39583 1.5052h.0417q.0208-.1875.10937-.57813.0937-.39062 1.0885-4.2031h.89584l-1.5781 5.7083z"/>
    <path d="m679.78 650.59q-1.2396 0-1.9219-.76042-.67709-.76562-.67709-2.1615 0-1.4323.6875-2.2135.69271-.78125 1.9688-.78125.41146 0 .82292.0885t.64583.20834l-.26562.73437q-.28646-.11458-.625-.1875-.33854-.0781-.59896-.0781-1.7396 0-1.7396 2.2188 0 1.0521.42187 1.6146.42709.5625 1.2604.5625.71354 0 1.4635-.30729v.76562q-.57292.29688-1.4427.29688z"/>
    <path d="m684.99 650.59q-1.2656 0-2-.77083-.72917-.77084-.72917-2.1406 0-1.3802.67708-2.1927.6823-.8125 1.8281-.8125 1.0729 0 1.6979.70833.625.70313.625 1.8594v.54688h-3.9323q.026 1.0052.50521 1.526.48438.52083 1.3594.52083.92187 0 1.8229-.38542v.77084q-.45833.19791-.86979.28125-.40625.0885-.98437.0885zm-.23438-5.1927q-.6875 0-1.099.44792-.40625.44791-.47916 1.2396h2.9844q0-.81771-.36458-1.25-.36458-.4375-1.0417-.4375z"/>
    <path d="m689.43 650.49h-.86459v-8.1042h.86459z"/>
    <path d="m692.14 650.49h-.86458v-8.1042h.86458z"/>
    <path d="m698 650.49-2.1667-5.7083h.92708l1.2292 3.3854q.41666 1.1875.48958 1.5417h.0417q.0573-.27604.35937-1.1406.30729-.86979 1.3698-3.7865h.92709l-2.1667 5.7083z"/>
    <path d="m705.61 650.49-.17187-.8125h-.0417q-.42708.53646-.85417.72917-.42187.1875-1.0573.1875-.84896 0-1.3333-.4375-.47917-.4375-.47917-1.2448 0-1.7292 2.7656-1.8125l.96875-.0312v-.35417q0-.67188-.29167-.98958-.28646-.32292-.92188-.32292-.71354 0-1.6146.4375l-.26562-.66146q.42187-.22917.92187-.35937.50521-.13021 1.0104-.13021 1.0208 0 1.5104.45312.4948.45313.4948 1.4531v3.8958zm-1.9531-.60937q.80729 0 1.2656-.44271.46354-.44271.46354-1.2396v-.51563l-.86458.0365q-1.0312.0365-1.4896.32292-.45313.28125-.45313.8802 0 .46875.28125.71355.28646.24479.79688.24479z"/>
    <path d="m708.91 650.49h-.86459v-8.1042h.86459z"/>
    <path d="m711.56 644.78v3.7031q0 .69792.31771 1.0417t.99479.34375q.89584 0 1.3073-.48958.41667-.48959.41667-1.599v-3h.86458v5.7083h-.71354l-.125-.76562h-.0469q-.26563.42187-.73959.64583-.46875.22396-1.0729.22396-1.0417 0-1.5625-.49479-.51563-.49479-.51563-1.5833v-3.7344z"/>
    <path d="m719.7 650.59q-1.2656 0-2-.77083-.72916-.77084-.72916-2.1406 0-1.3802.67708-2.1927.68229-.8125 1.8281-.8125 1.0729 0 1.6979.70833.625.70313.625 1.8594v.54688h-3.9323q.026 1.0052.50521 1.526.48437.52083 1.3594.52083.92188 0 1.8229-.38542v.77084q-.45833.19791-.86979.28125-.40625.0885-.98438.0885zm-.23437-5.1927q-.6875 0-1.099.44792-.40625.44791-.47917 1.2396h2.9844q0-.81771-.36459-1.25-.36458-.4375-1.0417-.4375z"/>
    <path d="m723.15 649.94q0-.34896.15625-.52604.16146-.18229.45833-.18229.30209 0 .46875.18229.17188.17708.17188.52604 0 .33854-.17188.52083-.17187.18229-.46875.18229-.26562 0-.44271-.16145-.17187-.16667-.17187-.54167z"/>
   </g>
   <g transform="matrix(.26458 0 0 .26458 -46.227 -114.67)" aria-label="Output Gate: controls how much of the new cell value is outputted.">
    <path d="m602.87 611.95q0 1.8906-.9375 2.9062-.9375 1.0156-2.6875 1.0156t-2.6875-1.0156q-.9375-1.0156-.9375-2.9167t.9375-2.901q.94271-1.0052 2.6979-1.0052t2.6823 1.0104q.93229 1.0104.93229 2.9062zm-5.5573 0q0 1.276.48438 1.9219.48437.64584 1.4479.64584 1.9323 0 1.9323-2.5677 0-2.5729-1.9219-2.5729-.96354 0-1.4531.65104-.48958.64584-.48958 1.9219z"/>
    <path d="m608.46 615.76-.21354-.7448h-.0833q-.25521.40625-.72396.63021-.46875.21875-1.0677.21875-1.026 0-1.5469-.54687-.52084-.55209-.52084-1.5833v-3.7969h1.5886v3.401q0 .63021.22395.94792.22396.3125.71355.3125.66666 0 .96354-.44271.29687-.44792.29687-1.4792v-2.7396h1.5885v5.8229z"/>
    <path d="m613.81 614.6q.41667 0 1-.18229v1.1823q-.59375.26562-1.4583.26562-.95313 0-1.3906-.47916-.43229-.48438-.43229-1.4479v-2.8073h-.76041v-.67188l.875-.53125.45833-1.2292h1.0156v1.2396h1.6302v1.1927h-1.6302v2.8073q0 .33854.1875.5.19271.16146.50521.16146z"/>
    <path d="m619.18 615.87q-1.026 0-1.6094-.74479h-.0833q.0833.72917.0833.84375v2.3594h-1.5885v-8.3854h1.2917l.22396.75521h.0729q.55729-.86459 1.651-.86459 1.0312 0 1.6146.79688.58334.79687.58334 2.2135 0 .93229-.27604 1.6198-.27084.6875-.77605 1.0469-.5052.35937-1.1875.35937zm-.46875-4.7656q-.58854 0-.85937.36458-.27083.35938-.28125 1.1927v.17187q0 .9375.27604 1.3438.28125.40625.88542.40625 1.0677 0 1.0677-1.7604 0-.85938-.26563-1.2865-.26042-.43229-.82292-.43229z"/>
    <path d="m626.85 615.76-.21354-.7448h-.0833q-.25521.40625-.72396.63021-.46875.21875-1.0677.21875-1.026 0-1.5469-.54687-.52083-.55209-.52083-1.5833v-3.7969h1.5885v3.401q0 .63021.22396.94792.22396.3125.71354.3125.66667 0 .96354-.44271.29688-.44792.29688-1.4792v-2.7396h1.5885v5.8229z"/>
    <path d="m632.2 614.6q.41666 0 1-.18229v1.1823q-.59375.26562-1.4583.26562-.95312 0-1.3906-.47916-.43229-.48438-.43229-1.4479v-2.8073h-.76042v-.67188l.875-.53125.45833-1.2292h1.0156v1.2396h1.6302v1.1927h-1.6302v2.8073q0 .33854.1875.5.19271.16146.50521.16146z"/>
    <path d="m640.16 611.49h3.0208v3.9479q-.73437.23958-1.3854.33333-.64584.099-1.3229.099-1.724 0-2.6354-1.0104-.90625-1.0156-.90625-2.9115 0-1.8438 1.0521-2.875 1.0573-1.0312 2.9271-1.0312 1.1719 0 2.2604.46875l-.53646 1.2917q-.83334-.41666-1.7344-.41666-1.0469 0-1.6771.70312-.63021.70313-.63021 1.8906 0 1.2396.50521 1.8958.51042.65104 1.4792.65104.5052 0 1.026-.10416v-1.5886h-1.4427z"/>
    <path d="m648.57 615.76-.30729-.79167h-.0417q-.40104.50521-.82813.70312-.42187.19271-1.1042.19271-.83854 0-1.3229-.47916-.47917-.47917-.47917-1.3646 0-.92708.64584-1.3646.65104-.44271 1.9583-.48958l1.0104-.0312v-.25526q0-.88542-.90625-.88542-.69792 0-1.6406.42188l-.52604-1.0729q1.0052-.52604 2.2292-.52604 1.1719 0 1.7969.51041.625.51042.625 1.5521v3.8802zm-.46875-2.6979-.61459.0208q-.6927.0208-1.0312.25-.33854.22917-.33854.69792 0 .67187.77084.67187.55208 0 .8802-.3177.33334-.31771.33334-.84375z"/>
    <path d="m653.77 614.6q.41666 0 1-.18229v1.1823q-.59375.26562-1.4583.26562-.95312 0-1.3906-.47916-.43229-.48438-.43229-1.4479v-2.8073h-.76042v-.67188l.875-.53125.45833-1.2292h1.0156v1.2396h1.6302v1.1927h-1.6302v2.8073q0 .33854.1875.5.19271.16146.50521.16146z"/>
    <path d="m658.35 610.96q-.50521 0-.79167.32292-.28646.31771-.32812.90625h2.2292q-.0104-.58854-.30729-.90625-.29687-.32292-.80208-.32292zm.22396 4.9062q-1.4062 0-2.1979-.77604t-.79167-2.1979q0-1.4635.72917-2.2604.73438-.80209 2.026-.80209 1.2344 0 1.9219.70313.6875.70312.6875 1.9427v.77083h-3.7552q.026.67708.40104 1.0573.375.38021 1.0521.38021.52605 0 .9948-.10937.46875-.10938.97916-.34896v1.2292q-.41666.20834-.89062.3073-.47396.10416-1.1562.10416z"/>
    <path d="m662.03 615.02q0-.4375.23437-.66145.23438-.22396.6823-.22396.43229 0 .66666.22916.23959.22917.23959.65625 0 .41146-.23959.65105-.23958.23437-.66666.23437-.4375 0-.67709-.22917-.23958-.23437-.23958-.65625zm0-4.3021q0-.4375.23437-.66146.23438-.22396.6823-.22396.43229 0 .66666.22917.23959.22917.23959.65625 0 .42188-.2448.65625-.23958.22917-.66145.22917-.4375 0-.67709-.22917-.23958-.22917-.23958-.65625z"/>
    <path d="m670.43 615.87q-1.2396 0-1.9219-.76041-.67709-.76563-.67709-2.1615 0-1.4323.6875-2.2135.69271-.78125 1.9688-.78125.41146 0 .82292.0885t.64583.20833l-.26562.73438q-.28646-.11459-.625-.1875-.33854-.0781-.59896-.0781-1.7396 0-1.7396 2.2188 0 1.0521.42187 1.6146.42708.5625 1.2604.5625.71354 0 1.4635-.30729v.76563q-.57292.29687-1.4427.29687z"/>
    <path d="m678.16 612.9q0 1.3958-.70312 2.1823-.70313.78125-1.9427.78125-.76563 0-1.3594-.35937-.59375-.35938-.91666-1.0312-.32292-.67188-.32292-1.5729 0-1.3958.69792-2.1719.69791-.78125 1.9375-.78125 1.1979 0 1.901.79687.70833.79688.70833 2.1562zm-4.349 0q0 1.0938.4375 1.6667.4375.57291 1.2865.57291t1.2865-.5677q.44271-.57292.44271-1.6719 0-1.0885-.44271-1.651-.4375-.56771-1.2969-.56771-.84895 0-1.2812.55729-.43229.55729-.43229 1.6615z"/>
    <path d="m683.57 615.76v-3.6927q0-.69792-.31771-1.0417t-.99479-.34375q-.89584 0-1.3125.48438-.41667.48437-.41667 1.599v2.9948h-.86458v-5.7083h.70312l.14063.78125h.0417q.26563-.42187.7448-.65104.47916-.23437 1.0677-.23437 1.0312 0 1.5521.5.52083.49479.52083 1.5885v3.724z"/>
    <path d="m688.05 615.15q.22917 0 .44271-.0312.21354-.0365.33854-.0729v.66146q-.14063.0677-.41667.10938-.27083.0469-.48958.0469-1.6562 0-1.6562-1.7448v-3.3958h-.81771v-.41667l.81771-.35937.36458-1.2188h.5v1.3229h1.6562v.67188h-1.6562v3.3594q0 .51563.24479.79167.2448.27604.67188.27604z"/>
    <path d="m692.58 609.95q.38021 0 .6823.0625l-.1198.80208q-.35416-.0781-.625-.0781-.6927 0-1.1875.5625-.48958.5625-.48958 1.401v3.0625h-.86458v-5.7083h.71354l.099 1.0573h.0417q.31771-.55729.76563-.85937t.98437-.30208z"/>
    <path d="m699.26 612.9q0 1.3958-.70312 2.1823-.70313.78125-1.9427.78125-.76563 0-1.3594-.35937-.59375-.35938-.91666-1.0312-.32292-.67188-.32292-1.5729 0-1.3958.69792-2.1719.69791-.78125 1.9375-.78125 1.1979 0 1.901.79687.70833.79688.70833 2.1562zm-4.349 0q0 1.0938.4375 1.6667.4375.57291 1.2865.57291t1.2865-.5677q.44271-.57292.44271-1.6719 0-1.0885-.44271-1.651-.4375-.56771-1.2969-.56771-.84896 0-1.2812.55729-.4323.55729-.4323 1.6615z"/>
    <path d="m701.64 615.76h-.86458v-8.1042h.86458z"/>
    <path d="m707.16 614.21q0 .79688-.59375 1.2292t-1.6667.43229q-1.1354 0-1.7708-.35937v-.80209q.41146.20834.88021.32813.47396.11979.91146.11979.67708 0 1.0417-.21354.36459-.21875.36459-.66146 0-.33333-.29167-.56771-.28646-.23958-1.125-.5625-.79688-.29687-1.1354-.51562-.33333-.22396-.5-.50521-.16146-.28125-.16146-.67188 0-.69791.56771-1.099.56771-.40625 1.5573-.40625.92188 0 1.8021.375l-.30729.70312q-.85938-.35417-1.5573-.35417-.61458 0-.92708.19271t-.3125.53125q0 .22917.11458.39063.1198.16146.38021.30729.26042.14583 1 .42187 1.0156.3698 1.3698.7448.35938.375.35938.9427z"/>
    <path d="m715.24 615.76v-3.6927q0-.69792-.31771-1.0417t-.99479-.34375q-.90104 0-1.3177.48958-.41146.48959-.41146 1.6042v2.9844h-.86458v-8.1042h.86458v2.4531q0 .44271-.0417.73438h.0521q.25521-.41146.72396-.64583.47396-.23959 1.0781-.23959 1.0469 0 1.5677.5.52604.49479.52604 1.5781v3.724z"/>
    <path d="m722.8 612.9q0 1.3958-.70313 2.1823-.70312.78125-1.9427.78125-.76562 0-1.3594-.35937-.59375-.35938-.91667-1.0312-.32292-.67188-.32292-1.5729 0-1.3958.69792-2.1719.69792-.78125 1.9375-.78125 1.1979 0 1.901.79687.70834.79688.70834 2.1562zm-4.349 0q0 1.0938.4375 1.6667.4375.57291 1.2865.57291.84895 0 1.2864-.5677.44271-.57292.44271-1.6719 0-1.0885-.44271-1.651-.4375-.56771-1.2969-.56771-.84896 0-1.2812.55729t-.43229 1.6615z"/>
    <path d="m728.97 615.76-1.0469-3.349q-.099-.30729-.36979-1.3958h-.0417q-.20834.91146-.36459 1.4062l-1.0781 3.3386h-1l-1.5573-5.7083h.90625q.55208 2.151.83854 3.276.29166 1.125.33333 1.5156h.0417q.0573-.29688.18229-.76563.13021-.47395.22396-.75l1.0469-3.276h.9375l1.0208 3.276q.29166.89584.39583 1.5052h.0417q.0208-.1875.10937-.57812.0937-.39063 1.0885-4.2031h.89584l-1.5781 5.7083z"/>
    <path d="m603.19 633.13v-3.7135q0-.68229-.29167-1.0208-.29166-.34375-.90625-.34375-.80729 0-1.1927.46355-.38541.46354-.38541 1.4271v3.1875h-.86459v-3.7135q0-.68229-.29166-1.0208-.29167-.34375-.91146-.34375-.8125 0-1.1927.48959-.375.48437-.375 1.5938v2.9948h-.86458v-5.7083h.70312l.14063.78125h.0417q.2448-.41667.6875-.65105.44792-.23437 1-.23437 1.3386 0 1.75.96875h.0417q.25521-.44792.73958-.70833.48438-.26042 1.1042-.26042.96875 0 1.4479.5.48437.49479.48437 1.5885v3.724z"/>
    <path d="m606.65 627.42v3.7031q0 .69792.31771 1.0417t.99479.34375q.89584 0 1.3073-.48959.41666-.48958.41666-1.599v-3h.86459v5.7083h-.71355l-.125-.76563h-.0469q-.26563.42188-.73958.64584-.46875.22396-1.0729.22396-1.0417 0-1.5625-.4948-.51563-.49479-.51563-1.5833v-3.7344z"/>
    <path d="m614.66 633.23q-1.2396 0-1.9219-.76042-.67709-.76563-.67709-2.1615 0-1.4323.6875-2.2135.69271-.78125 1.9688-.78125.41146 0 .82292.0885t.64583.20833l-.26562.73438q-.28646-.11458-.625-.1875-.33854-.0781-.59896-.0781-1.7396 0-1.7396 2.2188 0 1.0521.42187 1.6146.42708.5625 1.2604.5625.71354 0 1.4635-.30729v.76562q-.57292.29688-1.4427.29688z"/>
    <path d="m621.36 633.13v-3.6927q0-.69792-.3177-1.0417-.31771-.34375-.9948-.34375-.90104 0-1.3177.48959-.41146.48958-.41146 1.6042v2.9844h-.86459v-8.1042h.86459v2.4531q0 .44271-.0417.73437h.0521q.25521-.41146.72396-.64583.47396-.23958 1.0781-.23958 1.0469 0 1.5677.5.52604.49479.52604 1.5781v3.724z"/>
    <path d="m631.7 630.27q0 1.3958-.70313 2.1823-.70312.78125-1.9427.78125-.76562 0-1.3594-.35938-.59375-.35937-.91667-1.0312-.32291-.67187-.32291-1.5729 0-1.3958.69791-2.1719.69792-.78125 1.9375-.78125 1.1979 0 1.901.79687.70834.79688.70834 2.1562zm-4.349 0q0 1.0938.4375 1.6667t1.2865.57292 1.2865-.56771q.4427-.57292.4427-1.6719 0-1.0885-.4427-1.651-.4375-.56771-1.2969-.56771-.84896 0-1.2812.5573-.43229.55729-.43229 1.6614z"/>
    <path d="m635.78 628.09h-1.4531v5.0365h-.86459v-5.0365h-1.0208v-.39062l1.0208-.3125v-.31771q0-2.1042 1.8385-2.1042.45313 0 1.0625.18229l-.22395.69271q-.5-.16146-.85417-.16146-.48958 0-.72396.32813-.23437.32291-.23437 1.0417v.3698h1.4531z"/>
    <path d="m641.45 632.52q.22916 0 .44271-.0312.21354-.0364.33854-.0729v.66146q-.14063.0677-.41667.10937-.27083.0469-.48958.0469-1.6562 0-1.6562-1.7448v-3.3958h-.81771v-.41667l.81771-.35937.36458-1.2188h.5v1.3229h1.6562v.67187h-1.6562v3.3594q0 .51562.24479.79166t.67188.27604z"/>
    <path d="m647.28 633.13v-3.6927q0-.69792-.31771-1.0417-.3177-.34375-.99479-.34375-.90104 0-1.3177.48959-.41145.48958-.41145 1.6042v2.9844h-.86459v-8.1042h.86459v2.4531q0 .44271-.0417.73437h.0521q.25521-.41146.72396-.64583.47396-.23958 1.0781-.23958 1.0469 0 1.5677.5.52605.49479.52605 1.5781v3.724z"/>
    <path d="m652.33 633.23q-1.2656 0-2-.77084-.72917-.77083-.72917-2.1406 0-1.3802.67708-2.1927.68229-.8125 1.8281-.8125 1.0729 0 1.6979.70833.625.70313.625 1.8594v.54687h-3.9323q.026 1.0052.50521 1.526.48438.52084 1.3594.52084.92187 0 1.8229-.38542v.77083q-.45833.19792-.86979.28125-.40625.0886-.98437.0886zm-.23438-5.1927q-.6875 0-1.099.44791-.40625.44792-.47916 1.2396h2.9844q0-.81771-.36458-1.25-.36459-.4375-1.0417-.4375z"/>
    <path d="m662.57 633.13v-3.6927q0-.69792-.31771-1.0417t-.99479-.34375q-.89583 0-1.3125.48438-.41667.48437-.41667 1.599v2.9948h-.86458v-5.7083h.70313l.14062.78125h.0417q.26562-.42188.74479-.65105.47917-.23437 1.0677-.23437 1.0312 0 1.5521.5.52083.49479.52083 1.5885v3.724z"/>
    <path d="m667.62 633.23q-1.2656 0-2-.77084-.72917-.77083-.72917-2.1406 0-1.3802.67708-2.1927.6823-.8125 1.8281-.8125 1.0729 0 1.6979.70833.625.70313.625 1.8594v.54687h-3.9323q.026 1.0052.50521 1.526.48438.52084 1.3594.52084.92187 0 1.8229-.38542v.77083q-.45833.19792-.86979.28125-.40625.0886-.98437.0886zm-.23438-5.1927q-.6875 0-1.099.44791-.40625.44792-.47916 1.2396h2.9844q0-.81771-.36458-1.25-.36458-.4375-1.0417-.4375z"/>
    <path d="m675.85 633.13-1.0469-3.349q-.099-.30729-.3698-1.3958h-.0417q-.20834.91146-.36459 1.4062l-1.0781 3.3385h-1l-1.5573-5.7083h.90625q.55208 2.151.83854 3.276.29167 1.125.33333 1.5156h.0417q.0573-.29687.18229-.76562.13021-.47396.22396-.75l1.0469-3.276h.9375l1.0208 3.276q.29166.89583.39583 1.5052h.0417q.0208-.1875.10937-.57813.0937-.39062 1.0885-4.2031h.89584l-1.5782 5.7083z"/>
    <path d="m684.53 633.23q-1.2396 0-1.9219-.76042-.67709-.76563-.67709-2.1615 0-1.4323.6875-2.2135.69271-.78125 1.9688-.78125.41146 0 .82292.0885t.64583.20833l-.26562.73438q-.28646-.11458-.625-.1875-.33854-.0781-.59896-.0781-1.7396 0-1.7396 2.2188 0 1.0521.42187 1.6146.42709.5625 1.2604.5625.71354 0 1.4635-.30729v.76562q-.57292.29688-1.4427.29688z"/>
    <path d="m689.74 633.23q-1.2656 0-2-.77084-.72917-.77083-.72917-2.1406 0-1.3802.67708-2.1927.6823-.8125 1.8281-.8125 1.0729 0 1.6979.70833.625.70313.625 1.8594v.54687h-3.9323q.026 1.0052.50521 1.526.48438.52084 1.3594.52084.92187 0 1.8229-.38542v.77083q-.45833.19792-.86979.28125-.40625.0886-.98437.0886zm-.23438-5.1927q-.6875 0-1.099.44791-.40625.44792-.47916 1.2396h2.9844q0-.81771-.36458-1.25-.36458-.4375-1.0417-.4375z"/>
    <path d="m694.18 633.13h-.86459v-8.1042h.86459z"/>
    <path d="m696.89 633.13h-.86458v-8.1042h.86458z"/>
    <path d="m702.75 633.13-2.1667-5.7083h.92708l1.2292 3.3854q.41666 1.1875.48958 1.5417h.0417q.0573-.27604.35937-1.1406.30729-.86979 1.3698-3.7864h.92709l-2.1667 5.7083z"/>
    <path d="m710.36 633.13-.17187-.8125h-.0417q-.42708.53646-.85417.72917-.42187.1875-1.0573.1875-.84896 0-1.3333-.4375-.47917-.4375-.47917-1.2448 0-1.7292 2.7656-1.8125l.96875-.0312v-.35416q0-.67188-.29167-.98959-.28646-.32291-.92188-.32291-.71354 0-1.6146.4375l-.26562-.66146q.42187-.22917.92187-.35938.50521-.1302 1.0104-.1302 1.0208 0 1.5104.45312.4948.45313.4948 1.4531v3.8958zm-1.9531-.60938q.80729 0 1.2656-.4427.46354-.44271.46354-1.2396v-.51562l-.86458.0365q-1.0312.0364-1.4896.32291-.45313.28125-.45313.88021 0 .46875.28125.71354.28646.24479.79688.24479z"/>
    <path d="m713.66 633.13h-.86459v-8.1042h.86459z"/>
    <path d="m716.31 627.42v3.7031q0 .69792.31771 1.0417t.99479.34375q.89584 0 1.3073-.48959.41667-.48958.41667-1.599v-3h.86458v5.7083h-.71354l-.125-.76563h-.0469q-.26563.42188-.73959.64584-.46875.22396-1.0729.22396-1.0417 0-1.5625-.4948-.51563-.49479-.51563-1.5833v-3.7344z"/>
    <path d="m724.45 633.23q-1.2656 0-2-.77084-.72916-.77083-.72916-2.1406 0-1.3802.67708-2.1927.68229-.8125 1.8281-.8125 1.0729 0 1.6979.70833.625.70313.625 1.8594v.54687h-3.9323q.026 1.0052.50521 1.526.48437.52084 1.3594.52084.92188 0 1.8229-.38542v.77083q-.45833.19792-.86979.28125-.40625.0886-.98438.0886zm-.23437-5.1927q-.6875 0-1.099.44791-.40625.44792-.47917 1.2396h2.9844q0-.81771-.36459-1.25-.36458-.4375-1.0417-.4375z"/>
    <path d="m731.66 633.13h-.86458v-5.7083h.86458zm-.9375-7.2552q0-.29687.14583-.43229.14584-.14063.36459-.14063.20833 0 .35937.14063.15104.14062.15104.43229t-.15104.4375q-.15104.14063-.35937.14063-.21875 0-.36459-.14063-.14583-.14583-.14583-.4375z"/>
    <path d="m737.18 631.57q0 .79687-.59375 1.2292-.59375.4323-1.6667.4323-1.1354 0-1.7708-.35938v-.80208q.41146.20833.88021.32812.47396.11979.91146.11979.67708 0 1.0417-.21354.36458-.21875.36458-.66146 0-.33333-.29167-.5677-.28646-.23959-1.125-.5625-.79687-.29688-1.1354-.51563-.33334-.22396-.5-.50521-.16146-.28125-.16146-.67187 0-.69792.56771-1.099.5677-.40625 1.5573-.40625.92187 0 1.8021.375l-.30729.70312q-.85938-.35416-1.5573-.35416-.61459 0-.92709.19271-.3125.1927-.3125.53125 0 .22916.11459.39062.11979.16146.38021.30729.26041.14584 1 .42188 1.0156.36979 1.3698.74479.35937.375.35937.94271z"/>
    <path d="m600.84 647.63q0 1.3958-.70312 2.1823-.70313.78125-1.9427.78125-.76563 0-1.3594-.35938-.59375-.35937-.91666-1.0312-.32292-.67187-.32292-1.5729 0-1.3958.69792-2.1719.69791-.78125 1.9375-.78125 1.1979 0 1.901.79688.70833.79687.70833 2.1562zm-4.349 0q0 1.0938.4375 1.6667.4375.57292 1.2865.57292t1.2865-.56771q.44271-.57291.44271-1.6719 0-1.0886-.44271-1.651-.4375-.5677-1.2969-.5677-.84895 0-1.2812.55729-.43229.55729-.43229 1.6615z"/>
    <path d="m603.17 644.78v3.7031q0 .69792.31771 1.0417.3177.34375.99479.34375.89583 0 1.3073-.48958.41667-.48959.41667-1.599v-3h.86458v5.7083h-.71354l-.125-.76562h-.0469q-.26562.42187-.73958.64583-.46875.22396-1.0729.22396-1.0417 0-1.5625-.49479-.51562-.49479-.51562-1.5833v-3.7344z"/>
    <path d="m610.74 649.88q.22917 0 .44271-.0312.21354-.0365.33854-.0729v.66146q-.14062.0677-.41666.10937-.27084.0469-.48959.0469-1.6562 0-1.6562-1.7448v-3.3958h-.8177v-.41666l.8177-.35938.36459-1.2188h.5v1.3229h1.6562v.67187h-1.6562v3.3594q0 .51562.24479.79167.24479.27604.67187.27604z"/>
    <path d="m615.32 650.59q-.55729 0-1.0208-.20313-.45833-.20833-.77083-.63541h-.0625q.0625.5.0625.94791v2.349h-.86458v-8.2708h.70312l.11979.78125h.0417q.33333-.46875.77604-.67709.44271-.20833 1.0156-.20833 1.1354 0 1.75.77604.61979.77604.61979 2.1771 0 1.4062-.63021 2.1875-.625.77604-1.7396.77604zm-.125-5.1823q-.875 0-1.2656.48437-.39062.48438-.40104 1.5417v.19271q0 1.2031.40104 1.724.40104.51562 1.2865.51562.73958 0 1.1562-.59896.42188-.59896.42188-1.651 0-1.0677-.42188-1.6354-.41667-.57291-1.1771-.57291z"/>
    <path d="m620.02 644.78v3.7031q0 .69792.31771 1.0417t.99479.34375q.89584 0 1.3073-.48958.41666-.48959.41666-1.599v-3h.86459v5.7083h-.71355l-.125-.76562h-.0469q-.26563.42187-.73958.64583-.46875.22396-1.0729.22396-1.0417 0-1.5625-.49479-.51563-.49479-.51563-1.5833v-3.7344z"/>
    <path d="m627.59 649.88q.22917 0 .44271-.0312.21354-.0365.33854-.0729v.66146q-.14062.0677-.41667.10937-.27083.0469-.48958.0469-1.6562 0-1.6562-1.7448v-3.3958h-.81771v-.41666l.81771-.35938.36458-1.2188h.5v1.3229h1.6562v.67187h-1.6562v3.3594q0 .51562.2448.79167.24479.27604.67187.27604z"/>
    <path d="m631.36 649.88q.22917 0 .44271-.0312.21354-.0365.33854-.0729v.66146q-.14062.0677-.41666.10937-.27084.0469-.48959.0469-1.6562 0-1.6562-1.7448v-3.3958h-.8177v-.41666l.8177-.35938.36459-1.2188h.5v1.3229h1.6562v.67187h-1.6562v3.3594q0 .51562.24479.79167.24479.27604.67187.27604z"/>
    <path d="m635.7 650.59q-1.2656 0-2-.77083-.72917-.77084-.72917-2.1406 0-1.3802.67708-2.1927.68229-.8125 1.8281-.8125 1.0729 0 1.6979.70833.625.70313.625 1.8594v.54688h-3.9323q.026 1.0052.50521 1.526.48438.52083 1.3594.52083.92187 0 1.8229-.38542v.77084q-.45833.19791-.86979.28125-.40625.0885-.98437.0885zm-.23438-5.1927q-.6875 0-1.099.44792-.40625.44791-.47916 1.2396h2.9844q0-.81771-.36458-1.25-.36459-.4375-1.0417-.4375z"/>
    <path d="m643.16 649.72h-.0469q-.59896.86979-1.7917.86979-1.1198 0-1.7448-.76563-.61979-.76562-.61979-2.1771t.625-2.1927 1.7396-.78125q1.1615 0 1.7812.84375h.0677l-.0365-.41146-.0208-.40104v-2.3229h.86458v8.1042h-.70313zm-1.7292.14583q.88542 0 1.2812-.47917.40105-.48437.40105-1.5573v-.18229q0-1.2135-.40625-1.7292-.40105-.52083-1.2865-.52083-.76042 0-1.1667.59375-.40104.58854-.40104 1.6667 0 1.0938.40104 1.651t1.1771.55729z"/>
    <path d="m645.69 649.94q0-.34896.15625-.52604.16146-.18229.45834-.18229.30208 0 .46875.18229.17187.17708.17187.52604 0 .33854-.17187.52083-.17188.18229-.46875.18229-.26563 0-.44271-.16145-.17188-.16667-.17188-.54167z"/>
   </g>
   <g transform="matrix(.26458 0 0 .26458 -80.204 -84.401)" aria-label="Input Gate: controls how much of input is used in the new cell value.">
    <path d="m595.96 615.76v-7.6146h1.6146v7.6146z"/>
    <path d="m604.75 615.76h-1.5885v-3.401q0-.6302-.22396-.9427-.22396-.31771-.71354-.31771-.66667 0-.96354.44791-.29688.44271-.29688 1.474v2.7396h-1.5885v-5.8229h1.2135l.21354.74479h.0885q.26562-.42187.72916-.63542.46875-.21875 1.0625-.21875 1.0156 0 1.5417.55209.52604.54687.52604 1.5833z"/>
    <path d="m609.59 615.87q-1.026 0-1.6094-.74479h-.0833q.0833.72917.0833.84375v2.3594h-1.5886v-8.3854h1.2917l.22396.75521h.0729q.55729-.86459 1.651-.86459 1.0312 0 1.6146.79688.58333.79687.58333 2.2135 0 .93229-.27604 1.6198-.27083.6875-.77604 1.0469-.50521.35937-1.1875.35937zm-.46875-4.7656q-.58854 0-.85937.36458-.27084.35938-.28125 1.1927v.17187q0 .9375.27604 1.3438.28125.40625.88541.40625 1.0677 0 1.0677-1.7604 0-.85938-.26562-1.2865-.26042-.43229-.82292-.43229z"/>
    <path d="m617.27 615.76-.21354-.7448h-.0833q-.25521.40625-.72396.63021-.46875.21875-1.0677.21875-1.026 0-1.5469-.54687-.52084-.55209-.52084-1.5833v-3.7969h1.5886v3.401q0 .63021.22395.94792.22396.3125.71355.3125.66666 0 .96354-.44271.29687-.44792.29687-1.4792v-2.7396h1.5885v5.8229z"/>
    <path d="m622.62 614.6q.41667 0 1-.18229v1.1823q-.59375.26562-1.4583.26562-.95313 0-1.3906-.47916-.43229-.48438-.43229-1.4479v-2.8073h-.76041v-.67188l.875-.53125.45833-1.2292h1.0156v1.2396h1.6302v1.1927h-1.6302v2.8073q0 .33854.1875.5.19271.16146.50521.16146z"/>
    <path d="m630.58 611.49h3.0208v3.9479q-.73438.23958-1.3854.33333-.64583.099-1.3229.099-1.724 0-2.6354-1.0104-.90625-1.0156-.90625-2.9115 0-1.8438 1.0521-2.875 1.0573-1.0312 2.9271-1.0312 1.1719 0 2.2604.46875l-.53646 1.2917q-.83333-.41666-1.7344-.41666-1.0469 0-1.6771.70312-.63021.70313-.63021 1.8906 0 1.2396.50521 1.8958.51041.65104 1.4792.65104.50521 0 1.026-.10416v-1.5886h-1.4427z"/>
    <path d="m638.99 615.76-.3073-.79167h-.0417q-.40104.50521-.82813.70312-.42187.19271-1.1042.19271-.83855 0-1.3229-.47916-.47917-.47917-.47917-1.3646 0-.92708.64584-1.3646.65104-.44271 1.9583-.48958l1.0104-.0312v-.25526q0-.88542-.90625-.88542-.69792 0-1.6406.42188l-.52604-1.0729q1.0052-.52604 2.2292-.52604 1.1719 0 1.7969.51041.625.51042.625 1.5521v3.8802zm-.46875-2.6979-.61459.0208q-.69271.0208-1.0312.25-.33854.22917-.33854.69792 0 .67187.77083.67187.55209 0 .88021-.3177.33334-.31771.33334-.84375z"/>
    <path d="m644.18 614.6q.41667 0 1-.18229v1.1823q-.59375.26562-1.4583.26562-.95312 0-1.3906-.47916-.4323-.48438-.4323-1.4479v-2.8073h-.76041v-.67188l.875-.53125.45833-1.2292h1.0156v1.2396h1.6302v1.1927h-1.6302v2.8073q0 .33854.1875.5.1927.16146.5052.16146z"/>
    <path d="m648.77 610.96q-.50521 0-.79167.32292-.28646.31771-.32812.90625h2.2292q-.0104-.58854-.30729-.90625-.29687-.32292-.80208-.32292zm.22396 4.9062q-1.4062 0-2.1979-.77604t-.79167-2.1979q0-1.4635.72917-2.2604.73437-.80209 2.026-.80209 1.2344 0 1.9219.70313.6875.70312.6875 1.9427v.77083h-3.7552q.026.67708.40104 1.0573.375.38021 1.0521.38021.52604 0 .99479-.10937.46875-.10938.97917-.34896v1.2292q-.41667.20834-.89062.3073-.47396.10416-1.1562.10416z"/>
    <path d="m652.44 615.02q0-.4375.23438-.66145.23437-.22396.68229-.22396.43229 0 .66666.22916.23959.22917.23959.65625 0 .41146-.23959.65105-.23958.23437-.66666.23437-.4375 0-.67709-.22917-.23958-.23437-.23958-.65625zm0-4.3021q0-.4375.23438-.66146.23437-.22396.68229-.22396.43229 0 .66666.22917.23959.22917.23959.65625 0 .42188-.24479.65625-.23959.22917-.66146.22917-.4375 0-.67709-.22917-.23958-.22917-.23958-.65625z"/>
    <path d="m660.84 615.87q-1.2396 0-1.9219-.76041-.67709-.76563-.67709-2.1615 0-1.4323.6875-2.2135.69271-.78125 1.9688-.78125.41146 0 .82292.0885t.64583.20833l-.26562.73438q-.28646-.11459-.625-.1875-.33854-.0781-.59896-.0781-1.7396 0-1.7396 2.2188 0 1.0521.42187 1.6146.42709.5625 1.2604.5625.71354 0 1.4635-.30729v.76563q-.57292.29687-1.4427.29687z"/>
    <path d="m668.57 612.9q0 1.3958-.70312 2.1823-.70313.78125-1.9427.78125-.76563 0-1.3594-.35937-.59375-.35938-.91666-1.0312-.32292-.67188-.32292-1.5729 0-1.3958.69792-2.1719.69791-.78125 1.9375-.78125 1.1979 0 1.901.79687.70833.79688.70833 2.1562zm-4.349 0q0 1.0938.4375 1.6667.4375.57291 1.2865.57291t1.2865-.5677q.44271-.57292.44271-1.6719 0-1.0885-.44271-1.651-.4375-.56771-1.2969-.56771-.84896 0-1.2812.55729-.4323.55729-.4323 1.6615z"/>
    <path d="m673.99 615.76v-3.6927q0-.69792-.31771-1.0417t-.99479-.34375q-.89583 0-1.3125.48438-.41667.48437-.41667 1.599v2.9948h-.86458v-5.7083h.70312l.14063.78125h.0417q.26562-.42187.74479-.65104.47916-.23437 1.0677-.23437 1.0312 0 1.5521.5.52083.49479.52083 1.5885v3.724z"/>
    <path d="m678.47 615.15q.22917 0 .44271-.0312.21354-.0365.33854-.0729v.66146q-.14062.0677-.41666.10938-.27084.0469-.48959.0469-1.6562 0-1.6562-1.7448v-3.3958h-.81771v-.41667l.81771-.35937.36459-1.2188h.5v1.3229h1.6562v.67188h-1.6562v3.3594q0 .51563.24479.79167t.67187.27604z"/>
    <path d="m683 609.95q.3802 0 .68229.0625l-.11979.80208q-.35417-.0781-.625-.0781-.69271 0-1.1875.5625-.48959.5625-.48959 1.401v3.0625h-.86458v-5.7083h.71354l.099 1.0573h.0417q.3177-.55729.76562-.85937t.98438-.30208z"/>
    <path d="m689.68 612.9q0 1.3958-.70313 2.1823-.70312.78125-1.9427.78125-.76562 0-1.3594-.35937-.59375-.35938-.91667-1.0312-.32292-.67188-.32292-1.5729 0-1.3958.69792-2.1719.69792-.78125 1.9375-.78125 1.1979 0 1.901.79687.70834.79688.70834 2.1562zm-4.349 0q0 1.0938.4375 1.6667.4375.57291 1.2865.57291.84895 0 1.2864-.5677.44271-.57292.44271-1.6719 0-1.0885-.44271-1.651-.4375-.56771-1.2969-.56771-.84896 0-1.2812.55729t-.43229 1.6615z"/>
    <path d="m692.05 615.76h-.86459v-8.1042h.86459z"/>
    <path d="m697.58 614.21q0 .79688-.59375 1.2292t-1.6667.43229q-1.1354 0-1.7708-.35937v-.80209q.41146.20834.88021.32813.47396.11979.91146.11979.67708 0 1.0417-.21354.36459-.21875.36459-.66146 0-.33333-.29167-.56771-.28646-.23958-1.125-.5625-.79687-.29687-1.1354-.51562-.33333-.22396-.5-.50521-.16145-.28125-.16145-.67188 0-.69791.5677-1.099.56771-.40625 1.5573-.40625.92187 0 1.8021.375l-.30729.70312q-.85938-.35417-1.5573-.35417-.61459 0-.92709.19271t-.3125.53125q0 .22917.11459.39063.11979.16146.3802.30729.26042.14583 1 .42187 1.0156.3698 1.3698.7448.35937.375.35937.9427z"/>
    <path d="m705.66 615.76v-3.6927q0-.69792-.31771-1.0417-.3177-.34375-.99479-.34375-.90104 0-1.3177.48958-.41145.48959-.41145 1.6042v2.9844h-.86459v-8.1042h.86459v2.4531q0 .44271-.0417.73438h.0521q.25521-.41146.72396-.64583.47396-.23959 1.0781-.23959 1.0469 0 1.5677.5.52605.49479.52605 1.5781v3.724z"/>
    <path d="m713.22 612.9q0 1.3958-.70312 2.1823-.70313.78125-1.9427.78125-.76563 0-1.3594-.35937-.59375-.35938-.91666-1.0312-.32292-.67188-.32292-1.5729 0-1.3958.69792-2.1719.69791-.78125 1.9375-.78125 1.1979 0 1.901.79687.70833.79688.70833 2.1562zm-4.349 0q0 1.0938.4375 1.6667.4375.57291 1.2865.57291t1.2865-.5677q.44271-.57292.44271-1.6719 0-1.0885-.44271-1.651-.4375-.56771-1.2969-.56771-.84895 0-1.2812.55729-.43229.55729-.43229 1.6615z"/>
    <path d="m719.39 615.76-1.0469-3.349q-.099-.30729-.36979-1.3958h-.0417q-.20833.91146-.36458 1.4062l-1.0781 3.3386h-1l-1.5573-5.7083h.90625q.55209 2.151.83854 3.276.29167 1.125.33334 1.5156h.0417q.0573-.29688.1823-.76563.1302-.47395.22395-.75l1.0469-3.276h.9375l1.0208 3.276q.29167.89584.39584 1.5052h.0417q.0208-.1875.10938-.57812.0937-.39063 1.0885-4.2031h.89583l-1.5781 5.7083z"/>
    <path d="m603.19 633.13v-3.7135q0-.68229-.29167-1.0208-.29166-.34375-.90625-.34375-.80729 0-1.1927.46355-.38541.46354-.38541 1.4271v3.1875h-.86459v-3.7135q0-.68229-.29166-1.0208-.29167-.34375-.91146-.34375-.8125 0-1.1927.48959-.375.48437-.375 1.5938v2.9948h-.86458v-5.7083h.70312l.14063.78125h.0417q.2448-.41667.6875-.65105.44792-.23437 1-.23437 1.3386 0 1.75.96875h.0417q.25521-.44792.73958-.70833.48438-.26042 1.1042-.26042.96875 0 1.4479.5.48437.49479.48437 1.5885v3.724z"/>
    <path d="m606.65 627.42v3.7031q0 .69792.31771 1.0417t.99479.34375q.89584 0 1.3073-.48959.41666-.48958.41666-1.599v-3h.86459v5.7083h-.71355l-.125-.76563h-.0469q-.26563.42188-.73958.64584-.46875.22396-1.0729.22396-1.0417 0-1.5625-.4948-.51563-.49479-.51563-1.5833v-3.7344z"/>
    <path d="m614.66 633.23q-1.2396 0-1.9219-.76042-.67709-.76563-.67709-2.1615 0-1.4323.6875-2.2135.69271-.78125 1.9688-.78125.41146 0 .82292.0885t.64583.20833l-.26562.73438q-.28646-.11458-.625-.1875-.33854-.0781-.59896-.0781-1.7396 0-1.7396 2.2188 0 1.0521.42187 1.6146.42708.5625 1.2604.5625.71354 0 1.4635-.30729v.76562q-.57292.29688-1.4427.29688z"/>
    <path d="m621.36 633.13v-3.6927q0-.69792-.3177-1.0417-.31771-.34375-.9948-.34375-.90104 0-1.3177.48959-.41146.48958-.41146 1.6042v2.9844h-.86459v-8.1042h.86459v2.4531q0 .44271-.0417.73437h.0521q.25521-.41146.72396-.64583.47396-.23958 1.0781-.23958 1.0469 0 1.5677.5.52604.49479.52604 1.5781v3.724z"/>
    <path d="m631.7 630.27q0 1.3958-.70313 2.1823-.70312.78125-1.9427.78125-.76562 0-1.3594-.35938-.59375-.35937-.91667-1.0312-.32291-.67187-.32291-1.5729 0-1.3958.69791-2.1719.69792-.78125 1.9375-.78125 1.1979 0 1.901.79687.70834.79688.70834 2.1562zm-4.349 0q0 1.0938.4375 1.6667t1.2865.57292 1.2865-.56771q.4427-.57292.4427-1.6719 0-1.0885-.4427-1.651-.4375-.56771-1.2969-.56771-.84896 0-1.2812.5573-.43229.55729-.43229 1.6614z"/>
    <path d="m635.78 628.09h-1.4531v5.0365h-.86459v-5.0365h-1.0208v-.39062l1.0208-.3125v-.31771q0-2.1042 1.8385-2.1042.45313 0 1.0625.18229l-.22395.69271q-.5-.16146-.85417-.16146-.48958 0-.72396.32813-.23437.32291-.23437 1.0417v.3698h1.4531z"/>
    <path d="m640.47 633.13h-.86458v-5.7083h.86458zm-.9375-7.2552q0-.29687.14583-.43229.14584-.14063.36459-.14063.20833 0 .35937.14063.15104.14062.15104.43229t-.15104.4375q-.15104.14063-.35937.14063-.21875 0-.36459-.14063-.14583-.14583-.14583-.4375z"/>
    <path d="m646.22 633.13v-3.6927q0-.69792-.31771-1.0417-.3177-.34375-.99479-.34375-.89583 0-1.3125.48438-.41666.48437-.41666 1.599v2.9948h-.86459v-5.7083h.70313l.14062.78125h.0417q.26562-.42188.74479-.65105.47917-.23437 1.0677-.23437 1.0312 0 1.5521.5.52084.49479.52084 1.5885v3.724z"/>
    <path d="m651.51 633.23q-.55729 0-1.0208-.20313-.45833-.20833-.77083-.63542h-.0625q.0625.5.0625.94792v2.349h-.86458v-8.2708h.70312l.11979.78125h.0417q.33333-.46875.77604-.67709.44271-.20833 1.0156-.20833 1.1354 0 1.75.77604.61979.77604.61979 2.1771 0 1.4062-.63021 2.1875-.625.77605-1.7396.77605zm-.125-5.1823q-.875 0-1.2656.48438-.39062.48437-.40104 1.5417v.1927q0 1.2031.40104 1.724.40104.51563 1.2865.51563.73958 0 1.1562-.59896.42188-.59896.42188-1.651 0-1.0677-.42188-1.6354-.41667-.57292-1.1771-.57292z"/>
    <path d="m656.21 627.42v3.7031q0 .69792.31771 1.0417t.99479.34375q.89584 0 1.3073-.48959.41666-.48958.41666-1.599v-3h.86459v5.7083h-.71355l-.125-.76563h-.0469q-.26563.42188-.73958.64584-.46875.22396-1.0729.22396-1.0417 0-1.5625-.4948-.51563-.49479-.51563-1.5833v-3.7344z"/>
    <path d="m663.78 632.52q.22917 0 .44271-.0312.21354-.0364.33854-.0729v.66146q-.14062.0677-.41666.10937-.27084.0469-.48959.0469-1.6562 0-1.6562-1.7448v-3.3958h-.81771v-.41667l.81771-.35945.36459-1.2188h.5v1.3229h1.6562v.67187h-1.6562v3.3594q0 .51562.24479.79166t.67187.27604z"/>
    <path d="m669.34 633.13h-.86458v-5.7083h.86458zm-.9375-7.2552q0-.29687.14583-.43229.14584-.14063.36459-.14063.20833 0 .35937.14063.15104.14062.15104.43229t-.15104.4375q-.15104.14063-.35937.14063-.21875 0-.36459-.14063-.14583-.14583-.14583-.4375z"/>
    <path d="m674.87 631.57q0 .79687-.59375 1.2292-.59375.4323-1.6667.4323-1.1354 0-1.7708-.35938v-.80208q.41146.20833.88021.32812.47396.11979.91146.11979.67708 0 1.0417-.21354.36458-.21875.36458-.66146 0-.33333-.29167-.5677-.28645-.23959-1.125-.5625-.79687-.29688-1.1354-.51563-.33334-.22396-.5-.50521-.16146-.28125-.16146-.67187 0-.69792.56771-1.099.56771-.40625 1.5573-.40625.92187 0 1.8021.375l-.30729.70312q-.85937-.35416-1.5573-.35416-.61458 0-.92708.19271-.3125.1927-.3125.53125 0 .22916.11458.39062.11979.16146.38021.30729.26041.14584 1 .42188 1.0156.36979 1.3698.74479.35937.375.35937.94271z"/>
    <path d="m679.85 627.42v3.7031q0 .69792.31771 1.0417.3177.34375.99479.34375.89583 0 1.3073-.48959.41667-.48958.41667-1.599v-3h.86458v5.7083h-.71354l-.125-.76563h-.0469q-.26562.42188-.73958.64584-.46875.22396-1.0729.22396-1.0417 0-1.5625-.4948-.51562-.49479-.51562-1.5833v-3.7344z"/>
    <path d="m689.27 631.57q0 .79687-.59375 1.2292-.59375.4323-1.6667.4323-1.1354 0-1.7708-.35938v-.80208q.41146.20833.88021.32812.47396.11979.91146.11979.67708 0 1.0417-.21354.36459-.21875.36459-.66146 0-.33333-.29167-.5677-.28646-.23959-1.125-.5625-.79687-.29688-1.1354-.51563-.33333-.22396-.5-.50521-.16145-.28125-.16145-.67187 0-.69792.5677-1.099.56771-.40625 1.5573-.40625.92187 0 1.8021.375l-.30729.70312q-.85938-.35416-1.5573-.35416-.61459 0-.92709.19271-.3125.1927-.3125.53125 0 .22916.11459.39062.11979.16146.3802.30729.26042.14584 1 .42188 1.0156.36979 1.3698.74479.35937.375.35937.94271z"/>
    <path d="m693.08 633.23q-1.2656 0-2-.77084-.72917-.77083-.72917-2.1406 0-1.3802.67708-2.1927.68229-.8125 1.8281-.8125 1.0729 0 1.6979.70833.625.70313.625 1.8594v.54687h-3.9323q.026 1.0052.50521 1.526.48438.52084 1.3594.52084.92187 0 1.8229-.38542v.77083q-.45833.19792-.86979.28125-.40625.0886-.98437.0886zm-.23438-5.1927q-.6875 0-1.099.44791-.40625.44792-.47916 1.2396h2.9844q0-.81771-.36458-1.25-.36459-.4375-1.0417-.4375z"/>
    <path d="m700.53 632.36h-.0469q-.59896.8698-1.7917.8698-1.1198 0-1.7448-.76563-.61979-.76562-.61979-2.1771t.625-2.1927 1.7396-.78125q1.1615 0 1.7812.84375h.0677l-.0365-.41146-.0208-.40104v-2.3229h.86458v8.1042h-.70312zm-1.7292.14584q.88542 0 1.2812-.47917.40104-.48437.40104-1.5573v-.18229q0-1.2135-.40625-1.7292-.40104-.52083-1.2865-.52083-.76041 0-1.1667.59375-.40105.58854-.40105 1.6667 0 1.0938.40105 1.651.40104.55729 1.1771.55729z"/>
    <path d="m706.82 633.13h-.86458v-5.7083h.86458zm-.9375-7.2552q0-.29687.14584-.43229.14583-.14063.36458-.14063.20833 0 .35937.14063.15105.14062.15105.43229t-.15105.4375q-.15104.14063-.35937.14063-.21875 0-.36458-.14063-.14584-.14583-.14584-.4375z"/>
    <path d="m712.57 633.13v-3.6927q0-.69792-.3177-1.0417-.31771-.34375-.9948-.34375-.89583 0-1.3125.48438-.41666.48437-.41666 1.599v2.9948h-.86459v-5.7083h.70313l.14062.78125h.0417q.26563-.42188.74479-.65105.47917-.23437 1.0677-.23437 1.0312 0 1.5521.5.52084.49479.52084 1.5885v3.724z"/>
    <path d="m719.82 632.52q.22917 0 .44271-.0312.21354-.0364.33854-.0729v.66146q-.14062.0677-.41666.10937-.27084.0469-.48959.0469-1.6562 0-1.6562-1.7448v-3.3958h-.8177v-.41667l.8177-.35937.36459-1.2188h.5v1.3229h1.6562v.67187h-1.6562v3.3594q0 .51562.24479.79166t.67187.27604z"/>
    <path d="m725.66 633.13v-3.6927q0-.69792-.31771-1.0417-.3177-.34375-.99479-.34375-.90104 0-1.3177.48959-.41145.48958-.41145 1.6042v2.9844h-.86459v-8.1042h.86459v2.4531q0 .44271-.0417.73437h.0521q.25521-.41146.72396-.64583.47396-.23958 1.0781-.23958 1.0469 0 1.5677.5.52605.49479.52605 1.5781v3.724z"/>
    <path d="m730.7 633.23q-1.2656 0-2-.77084-.72917-.77083-.72917-2.1406 0-1.3802.67708-2.1927.68229-.8125 1.8281-.8125 1.0729 0 1.6979.70833.625.70313.625 1.8594v.54687h-3.9323q.026 1.0052.50521 1.526.48438.52084 1.3594.52084.92187 0 1.8229-.38542v.77083q-.45833.19792-.86979.28125-.40625.0886-.98437.0886zm-.23438-5.1927q-.6875 0-1.099.44791-.40625.44792-.47916 1.2396h2.9844q0-.81771-.36458-1.25-.36459-.4375-1.0417-.4375z"/>
    <path d="m599.82 650.49v-3.6927q0-.69791-.31771-1.0417t-.99479-.34375q-.89584 0-1.3125.48437-.41667.48438-.41667 1.599v2.9948h-.86458v-5.7083h.70312l.14063.78125h.0417q.26563-.42188.7448-.65104.47916-.23438 1.0677-.23438 1.0312 0 1.5521.5.52083.49479.52083 1.5885v3.724z"/>
    <path d="m604.87 650.59q-1.2656 0-2-.77083-.72916-.77084-.72916-2.1406 0-1.3802.67708-2.1927.68229-.8125 1.8281-.8125 1.0729 0 1.6979.70833.625.70313.625 1.8594v.54688h-3.9323q.026 1.0052.50521 1.526.48437.52083 1.3594.52083.92188 0 1.8229-.38542v.77084q-.45833.19791-.86979.28125-.40625.0885-.98438.0885zm-.23437-5.1927q-.6875 0-1.099.44792-.40625.44791-.47917 1.2396h2.9844q0-.81771-.36459-1.25-.36458-.4375-1.0417-.4375z"/>
    <path d="m613.1 650.49-1.0469-3.349q-.099-.30729-.36979-1.3958h-.0417q-.20834.91146-.36459 1.4062l-1.0781 3.3385h-1l-1.5573-5.7083h.90625q.55208 2.151.83854 3.276.29166 1.125.33333 1.5156h.0417q.0573-.29688.18229-.76563.13021-.47396.22396-.75l1.0469-3.276h.9375l1.0208 3.276q.29166.89583.39583 1.5052h.0417q.0208-.1875.10937-.57813.0937-.39062 1.0885-4.2031h.89584l-1.5781 5.7083z"/>
    <path d="m621.78 650.59q-1.2396 0-1.9219-.76042-.67709-.76562-.67709-2.1615 0-1.4323.6875-2.2135.69271-.78125 1.9688-.78125.41146 0 .82292.0885t.64583.20834l-.26562.73437q-.28646-.11458-.625-.1875-.33854-.0781-.59896-.0781-1.7396 0-1.7396 2.2188 0 1.0521.42187 1.6146.42708.5625 1.2604.5625.71354 0 1.4635-.30729v.76562q-.57292.29688-1.4427.29688z"/>
    <path d="m626.99 650.59q-1.2656 0-2-.77083-.72916-.77084-.72916-2.1406 0-1.3802.67708-2.1927.68229-.8125 1.8281-.8125 1.0729 0 1.6979.70833.625.70313.625 1.8594v.54688h-3.9323q.026 1.0052.50521 1.526.48437.52083 1.3594.52083.92188 0 1.8229-.38542v.77084q-.45833.19791-.86979.28125-.40625.0885-.98438.0885zm-.23437-5.1927q-.6875 0-1.099.44792-.40625.44791-.47917 1.2396h2.9844q0-.81771-.36459-1.25-.36458-.4375-1.0417-.4375z"/>
    <path d="m631.43 650.49h-.86459v-8.1042h.86459z"/>
    <path d="m634.14 650.49h-.86459v-8.1042h.86459z"/>
    <path d="m640 650.49-2.1667-5.7083h.92708l1.2292 3.3854q.41666 1.1875.48958 1.5417h.0417q.0573-.27604.35937-1.1406.30729-.86979 1.3698-3.7865h.92709l-2.1667 5.7083z"/>
    <path d="m647.61 650.49-.17188-.8125h-.0417q-.42709.53646-.85417.72917-.42188.1875-1.0573.1875-.84896 0-1.3333-.4375-.47916-.4375-.47916-1.2448 0-1.7292 2.7656-1.8125l.96875-.0312v-.35417q0-.67188-.29166-.98958-.28646-.32292-.92188-.32292-.71354 0-1.6146.4375l-.26563-.66146q.42188-.22917.92188-.35937.50521-.13021 1.0104-.13021 1.0208 0 1.5104.45312.49479.45313.49479 1.4531v3.8958zm-1.9531-.60937q.80729 0 1.2656-.44271.46354-.44271.46354-1.2396v-.51563l-.86458.0365q-1.0312.0365-1.4896.32292-.45312.28125-.45312.8802 0 .46875.28125.71355.28646.24479.79687.24479z"/>
    <path d="m650.91 650.49h-.86458v-8.1042h.86458z"/>
    <path d="m653.56 644.78v3.7031q0 .69792.31771 1.0417t.99479.34375q.89584 0 1.3073-.48958.41667-.48959.41667-1.599v-3h.86458v5.7083h-.71354l-.125-.76562h-.0469q-.26563.42187-.73959.64583-.46875.22396-1.0729.22396-1.0417 0-1.5625-.49479-.51563-.49479-.51563-1.5833v-3.7344z"/>
    <path d="m661.7 650.59q-1.2656 0-2-.77083-.72917-.77084-.72917-2.1406 0-1.3802.67709-2.1927.68229-.8125 1.8281-.8125 1.0729 0 1.6979.70833.625.70313.625 1.8594v.54688h-3.9323q.026 1.0052.5052 1.526.48438.52083 1.3594.52083.92187 0 1.8229-.38542v.77084q-.45834.19791-.8698.28125-.40625.0885-.98437.0885zm-.23438-5.1927q-.6875 0-1.099.44792-.40625.44791-.47917 1.2396h2.9844q0-.81771-.36458-1.25-.36458-.4375-1.0417-.4375z"/>
    <path d="m665.15 649.94q0-.34896.15625-.52604.16146-.18229.45833-.18229.30209 0 .46875.18229.17188.17708.17188.52604 0 .33854-.17188.52083-.17187.18229-.46875.18229-.26562 0-.44271-.16145-.17187-.16667-.17187-.54167z"/>
   </g>
  </g>
  <g transform="translate(24.657 -114.64)">
   <g>
    <circle cx="53.454" cy="180.77" r="3.2" fill="#f0f0f5" stroke="#f0f0f5" stroke-width=".356"/>
    <circle cx="53.454" cy="180.77" r="2.822" fill="#e0cef5" stroke="#666" stroke-width=".356"/>
    <g fill="#666" aria-label="">
     <path d="m54.235 180.91q0 .29748-.11748.52675-.11558.22738-.33348.35054-.21601.12316-.50781.12316-.44528 0-.69539-.27285t-.25011-.75413q0-1.0876 1.1217-1.0876h.94551v.26907h-.50023q.33728.31643.33728.84508zm-1.5784-.0265q0 .36759.16106.56655.16106.19706.46612.19706.30127 0 .46233-.18569.16295-.18759.16295-.53244 0-.5116-.3297-.86403h-.12316q-.42065 0-.61013.19706-.18948.19705-.18948.62149z" fill="#666" stroke-width=".356"/>
    </g>
   </g>
  </g>
  <g transform="translate(6.7353 -114.56)">
   <g>
    <circle cx="53.454" cy="180.77" r="3.2" fill="#f0f0f5" stroke="#f0f0f5" stroke-width=".356"/>
    <circle cx="53.454" cy="180.77" r="2.822" fill="#e0cef5" stroke="#666" stroke-width=".356"/>
    <g fill="#666" aria-label="">
     <path d="m54.235 180.91q0 .29748-.11748.52675-.11558.22738-.33348.35054-.21601.12316-.50781.12316-.44528 0-.69539-.27285t-.25011-.75413q0-1.0876 1.1217-1.0876h.94551v.26907h-.50023q.33728.31643.33728.84508zm-1.5784-.0265q0 .36759.16106.56655.16106.19706.46612.19706.30127 0 .46233-.18569.16295-.18759.16295-.53244 0-.5116-.3297-.86403h-.12316q-.42065 0-.61013.19706-.18948.19705-.18948.62149z" fill="#666" stroke-width=".356"/>
    </g>
   </g>
  </g>
  <g transform="translate(15.696 -114.48)">
   <g>
    <circle cx="53.454" cy="180.77" r="3.2" fill="#f0f0f5" stroke="#f0f0f5" stroke-width=".356"/>
    <circle cx="53.454" cy="180.77" r="2.822" fill="#e0cef5" stroke="#666" stroke-width=".356"/>
    <g fill="#666" aria-label="">
     <path d="m54.235 180.91q0 .29748-.11748.52675-.11558.22738-.33348.35054-.21601.12316-.50781.12316-.44528 0-.69539-.27285t-.25011-.75413q0-1.0876 1.1217-1.0876h.94551v.26907h-.50023q.33728.31643.33728.84508zm-1.5784-.0265q0 .36759.16106.56655.16106.19706.46612.19706.30127 0 .46233-.18569.16295-.18759.16295-.53244 0-.5116-.3297-.86403h-.12316q-.42065 0-.61013.19706-.18948.19705-.18948.62149z" fill="#666" stroke-width=".356"/>
    </g>
   </g>
  </g>
  <g transform="translate(42.578 -131.72)">
   <g>
    <circle cx="53.454" cy="180.77" r="3.2" fill="#f0f0f5" stroke="#f0f0f5" stroke-width=".356"/>
    <circle cx="53.454" cy="180.77" r="2.822" fill="#e0cef5" stroke="#666" stroke-width=".356"/>
    <g fill="#666" aria-label="">
     <path d="m54.235 180.91q0 .29748-.11748.52675-.11558.22738-.33348.35054-.21601.12316-.50781.12316-.44528 0-.69539-.27285t-.25011-.75413q0-1.0876 1.1217-1.0876h.94551v.26907h-.50023q.33728.31643.33728.84508zm-1.5784-.0265q0 .36759.16106.56655.16106.19706.46612.19706.30127 0 .46233-.18569.16295-.18759.16295-.53244 0-.5116-.3297-.86403h-.12316q-.42065 0-.61013.19706-.18948.19705-.18948.62149z" fill="#666" stroke-width=".356"/>
    </g>
   </g>
  </g>
  <g transform="translate(33.617 -114.93)">
   <g>
    <circle cx="53.454" cy="180.77" r="3.2" fill="#f0f0f5" stroke="#f0f0f5" stroke-width=".356"/>
    <circle cx="53.454" cy="180.77" r="2.822" fill="#e0cef5" stroke="#666" stroke-width=".356"/>
    <g fill="#666" aria-label="">
     <path d="m54.235 180.91q0 .29748-.11748.52675-.11558.22738-.33348.35054-.21601.12316-.50781.12316-.44528 0-.69539-.27285t-.25011-.75413q0-1.0876 1.1217-1.0876h.94551v.26907h-.50023q.33728.31643.33728.84508zm-1.5784-.0265q0 .36759.16106.56655.16106.19706.46612.19706.30127 0 .46233-.18569.16295-.18759.16295-.53244 0-.5116-.3297-.86403h-.12316q-.42065 0-.61013.19706-.18948.19705-.18948.62149z" fill="#666" stroke-width=".356"/>
    </g>
   </g>
  </g>
  <g transform="translate(22.127 -58.484)">
   <use transform="matrix(.10086 0 0 .10086 93.816 96.619)" x="-1.0648" y="31.248199" width="100%" height="100%" fill="#666666" xlink:href="#z"/>
   <use transform="matrix(.10086 0 0 .10086 93.816 96.619)" x="14.4548" y="16.441401" width="100%" height="100%" fill="#666666" xlink:href="#v"/>
   <g transform="matrix(.10086 0 0 .10086 93.816 96.619)" fill="#666">
    <use x="14.4548" y="40.115002" width="100%" height="100%" fill="#666666" xlink:href="#q"/>
   </g>
  </g>
  <g transform="translate(-86.899 -54.656)" fill="#666666">
   <use transform="matrix(.092743 0 0 .092743 122.33 92.789)" x="-1.438" y="32.848202" width="100%" height="100%" xlink:href="#ab"/>
   <use transform="matrix(.092743 0 0 .092743 122.33 92.789)" x="14.0852" y="17.5086" width="100%" height="100%" xlink:href="#w"/>
   <use transform="matrix(.092743 0 0 .092743 122.33 92.789)" x="24.917601" y="17.5086" width="100%" height="100%" xlink:href="#n"/>
   <use transform="matrix(.092743 0 0 .092743 122.33 92.789)" x="47.334801" y="17.5086" width="100%" height="100%" xlink:href="#l"/>
   <use transform="matrix(.092743 0 0 .092743 122.33 92.789)" x="14.0852" y="43.6698" width="100%" height="100%" xlink:href="#s"/>
  </g>
  <g transform="matrix(.26458 0 0 .26458 29.717 -19.705)" fill="none" stroke="#e9e9e9" data-name="&lt;Group&gt;">
   <path d="m83.352 372.67v-15.702c0-5.54 4.46-10.001 10-10.001h5.1404" fill="none" stroke="#666" stroke-width="1.3795"/>
  </g>
  <path d="m72.722 66.667 1.2878.000378 5.4e-5 10.836 2.3519-.000378" fill="none" stroke="#666" stroke-dasharray="0.365, 0.73" stroke-width=".365"/>
  <g transform="matrix(.28591 0 0 .28591 32.207 -13.284)">
   <g transform="matrix(.35278 0 0 .35278 62.089 125.8)" fill="#666">
    <use x="-1.6388" y="31.248199" width="100%" height="100%" fill="#666666" xlink:href="#c"/>
   </g>
   <g transform="matrix(.35278 0 0 .35278 62.089 125.8)" fill="#656565" fill-opacity=".99608">
    <use x="19.0252" y="16.441401" width="100%" height="100%" fill="#656565" fill-opacity=".99608" xlink:href="#b"/>
   </g>
   <g transform="matrix(.35278 0 0 .35278 62.089 125.8)" fill="#666">
    <use x="19.0252" y="40.115002" width="100%" height="100%" fill="#666666" xlink:href="#a"/>
   </g>
  </g>
 </g>
</svg>
